<svg width="1273" height="523" viewBox="0 0 1273 523" fill="none" xmlns="http://www.w3.org/2000/svg">
<mask id="mask0_81_29863" style="mask-type:alpha" maskUnits="userSpaceOnUse" x="567" y="244" width="500" height="499">
<path fill-rule="evenodd" clip-rule="evenodd" d="M986.761 314.827C1087.66 410.84 1093.47 568.521 999.736 667.016C906.006 765.511 748.232 767.523 647.336 671.51C546.441 575.497 540.632 417.816 634.361 319.321C728.091 220.826 885.865 218.814 986.761 314.827ZM944.948 357.329C868.484 284.565 748.914 286.09 677.881 360.735C606.848 435.38 611.25 554.879 687.714 627.643C764.178 700.407 883.748 698.882 954.781 624.237C1025.81 549.592 1021.41 430.093 944.948 357.329Z" fill="#D9D9D9"/>
</mask>
<g mask="url(#mask0_81_29863)">
<path d="M816.59 493.172L983.414 317.865" stroke="#EAEFFF" stroke-opacity="0.81" stroke-width="2" stroke-miterlimit="10"/>
<path d="M816.59 493.171L817.252 493.92L999.904 333.675L999.241 332.926L998.579 332.177L815.927 492.422L816.59 493.171Z" fill="#EAEFFF" fill-opacity="0.81"/>
<path d="M816.589 493.172L967.132 303.639" stroke="#EAEFFF" stroke-opacity="0.81" stroke-width="9" stroke-miterlimit="10"/>
<path d="M816.588 493.174L949.692 290.856" stroke="#EAEFFF" stroke-opacity="0.81" stroke-width="9" stroke-miterlimit="10"/>
<path d="M816.59 493.172L911.932 269.992" stroke="#EAEFFF" stroke-opacity="0.81" stroke-width="7" stroke-miterlimit="10"/>
<path d="M816.59 493.173L891.892 262.068" stroke="#EAEFFF" stroke-opacity="0.81" stroke-width="7" stroke-miterlimit="10"/>
<path d="M816.592 493.173L871.275 255.909" stroke="#EAEFFF" stroke-opacity="0.81" stroke-width="7" stroke-miterlimit="10"/>
<path d="M816.59 493.174L850.241 251.551" stroke="#EAEFFF" stroke-opacity="0.81" stroke-width="5" stroke-miterlimit="10"/>
<path d="M816.589 493.175L828.958 249.037" stroke="#EAEFFF" stroke-opacity="0.81" stroke-width="5" stroke-miterlimit="10"/>
<path d="M816.589 493.175L807.571 248.381" stroke="#EAEFFF" stroke-opacity="0.81" stroke-width="5" stroke-miterlimit="10"/>
<path d="M816.588 493.174L786.252 249.581" stroke="#EAEFFF" stroke-opacity="0.81" stroke-width="5" stroke-miterlimit="10"/>
<path d="M816.59 493.173L744.484 257.527" stroke="#EAEFFF" stroke-opacity="0.81" stroke-width="11" stroke-miterlimit="10"/>
<path d="M816.592 493.174L704.903 272.634" stroke="#EAEFFF" stroke-opacity="0.81" stroke-width="11" stroke-miterlimit="10"/>
<path d="M816.589 493.173L668.711 294.439" stroke="#EAEFFF" stroke-opacity="0.81" stroke-width="11" stroke-miterlimit="10"/>
<path d="M816.589 493.171L637.011 322.282" stroke="#EAEFFF" stroke-opacity="0.81" stroke-width="11" stroke-miterlimit="10"/>
<path d="M816.405 493.812L819.488 489.258L614.331 350.412L611.247 354.966L608.164 359.52L813.321 498.366L816.405 493.812Z" fill="#EAEFFF" fill-opacity="0.81"/>
<path d="M816.403 493.81L819.331 488.573L603.261 367.827L600.333 373.064L597.405 378.301L813.475 499.046L816.403 493.81Z" fill="#EAEFFF" fill-opacity="0.81"/>
<path d="M816.404 493.81L818.874 488.343L593.544 386.619L591.074 392.086L588.604 397.554L813.935 499.278L816.404 493.81Z" fill="#EAEFFF" fill-opacity="0.81"/>
<path d="M816.403 493.809L818.395 488.15L585.512 406.218L583.52 411.877L581.528 417.536L814.411 499.468L816.403 493.809Z" fill="#EAEFFF" fill-opacity="0.81"/>
<path d="M812.944 490.15L814.765 479.793L572.509 436.745L570.688 447.102L568.867 457.459L811.122 500.507L812.944 490.15Z" fill="#EAEFFF" fill-opacity="0.81"/>
<path d="M813.56 496.432L813.768 490.943L568.68 481.711L568.473 487.2L568.265 492.689L813.353 501.922L813.56 496.432Z" fill="#EAEFFF" fill-opacity="0.81"/>
<path d="M813.561 496.43L813.287 490.944L568.841 503.068L569.115 508.554L569.389 514.041L813.835 501.917L813.561 496.43Z" fill="#EAEFFF" fill-opacity="0.81"/>
<path d="M816.592 493.172L576.934 538.755" stroke="#EAEFFF" stroke-opacity="0.81" stroke-width="2" stroke-miterlimit="10"/>
<path d="M816.591 493.173L582.324 559.552" stroke="#EAEFFF" stroke-opacity="0.81" stroke-width="8" stroke-miterlimit="10"/>
<path d="M816.592 493.172L589.503 579.835" stroke="#EAEFFF" stroke-opacity="0.81" stroke-width="8" stroke-miterlimit="10"/>
<path d="M816.591 493.171L598.405 599.461" stroke="#EAEFFF" stroke-opacity="0.81" stroke-width="13" stroke-miterlimit="10"/>
<path d="M816.59 493.171L608.974 618.278" stroke="#EAEFFF" stroke-opacity="0.81" stroke-width="13" stroke-miterlimit="10"/>
<path d="M816.591 493.172L621.114 636.142" stroke="#EAEFFF" stroke-opacity="0.81" stroke-width="8" stroke-miterlimit="10"/>
<path d="M816.59 493.171L634.75 652.921" stroke="#EAEFFF" stroke-opacity="0.81" stroke-width="2" stroke-miterlimit="10"/>
<path d="M816.59 493.172L649.766 668.479" stroke="#EAEFFF" stroke-opacity="0.81" stroke-width="2" stroke-miterlimit="10"/>
<path d="M816.59 493.172L666.052 682.71" stroke="#EAEFFF" stroke-opacity="0.81" stroke-width="2" stroke-miterlimit="10"/>
<path d="M816.59 493.172L683.482 695.494" stroke="#EAEFFF" stroke-opacity="0.81" stroke-miterlimit="10"/>
<path d="M816.59 493.172L741.288 724.277" stroke="#EAEFFF" stroke-opacity="0.81" stroke-miterlimit="10"/>
<path d="M816.59 493.172L761.902 730.44" stroke="#EAEFFF" stroke-opacity="0.81" stroke-miterlimit="10"/>
<path d="M816.59 493.172L782.94 734.794" stroke="#EAEFFF" stroke-opacity="0.81" stroke-width="2" stroke-miterlimit="10"/>
<path d="M816.59 493.172L804.227 737.314" stroke="#EAEFFF" stroke-opacity="0.81" stroke-width="2" stroke-miterlimit="10"/>
<path d="M816.59 493.172L825.609 737.975" stroke="#EAEFFF" stroke-opacity="0.81" stroke-width="3" stroke-miterlimit="10"/>
<path d="M816.59 493.172L846.922 736.77" stroke="#EAEFFF" stroke-opacity="0.81" stroke-width="3" stroke-miterlimit="10"/>
<path d="M816.59 493.172L868.004 733.709" stroke="#EAEFFF" stroke-opacity="0.81" stroke-width="2" stroke-miterlimit="10"/>
<path d="M816.59 493.172L888.701 728.823" stroke="#EAEFFF" stroke-opacity="0.81" stroke-width="4" stroke-miterlimit="10"/>
<path d="M816.59 493.172L908.842 722.14" stroke="#EAEFFF" stroke-opacity="0.81" stroke-width="4" stroke-miterlimit="10"/>
<path d="M816.59 493.172L928.284 713.717" stroke="#EAEFFF" stroke-opacity="0.81" stroke-width="4" stroke-miterlimit="10"/>
<path d="M816.59 493.172L946.871 703.614" stroke="#EAEFFF" stroke-opacity="0.81" stroke-width="5" stroke-miterlimit="10"/>
<path d="M816.59 493.172L964.473 691.91" stroke="#EAEFFF" stroke-opacity="0.81" stroke-width="6" stroke-miterlimit="10"/>
<path d="M816.59 493.172L980.946 678.694" stroke="#EAEFFF" stroke-opacity="0.81" stroke-width="14" stroke-miterlimit="10"/>
<path d="M816.59 493.172L996.169 664.061" stroke="#EAEFFF" stroke-opacity="0.81" stroke-width="14" stroke-miterlimit="10"/>
<path d="M816.588 493.174L1010.02 648.138" stroke="#EAEFFF" stroke-opacity="0.81" stroke-width="6" stroke-miterlimit="10"/>
<path d="M816.589 493.173L1022.41 631.026" stroke="#EAEFFF" stroke-opacity="0.81" stroke-width="6" stroke-miterlimit="10"/>
<path d="M816.588 493.174L1033.22 612.871" stroke="#EAEFFF" stroke-opacity="0.81" stroke-width="6" stroke-miterlimit="10"/>
<path d="M816.589 493.173L1042.4 593.8" stroke="#EAEFFF" stroke-opacity="0.81" stroke-width="9" stroke-miterlimit="10"/>
<path d="M816.588 493.174L1049.85 573.966" stroke="#EAEFFF" stroke-opacity="0.81" stroke-width="9" stroke-miterlimit="10"/>
<path d="M816.589 493.173L1055.52 553.517" stroke="#EAEFFF" stroke-opacity="0.81" stroke-width="9" stroke-miterlimit="10"/>
<path d="M816.589 493.174L1059.38 532.604" stroke="#EAEFFF" stroke-opacity="0.81" stroke-width="9" stroke-miterlimit="10"/>
<path d="M816.588 493.174L1061.39 511.402" stroke="#EAEFFF" stroke-opacity="0.81" stroke-width="7" stroke-miterlimit="10"/>
<path d="M816.588 493.174L1061.53 490.055" stroke="#EAEFFF" stroke-opacity="0.81" stroke-width="7" stroke-miterlimit="10"/>
<path d="M816.589 493.174L1059.82 468.727" stroke="#EAEFFF" stroke-opacity="0.81" stroke-width="14" stroke-miterlimit="10"/>
<path d="M816.589 493.173L1056.25 447.59" stroke="#EAEFFF" stroke-opacity="0.81" stroke-width="14" stroke-miterlimit="10"/>
<path d="M816.59 493.172L1050.85 426.798" stroke="#EAEFFF" stroke-opacity="0.81" stroke-width="14" stroke-miterlimit="10"/>
<path d="M816.589 493.173L1043.68 406.51" stroke="#EAEFFF" stroke-opacity="0.81" stroke-width="9" stroke-miterlimit="10"/>
<path d="M816.588 493.173L1034.77 386.888" stroke="#EAEFFF" stroke-opacity="0.81" stroke-width="9" stroke-miterlimit="10"/>
<path d="M816.589 493.173L1024.21 368.07" stroke="#EAEFFF" stroke-opacity="0.81" stroke-width="3" stroke-miterlimit="10"/>
<path d="M816.589 493.173L1012.06 350.207" stroke="#EAEFFF" stroke-opacity="0.81" stroke-miterlimit="10"/>
</g>
<mask id="mask1_81_29863" style="mask-type:alpha" maskUnits="userSpaceOnUse" x="497" y="173" width="641" height="640">
<path fill-rule="evenodd" clip-rule="evenodd" d="M647.41 218.014C797.091 127.821 994.573 177.694 1088.5 329.408C1182.43 481.123 1137.23 677.228 987.546 767.421C837.865 857.614 640.382 807.74 546.456 656.026C452.531 504.311 497.729 308.206 647.41 218.014ZM687.527 285.173C574.091 353.526 539.837 502.145 611.019 617.122C682.201 732.1 831.864 769.896 945.3 701.543C1058.74 633.19 1092.99 484.572 1021.81 369.594C950.626 254.617 800.963 216.82 687.527 285.173Z" fill="#D9D9D9"/>
</mask>
<g mask="url(#mask1_81_29863)">
<path d="M817.349 493.288L818.205 492.771L651.031 222.742L650.175 223.258L649.318 223.774L816.492 493.804L817.349 493.288Z" fill="#EAEFFF" fill-opacity="0.81"/>
<path d="M817.347 493.289L818.248 492.851L674.554 208.674L673.654 209.111L672.753 209.549L816.447 493.727L817.347 493.289Z" fill="#EAEFFF" fill-opacity="0.81"/>
<path d="M817.347 493.291L820.986 490.65L631.231 235.634L627.593 238.275L623.954 240.916L813.709 495.931L817.347 493.291Z" fill="#EAEFFF" fill-opacity="0.81"/>
<path d="M817.347 493.291L820.742 490.352L609.846 252.304L606.451 255.244L603.056 258.184L813.952 496.231L817.347 493.291Z" fill="#EAEFFF" fill-opacity="0.81"/>
<path d="M817.346 493.291L819.552 490.59L571.343 291.753L569.138 294.454L566.933 297.155L815.141 495.992L817.346 493.291Z" fill="#EAEFFF" fill-opacity="0.81"/>
<path d="M817.349 493.29L819.31 490.411L555.207 313.522L553.246 316.401L551.284 319.281L815.387 496.17L817.349 493.29Z" fill="#EAEFFF" fill-opacity="0.81"/>
<path d="M817.35 493.288L819.053 490.251L541.072 336.666L539.37 339.703L537.667 342.74L815.648 496.325L817.35 493.288Z" fill="#EAEFFF" fill-opacity="0.81"/>
<path d="M817.35 493.29L820.619 486.038L530.87 356.921L527.601 364.173L524.331 371.425L814.081 500.542L817.35 493.29Z" fill="#EAEFFF" fill-opacity="0.81"/>
<path d="M817.349 493.291L819.969 485.782L520.663 382.11L518.043 389.618L515.422 397.127L814.728 500.799L817.349 493.291Z" fill="#EAEFFF" fill-opacity="0.81"/>
<path d="M817.351 493.29L819.3 485.581L512.714 408.154L510.765 415.863L508.816 423.572L815.402 500.999L817.351 493.29Z" fill="#EAEFFF" fill-opacity="0.81"/>
<path d="M817.348 493.292L818.608 485.44L507.068 434.846L505.808 442.698L504.548 450.55L816.087 501.144L817.348 493.292Z" fill="#EAEFFF" fill-opacity="0.81"/>
<path d="M817.347 493.289L817.042 476.879L502.74 480.886L503.044 497.296L503.349 513.706L817.652 509.699L817.347 493.289Z" fill="#EAEFFF" fill-opacity="0.81"/>
<path d="M817.35 493.288L814.132 477.171L506.615 535.662L509.833 551.779L513.051 567.896L820.568 509.405L817.35 493.288Z" fill="#EAEFFF" fill-opacity="0.81"/>
<path d="M817.347 493.291L811.304 477.975L519.914 589.172L525.958 604.488L532.001 619.804L823.391 508.607L817.347 493.291Z" fill="#EAEFFF" fill-opacity="0.81"/>
<path d="M817.347 493.289L808.662 479.26L542.252 639.79L550.938 653.819L559.623 667.848L826.033 507.319L817.347 493.289Z" fill="#EAEFFF" fill-opacity="0.81"/>
<path d="M818.084 493.753L814.086 489.261L579.718 693.064L583.716 697.555L587.713 702.046L822.081 498.244L818.084 493.753Z" fill="#EAEFFF" fill-opacity="0.81"/>
<path d="M818.082 493.749L813.7 489.625L598.501 713.492L602.884 717.616L607.266 721.741L822.465 497.874L818.082 493.749Z" fill="#EAEFFF" fill-opacity="0.81"/>
<path d="M818.082 493.751L813.349 490.025L618.962 732.242L623.695 735.969L628.428 739.695L822.815 497.477L818.082 493.751Z" fill="#EAEFFF" fill-opacity="0.81"/>
<path d="M818.084 493.753L813.038 490.454L640.935 749.187L645.98 752.487L651.026 755.786L823.129 497.052L818.084 493.753Z" fill="#EAEFFF" fill-opacity="0.81"/>
<path d="M812.492 496.713L802.847 492.449L676.177 776.861L685.822 781.125L695.467 785.388L822.137 500.976L812.492 496.713Z" fill="#EAEFFF" fill-opacity="0.81"/>
<path d="M820.476 498.222L815.148 496.708L729.597 796.866L734.925 798.38L740.253 799.893L825.804 499.735L820.476 498.222Z" fill="#EAEFFF" fill-opacity="0.81"/>
<path d="M820.476 498.219L815.039 497.168L756.191 804.261L761.629 805.312L767.067 806.362L825.914 499.27L820.476 498.219Z" fill="#EAEFFF" fill-opacity="0.81"/>
<path d="M817.348 493.289L816.344 493.233L800.476 806.505L801.48 806.561L802.484 806.616L818.352 493.344L817.348 493.289Z" fill="#EAEFFF" fill-opacity="0.81"/>
<path d="M817.349 493.288L813.33 493.411L824.906 807.533L828.924 807.41L832.943 807.287L821.368 493.165L817.349 493.288Z" fill="#EAEFFF" fill-opacity="0.81"/>
<path d="M817.348 493.289L813.357 493.754L852.28 806.329L856.271 805.864L860.262 805.399L821.339 492.824L817.348 493.289Z" fill="#EAEFFF" fill-opacity="0.81"/>
<path d="M817.347 493.289L810.954 494.593L876.931 803.246L883.324 801.942L889.717 800.638L823.74 491.984L817.347 493.289Z" fill="#EAEFFF" fill-opacity="0.81"/>
<path d="M817.347 493.289L811.094 495.131L903.624 797.506L909.877 795.664L916.131 793.822L823.601 491.447L817.347 493.289Z" fill="#EAEFFF" fill-opacity="0.81"/>
<path d="M817.346 493.288L813.612 494.744L931.986 788.551L935.72 787.096L939.455 785.64L821.081 491.833L817.346 493.288Z" fill="#EAEFFF" fill-opacity="0.81"/>
<path d="M817.348 493.29L816.45 493.731L959.774 776.725L960.672 776.283L961.571 775.841L818.246 492.848L817.348 493.29Z" fill="#EAEFFF" fill-opacity="0.81"/>
<path d="M817.347 493.288L816.491 493.804L983.665 763.833L984.521 763.317L985.378 762.801L818.204 492.772L817.347 493.288Z" fill="#EAEFFF" fill-opacity="0.81"/>
<path d="M817.347 493.288L816.539 493.875L1006.3 748.887L1007.11 748.3L1007.92 747.713L818.156 492.701L817.347 493.288Z" fill="#EAEFFF" fill-opacity="0.81"/>
<path d="M817.347 493.288L816.97 493.615L1027.87 731.669L1028.25 731.342L1028.62 731.016L817.725 492.961L817.347 493.288Z" fill="#EAEFFF" fill-opacity="0.81"/>
<path d="M817.347 493.288L817.067 493.699L1081.17 670.588L1081.45 670.177L1081.73 669.766L817.628 492.877L817.347 493.288Z" fill="#EAEFFF" fill-opacity="0.81"/>
<path d="M817.347 493.288L817.104 493.722L1095.09 647.314L1095.33 646.88L1095.58 646.446L817.591 492.854L817.347 493.288Z" fill="#EAEFFF" fill-opacity="0.81"/>
<path d="M817.347 493.288L816.939 494.195L1106.69 623.311L1107.1 622.405L1107.51 621.498L817.756 492.382L817.347 493.288Z" fill="#EAEFFF" fill-opacity="0.81"/>
<path d="M817.347 493.288L817.02 494.227L1116.33 597.895L1116.66 596.956L1116.99 596.018L817.675 492.35L817.347 493.288Z" fill="#EAEFFF" fill-opacity="0.81"/>
<path d="M817.347 493.288L816.982 494.734L1123.58 572.163L1123.94 570.718L1124.31 569.272L817.713 491.843L817.347 493.288Z" fill="#EAEFFF" fill-opacity="0.81"/>
<path d="M817.347 493.288L817.111 494.76L1128.66 545.361L1128.89 543.889L1129.13 542.416L817.584 491.816L817.347 493.288Z" fill="#EAEFFF" fill-opacity="0.81"/>
<path d="M817.347 493.288L817.277 494.28L1131.4 517.667L1131.47 516.675L1131.54 515.683L817.417 492.296L817.347 493.288Z" fill="#EAEFFF" fill-opacity="0.81"/>
<path d="M817.347 493.288L817.384 495.277L1131.69 491.266L1131.66 489.277L1131.62 487.288L817.31 491.299L817.347 493.288Z" fill="#EAEFFF" fill-opacity="0.81"/>
<path d="M817.347 493.288L817.561 495.267L1129.66 463.896L1129.45 461.917L1129.24 459.938L817.133 491.309L817.347 493.288Z" fill="#EAEFFF" fill-opacity="0.81"/>
<path d="M817.347 493.288L817.737 495.242L1125.26 436.746L1124.87 434.793L1124.48 432.839L816.957 491.335L817.347 493.288Z" fill="#EAEFFF" fill-opacity="0.81"/>
<path d="M817.347 493.288L818.052 495.679L1118.65 410.511L1117.95 408.12L1117.25 405.729L816.643 490.897L817.347 493.288Z" fill="#EAEFFF" fill-opacity="0.81"/>
<path d="M817.347 493.288L818.446 496.073L1109.84 384.871L1108.74 382.086L1107.65 379.301L816.249 490.503L817.347 493.288Z" fill="#EAEFFF" fill-opacity="0.81"/>
<path d="M817.347 493.288L820.484 499.538L1100.45 363.155L1097.32 356.905L1094.18 350.655L814.211 487.038L817.347 493.288Z" fill="#EAEFFF" fill-opacity="0.81"/>
<path d="M817.347 493.288L821.032 499.24L1087.44 338.71L1083.76 332.758L1080.07 326.806L813.663 487.336L817.347 493.288Z" fill="#EAEFFF" fill-opacity="0.81"/>
<path d="M817.351 493.29L819.152 495.693L1069.98 312.242L1068.18 309.839L1066.38 307.436L815.549 490.887L817.351 493.29Z" fill="#EAEFFF" fill-opacity="0.81"/>
<path d="M817.351 493.291L819.36 495.527L1052.7 290.542L1050.69 288.306L1048.68 286.07L815.341 491.055L817.351 493.291Z" fill="#EAEFFF" fill-opacity="0.81"/>
<path d="M817.351 493.289L819.552 495.341L1033.62 270.396L1031.42 268.344L1029.22 266.292L815.15 491.238L817.351 493.289Z" fill="#EAEFFF" fill-opacity="0.81"/>
<path d="M817.349 493.288L820.912 496.066L1014.08 252.859L1010.52 250.081L1006.96 247.304L813.786 490.511L817.349 493.288Z" fill="#EAEFFF" fill-opacity="0.81"/>
<path d="M817.351 493.29L821.146 495.746L991.947 236.135L988.151 233.679L984.355 231.223L813.555 490.834L817.351 493.29Z" fill="#EAEFFF" fill-opacity="0.81"/>
<path d="M817.348 493.288L821.346 495.405L968.482 221.364L964.484 219.247L960.486 217.131L813.35 491.171L817.348 493.288Z" fill="#EAEFFF" fill-opacity="0.81"/>
<path d="M817.35 493.289L821.519 495.051L943.86 208.668L939.691 206.906L935.523 205.145L813.182 491.528L817.35 493.289Z" fill="#EAEFFF" fill-opacity="0.81"/>
<path d="M817.351 493.29L820.7 494.374L917.329 197.832L913.98 196.747L910.63 195.662L814.001 492.205L817.351 493.29Z" fill="#EAEFFF" fill-opacity="0.81"/>
<path d="M817.353 493.29L820.784 494.082L890.96 189.631L887.529 188.839L884.098 188.047L813.922 492.499L817.353 493.29Z" fill="#EAEFFF" fill-opacity="0.81"/>
<path d="M817.351 493.292L822.331 493.997L865.515 183.951L860.535 183.246L855.555 182.54L812.371 492.586L817.351 493.292Z" fill="#EAEFFF" fill-opacity="0.81"/>
<path d="M817.351 493.289L822.372 493.565L838.24 180.293L833.219 180.017L828.199 179.74L812.331 493.013L817.351 493.289Z" fill="#EAEFFF" fill-opacity="0.81"/>
<path d="M817.35 493.288L822.373 493.134L810.802 179.019L805.779 179.173L800.755 179.326L812.326 493.441L817.35 493.288Z" fill="#EAEFFF" fill-opacity="0.81"/>
<path d="M817.35 493.29L821.84 492.767L782.918 180.191L778.428 180.714L773.938 181.238L812.86 493.813L817.35 493.29Z" fill="#EAEFFF" fill-opacity="0.81"/>
<path d="M817.35 493.289L821.776 492.386L755.803 183.74L751.377 184.643L746.951 185.546L812.924 494.192L817.35 493.289Z" fill="#EAEFFF" fill-opacity="0.81"/>
<path d="M817.35 493.289L818.793 492.864L726.27 190.485L724.827 190.91L723.384 191.335L815.907 493.715L817.35 493.289Z" fill="#EAEFFF" fill-opacity="0.81"/>
<path d="M817.351 493.291L817.818 493.109L699.448 199.309L698.982 199.491L698.515 199.673L816.884 493.473L817.351 493.291Z" fill="#EAEFFF" fill-opacity="0.81"/>
</g>
<mask id="mask2_81_29863" style="mask-type:alpha" maskUnits="userSpaceOnUse" x="409" y="80" width="822" height="822">
<path fill-rule="evenodd" clip-rule="evenodd" d="M832.283 901.002C605.652 902.079 416.639 719.376 410.11 492.924C403.582 266.471 582.011 82.022 808.643 80.9452C1035.27 79.8684 1224.29 262.572 1230.82 489.024C1237.34 715.477 1058.91 899.926 832.283 901.002ZM831.032 801.708C1002.79 800.892 1138.01 661.106 1133.06 489.489C1128.11 317.871 984.87 179.409 813.116 180.225C641.363 181.041 506.14 320.826 511.087 492.444C516.035 664.062 659.279 802.524 831.032 801.708Z" fill="#D9D9D9"/>
</mask>
<g mask="url(#mask2_81_29863)">
<path d="M820.985 490.434L816.514 490.847L863.239 892.202L867.71 891.789L872.182 891.376L825.457 490.02L820.985 490.434Z" fill="#EAEFFF" fill-opacity="0.81"/>
<path d="M820.983 490.431L816.574 491.233L898.063 887.824L902.472 887.021L906.881 886.219L825.392 489.628L820.983 490.431Z" fill="#EAEFFF" fill-opacity="0.81"/>
<path d="M820.984 490.433L817.73 491.645L966.609 869.73L969.863 868.518L973.117 867.305L824.238 489.22L820.984 490.433Z" fill="#EAEFFF" fill-opacity="0.81"/>
<path d="M820.982 490.431L817.853 491.926L998.855 856.408L1001.98 854.914L1005.11 853.42L824.111 488.937L820.982 490.431Z" fill="#EAEFFF" fill-opacity="0.81"/>
<path d="M820.979 490.436L817.999 492.2L1029.75 840.292L1032.73 838.527L1035.71 836.763L823.96 488.672L820.979 490.436Z" fill="#EAEFFF" fill-opacity="0.81"/>
<path d="M820.98 490.432L814.56 495.051L1055.45 824.111L1061.87 819.492L1068.29 814.873L827.4 485.813L820.98 490.432Z" fill="#EAEFFF" fill-opacity="0.81"/>
<path d="M820.983 490.432L815.004 495.602L1083.18 803.129L1089.16 797.959L1095.14 792.789L826.962 485.261L820.983 490.432Z" fill="#EAEFFF" fill-opacity="0.81"/>
<path d="M820.98 490.431L815.488 496.113L1108.93 779.755L1114.42 774.072L1119.91 768.39L826.473 484.748L820.98 490.431Z" fill="#EAEFFF" fill-opacity="0.81"/>
<path d="M820.983 490.431L816.018 496.582L1132.49 754.185L1137.45 748.034L1142.42 741.883L825.947 484.28L820.983 490.431Z" fill="#EAEFFF" fill-opacity="0.81"/>
<path d="M820.984 490.437L813.148 504.761L1168.28 704.627L1176.12 690.303L1183.95 675.979L828.82 476.113L820.984 490.437Z" fill="#EAEFFF" fill-opacity="0.81"/>
<path d="M820.981 490.432L815.787 505.958L1198.8 642.009L1203.99 626.483L1209.19 610.957L826.176 474.906L820.981 490.432Z" fill="#EAEFFF" fill-opacity="0.81"/>
<path d="M820.983 490.433L818.587 506.689L1217.84 574.793L1220.24 558.537L1222.63 542.281L823.379 474.177L820.983 490.433Z" fill="#EAEFFF" fill-opacity="0.81"/>
<path d="M820.985 490.436L821.46 506.929L1224.83 505.013L1224.35 488.52L1223.88 472.026L820.509 473.943L820.985 490.436Z" fill="#EAEFFF" fill-opacity="0.81"/>
<path d="M820.459 489.45L821.642 495.357L1217.26 425.438L1216.08 419.531L1214.89 413.625L819.276 483.543L820.459 489.45Z" fill="#EAEFFF" fill-opacity="0.81"/>
<path d="M820.456 489.453L822.147 495.247L1209.33 390.995L1207.64 385.202L1205.95 379.408L818.765 483.66L820.456 489.453Z" fill="#EAEFFF" fill-opacity="0.81"/>
<path d="M820.46 489.453L822.646 495.09L1198.44 357.306L1196.26 351.67L1194.07 346.033L818.273 483.817L820.46 489.453Z" fill="#EAEFFF" fill-opacity="0.81"/>
<path d="M820.461 489.453L823.126 494.89L1184.69 324.617L1182.02 319.181L1179.36 313.744L817.796 484.017L820.461 489.453Z" fill="#EAEFFF" fill-opacity="0.81"/>
<path d="M828.659 489.857L834.801 498.517L1162.13 270.725L1155.99 262.065L1149.84 253.405L822.516 481.197L828.659 489.857Z" fill="#EAEFFF" fill-opacity="0.81"/>
<path d="M820.685 483.024L824.489 487.086L1115.95 215.406L1112.15 211.344L1108.34 207.283L816.88 478.962L820.685 483.024Z" fill="#EAEFFF" fill-opacity="0.81"/>
<path d="M820.686 483.026L824.823 486.75L1090.85 190.157L1086.72 186.433L1082.58 182.71L816.55 479.303L820.686 483.026Z" fill="#EAEFFF" fill-opacity="0.81"/>
<path d="M820.98 490.436L821.816 491.006L1043.67 159.747L1042.83 159.177L1041.99 158.608L820.145 489.867L820.98 490.436Z" fill="#EAEFFF" fill-opacity="0.81"/>
<path d="M820.98 490.434L824.501 492.417L1016.12 142.398L1012.6 140.415L1009.08 138.432L817.458 488.451L820.98 490.434Z" fill="#EAEFFF" fill-opacity="0.81"/>
<path d="M820.98 490.435L824.654 492.108L984.595 126.006L980.922 124.333L977.248 122.659L817.306 488.762L820.98 490.435Z" fill="#EAEFFF" fill-opacity="0.81"/>
<path d="M820.984 490.436L827.156 492.63L954.198 113.223L948.027 111.029L941.855 108.836L814.812 488.242L820.984 490.436Z" fill="#EAEFFF" fill-opacity="0.81"/>
<path d="M820.983 490.434L827.31 492.087L920.481 102.272L914.154 100.619L907.827 98.967L814.656 488.782L820.983 490.434Z" fill="#EAEFFF" fill-opacity="0.81"/>
<path d="M820.984 490.435L824.943 491.111L883.547 93.8442L879.588 93.1683L875.629 92.4925L817.025 489.759L820.984 490.435Z" fill="#EAEFFF" fill-opacity="0.81"/>
<path d="M820.984 490.434L821.983 490.516L845.558 88.8266L844.559 88.7442L843.56 88.6618L819.985 490.351L820.984 490.434Z" fill="#EAEFFF" fill-opacity="0.81"/>
<path d="M820.981 490.435L821.981 490.43L810.362 87.3781L809.362 87.3829L808.362 87.3876L819.981 490.439L820.981 490.435Z" fill="#EAEFFF" fill-opacity="0.81"/>
<path d="M820.981 490.435L821.974 490.343L775.239 88.9873L774.245 89.0792L773.252 89.1711L819.987 490.526L820.981 490.435Z" fill="#EAEFFF" fill-opacity="0.81"/>
<path d="M820.981 490.435L821.471 490.345L739.981 93.744L739.491 93.8332L739.002 93.9223L820.491 490.524L820.981 490.435Z" fill="#EAEFFF" fill-opacity="0.81"/>
<path d="M820.981 490.435L821.428 490.221L640.425 125.739L639.978 125.952L639.531 126.165L820.534 490.648L820.981 490.435Z" fill="#EAEFFF" fill-opacity="0.81"/>
<path d="M820.981 490.435L821.407 490.183L609.659 142.08L609.233 142.332L608.807 142.584L820.555 490.687L820.981 490.435Z" fill="#EAEFFF" fill-opacity="0.81"/>
<path d="M820.981 490.435L821.783 489.857L580.898 160.797L580.096 161.374L579.293 161.951L820.178 491.012L820.981 490.435Z" fill="#EAEFFF" fill-opacity="0.81"/>
<path d="M820.981 490.435L821.728 489.788L553.541 182.261L552.793 182.907L552.046 183.553L820.233 491.081L820.981 490.435Z" fill="#EAEFFF" fill-opacity="0.81"/>
<path d="M820.981 490.435L822.011 489.369L528.562 205.717L527.533 206.783L526.503 207.848L819.951 491.5L820.981 490.435Z" fill="#EAEFFF" fill-opacity="0.81"/>
<path d="M820.981 490.435L821.912 489.281L505.44 231.667L504.509 232.821L503.578 233.974L820.05 491.588L820.981 490.435Z" fill="#EAEFFF" fill-opacity="0.81"/>
<path d="M820.981 490.435L821.531 489.613L484.446 259.998L483.896 260.82L483.346 261.642L820.431 491.256L820.981 490.435Z" fill="#EAEFFF" fill-opacity="0.81"/>
<path d="M820.981 490.435L821.931 488.698L466.785 288.832L465.835 290.569L464.885 292.305L820.031 492.171L820.981 490.435Z" fill="#EAEFFF" fill-opacity="0.81"/>
<path d="M820.981 490.435L821.773 488.619L451.282 320.018L450.489 321.834L449.697 323.65L820.188 492.251L820.981 490.435Z" fill="#EAEFFF" fill-opacity="0.81"/>
<path d="M820.981 490.435L821.61 488.553L438.587 352.501L437.957 354.383L437.327 356.265L820.351 492.317L820.981 490.435Z" fill="#EAEFFF" fill-opacity="0.81"/>
<path d="M820.981 490.435L821.558 488.018L428.924 385.546L428.347 387.963L427.769 390.38L820.404 492.852L820.981 490.435Z" fill="#EAEFFF" fill-opacity="0.81"/>
<path d="M820.981 490.435L821.416 487.479L422.151 419.375L421.715 422.331L421.28 425.286L820.545 493.39L820.981 490.435Z" fill="#EAEFFF" fill-opacity="0.81"/>
<path d="M820.981 490.435L821.39 483.461L418.538 450.238L418.129 457.211L417.72 464.184L820.572 497.408L820.981 490.435Z" fill="#EAEFFF" fill-opacity="0.81"/>
<path d="M820.981 490.435L820.779 483.437L417.409 485.354L417.611 492.351L417.813 499.348L821.182 497.432L820.981 490.435Z" fill="#EAEFFF" fill-opacity="0.81"/>
<path d="M820.979 490.432L820.631 487.446L419.804 524.478L420.152 527.464L420.499 530.45L821.326 493.419L820.979 490.432Z" fill="#EAEFFF" fill-opacity="0.81"/>
<path d="M820.979 490.431L820.373 487.481L425.143 559.36L425.749 562.31L426.355 565.261L821.585 493.382L820.979 490.431Z" fill="#EAEFFF" fill-opacity="0.81"/>
<path d="M820.981 490.432L820.121 487.539L433.501 593.702L434.361 596.595L435.221 599.488L821.84 493.325L820.981 490.432Z" fill="#EAEFFF" fill-opacity="0.81"/>
<path d="M820.979 490.434L819.319 486.214L444.243 625.867L445.903 630.087L447.564 634.307L822.64 494.654L820.979 490.434Z" fill="#EAEFFF" fill-opacity="0.81"/>
<path d="M820.981 490.432L818.962 486.364L458.292 658.439L460.31 662.507L462.329 666.574L822.999 494.5L820.981 490.432Z" fill="#EAEFFF" fill-opacity="0.81"/>
<path d="M820.98 490.434L818.618 486.549L475.092 689.735L477.453 693.62L479.815 697.505L823.341 494.319L820.98 490.434Z" fill="#EAEFFF" fill-opacity="0.81"/>
<path d="M820.979 490.431L818.293 486.758L494.537 719.512L497.223 723.185L499.91 726.858L823.666 494.103L820.979 490.431Z" fill="#EAEFFF" fill-opacity="0.81"/>
<path d="M820.981 490.431L818.654 487.762L517.119 748.301L519.446 750.971L521.772 753.641L823.307 493.101L820.981 490.431Z" fill="#EAEFFF" fill-opacity="0.81"/>
<path d="M820.98 490.431L818.434 487.969L541.418 774.32L543.963 776.783L546.509 779.246L823.525 492.894L820.98 490.431Z" fill="#EAEFFF" fill-opacity="0.81"/>
<path d="M820.982 490.431L815.491 485.958L565.105 795.949L570.596 800.422L576.087 804.896L826.473 494.904L820.982 490.431Z" fill="#EAEFFF" fill-opacity="0.81"/>
<path d="M820.979 490.432L815.13 486.445L593.281 817.704L599.13 821.691L604.979 825.678L826.828 494.419L820.979 490.432Z" fill="#EAEFFF" fill-opacity="0.81"/>
<path d="M820.981 490.434L814.819 486.963L623.196 836.971L629.359 840.442L635.521 843.912L827.144 493.904L820.981 490.434Z" fill="#EAEFFF" fill-opacity="0.81"/>
<path d="M820.981 490.432L816.848 488.55L656.906 854.652L661.039 856.535L665.172 858.417L825.114 492.314L820.981 490.432Z" fill="#EAEFFF" fill-opacity="0.81"/>
<path d="M820.98 490.433L816.707 488.914L689.664 868.309L693.937 869.828L698.21 871.347L825.253 491.951L820.98 490.433Z" fill="#EAEFFF" fill-opacity="0.81"/>
<path d="M820.979 490.432L819.519 490.05L726.337 879.866L727.797 880.247L729.257 880.628L822.439 490.813L820.979 490.432Z" fill="#EAEFFF" fill-opacity="0.81"/>
<path d="M820.98 490.433L820.485 490.348L761.881 887.605L762.376 887.689L762.871 887.774L821.475 490.517L820.98 490.433Z" fill="#EAEFFF" fill-opacity="0.81"/>
</g>
<mask id="mask3_81_29863" style="mask-type:alpha" maskUnits="userSpaceOnUse" x="624" y="301" width="386" height="385">
<path fill-rule="evenodd" clip-rule="evenodd" d="M1008.64 483.473C1016.77 589.318 937.59 679.642 831.784 685.218C725.978 690.795 633.616 609.511 625.487 503.667C617.358 397.823 696.541 307.498 802.347 301.922C908.153 296.346 1000.51 377.629 1008.64 483.473ZM962.196 485.166C956.035 404.951 886.038 343.35 805.853 347.576C725.668 351.802 665.659 420.255 671.819 500.469C677.98 580.684 747.977 642.285 828.162 638.059C908.347 633.833 968.356 565.38 962.196 485.166Z" fill="#D9D9D9"/>
</mask>
<g mask="url(#mask3_81_29863)">
<path d="M816.792 493.331L816.868 494.328L1005.19 484.403L1005.11 483.406L1005.03 482.409L816.715 492.334L816.792 493.331Z" fill="#EAEFFF" fill-opacity="0.81"/>
<path d="M816.793 493.331L816.782 494.329L1006.38 501.008L1006.39 500.01L1006.4 499.012L816.804 492.333L816.793 493.331Z" fill="#EAEFFF" fill-opacity="0.81"/>
<path d="M816.793 493.332L817.528 497.781L1003.87 471.477L1003.14 467.028L1002.4 462.579L816.057 488.883L816.793 493.332Z" fill="#EAEFFF" fill-opacity="0.81"/>
<path d="M816.793 493.33L817.914 497.707L1000.86 455.219L999.736 450.842L998.615 446.465L815.672 488.953L816.793 493.33Z" fill="#EAEFFF" fill-opacity="0.81"/>
<path d="M816.794 493.332L818.243 496.547L990.254 422.789L988.805 419.573L987.356 416.358L815.345 490.117L816.794 493.332Z" fill="#EAEFFF" fill-opacity="0.81"/>
<path d="M816.794 493.33L818.516 496.414L983.078 407.802L981.356 404.719L979.634 401.635L815.072 490.246L816.794 493.33Z" fill="#EAEFFF" fill-opacity="0.81"/>
<path d="M816.794 493.331L818.209 495.423L974.063 392.634L972.647 390.542L971.231 388.45L815.378 491.239L816.794 493.331Z" fill="#EAEFFF" fill-opacity="0.81"/>
<path d="M816.794 493.332L817.749 494.511L963.711 378.325L962.757 377.146L961.802 375.967L815.84 492.153L816.794 493.332Z" fill="#EAEFFF" fill-opacity="0.81"/>
<path d="M816.794 493.33L817.846 494.424L952.809 365.731L951.757 364.637L950.705 363.543L815.742 492.236L816.794 493.33Z" fill="#EAEFFF" fill-opacity="0.81"/>
<path d="M816.794 493.33L817.935 494.331L940.864 354.105L939.723 353.104L938.582 352.104L815.653 492.33L816.794 493.33Z" fill="#EAEFFF" fill-opacity="0.81"/>
<path d="M816.792 493.329L818.014 494.229L927.977 343.534L926.755 342.635L925.533 341.735L815.57 492.429L816.792 493.329Z" fill="#EAEFFF" fill-opacity="0.81"/>
<path d="M816.792 493.329L822.665 496.268L904.295 328.159L898.422 325.22L892.549 322.28L810.92 490.389L816.792 493.329Z" fill="#EAEFFF" fill-opacity="0.81"/>
<path d="M816.794 493.332L823.065 495.223L873.879 314.804L867.608 312.913L861.337 311.022L810.523 491.44L816.794 493.332Z" fill="#EAEFFF" fill-opacity="0.81"/>
<path d="M816.793 493.33L823.272 494.117L841.727 306.87L835.248 306.084L828.769 305.298L810.314 492.544L816.793 493.33Z" fill="#EAEFFF" fill-opacity="0.81"/>
<path d="M816.792 493.33L823.283 492.988L808.815 304.601L802.324 304.943L795.833 305.285L810.301 493.673L816.792 493.33Z" fill="#EAEFFF" fill-opacity="0.81"/>
<path d="M816.35 493.587L818.293 493.147L772.247 309.14L770.304 309.579L768.361 310.019L814.407 494.026L816.35 493.587Z" fill="#EAEFFF" fill-opacity="0.81"/>
<path d="M816.351 493.586L818.244 492.978L756.407 313.293L754.514 313.9L752.621 314.508L814.458 494.193L816.351 493.586Z" fill="#EAEFFF" fill-opacity="0.81"/>
<path d="M816.352 493.587L818.181 492.817L741.027 318.825L739.198 319.596L737.37 320.366L814.523 494.358L816.352 493.587Z" fill="#EAEFFF" fill-opacity="0.81"/>
<path d="M816.353 493.586L818.104 492.657L726.218 325.678L724.467 326.606L722.716 327.534L814.602 494.514L816.353 493.586Z" fill="#EAEFFF" fill-opacity="0.81"/>
<path d="M816.266 489.751L817.05 489.149L699.384 338.801L698.6 339.403L697.816 340.006L815.481 490.354L816.266 489.751Z" fill="#EAEFFF" fill-opacity="0.81"/>
<path d="M813.335 493.553L817.131 489.665L680.124 356.557L676.328 360.445L672.533 364.333L809.54 497.44L813.335 493.553Z" fill="#EAEFFF" fill-opacity="0.81"/>
<path d="M813.333 493.552L816.766 489.341L668.951 368.392L665.517 372.603L662.084 376.814L809.9 497.763L813.333 493.552Z" fill="#EAEFFF" fill-opacity="0.81"/>
<path d="M816.792 493.333L817.303 492.486L654.743 392.56L654.233 393.406L653.722 394.253L816.282 494.179L816.792 493.333Z" fill="#EAEFFF" fill-opacity="0.81"/>
<path d="M816.791 493.33L818.526 489.773L648.2 404.174L646.465 407.732L644.73 411.29L815.056 496.888L816.791 493.33Z" fill="#EAEFFF" fill-opacity="0.81"/>
<path d="M816.793 493.331L818.206 489.629L641.415 419.008L640.002 422.71L638.589 426.412L815.379 497.033L816.793 493.331Z" fill="#EAEFFF" fill-opacity="0.81"/>
<path d="M816.792 493.33L818.548 487.124L636.635 432.018L634.879 438.224L633.123 444.43L815.036 499.536L816.792 493.33Z" fill="#EAEFFF" fill-opacity="0.81"/>
<path d="M816.792 493.33L817.994 486.982L632.347 447.813L631.145 454.161L629.943 460.509L815.59 499.678L816.792 493.33Z" fill="#EAEFFF" fill-opacity="0.81"/>
<path d="M816.792 493.331L817.186 489.367L629.213 466.427L628.819 470.392L628.426 474.356L816.399 497.295L816.792 493.331Z" fill="#EAEFFF" fill-opacity="0.81"/>
<path d="M816.793 493.331L816.804 492.333L627.939 485.804L627.928 486.802L627.917 487.8L816.782 494.329L816.793 493.331Z" fill="#EAEFFF" fill-opacity="0.81"/>
<path d="M816.792 493.329L816.715 492.332L628.397 502.257L628.473 503.254L628.55 504.251L816.868 494.326L816.792 493.329Z" fill="#EAEFFF" fill-opacity="0.81"/>
<path d="M816.792 493.329L816.628 492.34L630.285 518.649L630.449 519.638L630.612 520.626L816.955 494.318L816.792 493.329Z" fill="#EAEFFF" fill-opacity="0.81"/>
<path d="M816.792 493.329L816.667 492.843L633.719 535.331L633.844 535.818L633.969 536.304L816.916 493.815L816.792 493.329Z" fill="#EAEFFF" fill-opacity="0.81"/>
<path d="M816.792 493.329L816.546 492.889L651.984 581.5L652.23 581.94L652.476 582.381L817.038 493.77L816.792 493.329Z" fill="#EAEFFF" fill-opacity="0.81"/>
<path d="M816.792 493.329L816.509 492.911L660.651 595.7L660.934 596.118L661.217 596.536L817.075 493.747L816.792 493.329Z" fill="#EAEFFF" fill-opacity="0.81"/>
<path d="M816.792 493.329L816.156 492.543L670.193 608.729L670.829 609.515L671.466 610.301L817.428 494.115L816.792 493.329Z" fill="#EAEFFF" fill-opacity="0.81"/>
<path d="M816.792 493.329L816.091 492.6L681.128 621.298L681.83 622.028L682.531 622.757L817.493 494.058L816.792 493.329Z" fill="#EAEFFF" fill-opacity="0.81"/>
<path d="M816.792 493.329L815.65 492.328L692.717 632.559L693.858 633.56L694.999 634.561L817.933 494.33L816.792 493.329Z" fill="#EAEFFF" fill-opacity="0.81"/>
<path d="M816.792 493.329L815.57 492.429L705.602 643.124L706.824 644.024L708.046 644.923L818.014 494.229L816.792 493.329Z" fill="#EAEFFF" fill-opacity="0.81"/>
<path d="M816.792 493.329L815.929 492.801L719.764 652.811L720.627 653.339L721.489 653.867L817.654 493.857L816.792 493.329Z" fill="#EAEFFF" fill-opacity="0.81"/>
<path d="M816.792 493.329L814.985 492.425L733.356 660.539L735.163 661.443L736.969 662.348L818.599 494.234L816.792 493.329Z" fill="#EAEFFF" fill-opacity="0.81"/>
<path d="M816.792 493.329L814.916 492.583L748.442 667.516L750.317 668.262L752.193 669.008L818.667 494.075L816.792 493.329Z" fill="#EAEFFF" fill-opacity="0.81"/>
<path d="M816.792 493.329L814.862 492.747L764.049 673.171L765.979 673.753L767.908 674.334L818.721 493.911L816.792 493.329Z" fill="#EAEFFF" fill-opacity="0.81"/>
<path d="M816.792 493.329L814.331 492.812L779.563 677.35L782.024 677.867L784.485 678.383L819.253 493.846L816.792 493.329Z" fill="#EAEFFF" fill-opacity="0.81"/>
<path d="M816.792 493.329L813.801 492.966L795.348 680.217L798.338 680.58L801.328 680.943L819.782 493.692L816.792 493.329Z" fill="#EAEFFF" fill-opacity="0.81"/>
<path d="M816.792 493.329L809.781 493.089L807.779 681.626L814.79 681.867L821.8 682.107L823.802 493.569L816.792 493.329Z" fill="#EAEFFF" fill-opacity="0.81"/>
<path d="M816.792 493.329L809.802 493.698L824.27 682.085L831.26 681.716L838.25 681.348L823.782 492.961L816.792 493.329Z" fill="#EAEFFF" fill-opacity="0.81"/>
<path d="M816.795 493.329L813.831 493.746L844.654 680.554L847.618 680.136L850.583 679.719L819.76 492.911L816.795 493.329Z" fill="#EAEFFF" fill-opacity="0.81"/>
<path d="M816.792 493.33L813.881 494.004L860.832 677.808L863.743 677.134L866.653 676.46L819.703 492.656L816.792 493.33Z" fill="#EAEFFF" fill-opacity="0.81"/>
<path d="M816.795 493.33L813.96 494.256L876.673 673.656L879.508 672.73L882.342 671.805L819.629 492.405L816.795 493.33Z" fill="#EAEFFF" fill-opacity="0.81"/>
<path d="M816.793 493.329L812.687 495.084L890.692 668.718L894.798 666.963L898.904 665.209L820.899 491.575L816.793 493.329Z" fill="#EAEFFF" fill-opacity="0.81"/>
<path d="M816.793 493.328L812.865 495.436L905.565 661.98L909.493 659.872L913.422 657.764L820.722 491.22L816.793 493.328Z" fill="#EAEFFF" fill-opacity="0.81"/>
<path d="M816.792 493.329L813.071 495.774L919.76 653.963L923.482 651.518L927.203 649.072L820.514 490.883L816.792 493.329Z" fill="#EAEFFF" fill-opacity="0.81"/>
<path d="M816.793 493.331L813.307 496.095L933.175 644.719L936.661 641.955L940.147 639.191L820.279 490.566L816.793 493.331Z" fill="#EAEFFF" fill-opacity="0.81"/>
<path d="M816.793 493.33L814.285 495.712L946.415 633.647L948.922 631.265L951.43 628.883L819.3 490.948L816.793 493.33Z" fill="#EAEFFF" fill-opacity="0.81"/>
<path d="M816.792 493.329L814.507 495.925L957.897 622.12L960.182 619.524L962.466 616.929L819.076 490.734L816.792 493.329Z" fill="#EAEFFF" fill-opacity="0.81"/>
<path d="M816.793 493.328L812.705 498.907L966.267 612.399L970.355 606.82L974.443 601.241L820.881 487.748L816.793 493.328Z" fill="#EAEFFF" fill-opacity="0.81"/>
<path d="M816.792 493.33L813.216 499.255L975.776 599.181L979.352 593.256L982.928 587.331L820.368 487.405L816.792 493.33Z" fill="#EAEFFF" fill-opacity="0.81"/>
<path d="M816.793 493.33L813.757 499.556L984.078 585.154L987.115 578.928L990.151 572.702L819.829 487.104L816.793 493.33Z" fill="#EAEFFF" fill-opacity="0.81"/>
<path d="M816.793 493.329L815.203 497.494L991.994 568.115L993.584 563.95L995.174 559.785L818.383 489.164L816.793 493.329Z" fill="#EAEFFF" fill-opacity="0.81"/>
<path d="M816.793 493.329L815.578 497.626L997.485 552.732L998.701 548.435L999.917 544.139L818.009 489.033L816.793 493.329Z" fill="#EAEFFF" fill-opacity="0.81"/>
<path d="M816.793 493.329L816.516 494.794L1002.16 533.968L1002.44 532.503L1002.72 531.038L817.071 491.864L816.793 493.329Z" fill="#EAEFFF" fill-opacity="0.81"/>
<path d="M816.794 493.33L816.745 493.825L1004.71 516.765L1004.76 516.27L1004.81 515.774L816.843 492.834L816.794 493.33Z" fill="#EAEFFF" fill-opacity="0.81"/>
</g>
<mask id="mask4_81_29863" style="mask-type:alpha" maskUnits="userSpaceOnUse" x="669" y="345" width="296" height="296">
<path fill-rule="evenodd" clip-rule="evenodd" d="M891.988 622.189C821.668 661.825 731.112 636.229 689.727 565.019C648.341 493.809 671.797 403.951 742.118 364.315C812.438 324.679 902.993 350.275 944.379 421.485C985.764 492.695 962.308 582.553 891.988 622.189ZM874.343 590.685C927.635 560.647 945.411 492.548 914.047 438.581C882.683 384.615 814.055 365.217 760.763 395.255C707.47 425.293 689.694 493.392 721.058 547.359C752.422 601.326 821.05 620.724 874.343 590.685Z" fill="#D9D9D9"/>
</mask>
<g mask="url(#mask4_81_29863)">
<path d="M817.125 492.988L816.254 493.479L889.914 620.221L890.786 619.73L891.657 619.239L817.997 492.497L817.125 492.988Z" fill="#EAEFFF" fill-opacity="0.81"/>
<path d="M817.125 492.988L816.212 493.399L878.841 626.36L879.754 625.948L880.666 625.537L818.037 492.576L817.125 492.988Z" fill="#EAEFFF" fill-opacity="0.81"/>
<path d="M817.126 492.989L813.413 495.523L897.7 615.637L901.413 613.104L905.126 610.57L820.839 490.455L817.126 492.989Z" fill="#EAEFFF" fill-opacity="0.81"/>
<path d="M817.125 492.99L813.647 495.83L907.921 608.396L911.399 605.556L914.877 602.716L820.602 490.15L817.125 492.99Z" fill="#EAEFFF" fill-opacity="0.81"/>
<path d="M817.124 492.991L814.844 495.626L926.868 590.596L929.149 587.961L931.43 585.326L819.405 490.356L817.124 492.991Z" fill="#EAEFFF" fill-opacity="0.81"/>
<path d="M817.123 492.994L815.081 495.815L934.736 580.87L936.778 578.049L938.82 575.228L819.165 490.173L817.123 492.994Z" fill="#EAEFFF" fill-opacity="0.81"/>
<path d="M817.124 492.99L815.337 495.976L941.707 570.464L943.495 567.479L945.282 564.493L818.912 490.004L817.124 492.99Z" fill="#EAEFFF" fill-opacity="0.81"/>
<path d="M817.124 492.99L813.652 500.143L945.781 563.5L949.252 556.348L952.724 549.195L820.595 485.838L817.124 492.99Z" fill="#EAEFFF" fill-opacity="0.81"/>
<path d="M817.123 492.99L814.294 500.418L951.171 552.165L954 544.737L956.83 537.31L819.953 485.563L817.123 492.99Z" fill="#EAEFFF" fill-opacity="0.81"/>
<path d="M817.124 492.989L814.96 500.636L955.545 540.372L957.708 532.726L959.872 525.079L819.287 485.342L817.124 492.989Z" fill="#EAEFFF" fill-opacity="0.81"/>
<path d="M817.126 492.988L815.647 500.797L958.873 528.222L960.351 520.413L961.83 512.604L818.604 485.179L817.126 492.988Z" fill="#EAEFFF" fill-opacity="0.81"/>
<path d="M817.124 492.988L817.046 501.438L962.266 503.716L962.344 495.266L962.423 486.815L817.202 484.538L817.124 492.988Z" fill="#EAEFFF" fill-opacity="0.81"/>
<path d="M817.125 492.991L818.551 501.333L961.355 478.391L959.929 470.049L958.503 461.707L815.699 484.648L817.125 492.991Z" fill="#EAEFFF" fill-opacity="0.81"/>
<path d="M817.125 492.989L820.018 500.961L956.066 453.497L953.173 445.525L950.281 437.553L814.233 485.017L817.125 492.989Z" fill="#EAEFFF" fill-opacity="0.81"/>
<path d="M817.124 492.992L821.395 500.341L946.555 429.795L942.284 422.446L938.013 415.097L812.853 485.643L817.124 492.992Z" fill="#EAEFFF" fill-opacity="0.81"/>
<path d="M816.792 492.767L818.405 494.685L929.335 403.759L927.722 401.842L926.109 399.924L815.18 490.849L816.792 492.767Z" fill="#EAEFFF" fill-opacity="0.81"/>
<path d="M816.792 492.767L818.569 494.537L920.909 394.105L919.132 392.336L917.354 390.566L815.014 490.997L816.792 492.767Z" fill="#EAEFFF" fill-opacity="0.81"/>
<path d="M816.791 492.767L817.562 493.41L910.532 384.241L909.76 383.598L908.989 382.955L816.02 492.124L816.791 492.767Z" fill="#EAEFFF" fill-opacity="0.81"/>
<path d="M816.793 492.768L817.618 493.342L900.512 376.262L899.687 375.689L898.862 375.115L815.967 492.194L816.793 492.768Z" fill="#EAEFFF" fill-opacity="0.81"/>
<path d="M819.413 491.474L821.681 492.555L883.929 363.035L881.661 361.955L879.393 360.874L817.146 490.393L819.413 491.474Z" fill="#EAEFFF" fill-opacity="0.81"/>
<path d="M815.744 490.675L818.146 491.433L861.609 354.111L859.207 353.353L856.805 352.596L813.341 489.918L815.744 490.675Z" fill="#EAEFFF" fill-opacity="0.81"/>
<path d="M815.745 490.676L818.203 491.225L849.424 350.354L846.966 349.805L844.508 349.256L813.287 490.127L815.745 490.676Z" fill="#EAEFFF" fill-opacity="0.81"/>
<path d="M817.125 492.989L818.127 493.074L829.578 348.788L828.576 348.704L827.573 348.62L816.122 492.905L817.125 492.989Z" fill="#EAEFFF" fill-opacity="0.81"/>
<path d="M817.125 492.989L819.639 492.985L818.426 347.947L815.912 347.951L813.398 347.955L814.611 492.993L817.125 492.989Z" fill="#EAEFFF" fill-opacity="0.81"/>
<path d="M817.122 492.992L819.625 492.774L805.761 348.09L803.258 348.308L800.755 348.527L814.619 493.21L817.122 492.992Z" fill="#EAEFFF" fill-opacity="0.81"/>
<path d="M817.124 492.989L819.598 492.56L793.186 349.33L790.713 349.76L788.239 350.19L814.651 493.419L817.124 492.989Z" fill="#EAEFFF" fill-opacity="0.81"/>
<path d="M817.127 492.988L819.552 492.35L780.794 351.668L778.369 352.306L775.943 352.944L814.701 493.626L817.127 492.988Z" fill="#EAEFFF" fill-opacity="0.81"/>
<path d="M817.125 492.989L819.485 492.147L768.677 355.077L766.317 355.919L763.957 356.761L814.765 493.83L817.125 492.989Z" fill="#EAEFFF" fill-opacity="0.81"/>
<path d="M817.124 492.99L818.035 492.575L755.561 360.165L754.65 360.581L753.739 360.996L816.213 493.406L817.124 492.99Z" fill="#EAEFFF" fill-opacity="0.81"/>
<path d="M817.125 492.989L817.996 492.498L744.336 365.755L743.465 366.246L742.594 366.737L816.254 493.48L817.125 492.989Z" fill="#EAEFFF" fill-opacity="0.81"/>
<path d="M817.125 492.989L817.95 492.426L733.66 372.313L732.835 372.877L732.01 373.44L816.3 493.552L817.125 492.989Z" fill="#EAEFFF" fill-opacity="0.81"/>
<path d="M817.125 492.989L817.512 492.674L723.235 380.105L722.849 380.421L722.462 380.736L816.739 493.305L817.125 492.989Z" fill="#EAEFFF" fill-opacity="0.81"/>
<path d="M817.125 492.989L817.417 492.586L697.763 407.531L697.471 407.934L697.179 408.337L816.834 493.392L817.125 492.989Z" fill="#EAEFFF" fill-opacity="0.81"/>
<path d="M817.125 492.989L817.381 492.563L691.008 418.071L690.753 418.497L690.497 418.924L816.87 493.416L817.125 492.989Z" fill="#EAEFFF" fill-opacity="0.81"/>
<path d="M817.125 492.989L817.559 492.095L685.431 428.738L684.997 429.632L684.563 430.526L816.691 493.883L817.125 492.989Z" fill="#EAEFFF" fill-opacity="0.81"/>
<path d="M817.125 492.989L817.479 492.061L680.599 440.316L680.245 441.244L679.891 442.173L816.772 493.918L817.125 492.989Z" fill="#EAEFFF" fill-opacity="0.81"/>
<path d="M817.125 492.989L817.531 491.555L676.941 451.817L676.535 453.251L676.13 454.685L816.72 494.423L817.125 492.989Z" fill="#EAEFFF" fill-opacity="0.81"/>
<path d="M817.125 492.989L817.403 491.525L674.175 464.097L673.897 465.561L673.62 467.025L816.848 494.453L817.125 492.989Z" fill="#EAEFFF" fill-opacity="0.81"/>
<path d="M817.125 492.989L817.223 492L672.448 477.09L672.35 478.079L672.253 479.068L817.028 493.978L817.125 492.989Z" fill="#EAEFFF" fill-opacity="0.81"/>
<path d="M817.125 492.989L817.144 491.001L671.92 488.725L671.902 490.714L671.883 492.702L817.107 494.978L817.125 492.989Z" fill="#EAEFFF" fill-opacity="0.81"/>
<path d="M817.125 492.989L816.966 491.006L672.402 501.379L672.561 503.362L672.72 505.345L817.284 494.973L817.125 492.989Z" fill="#EAEFFF" fill-opacity="0.81"/>
<path d="M817.125 492.989L816.79 491.026L673.983 513.97L674.319 515.933L674.654 517.896L817.461 494.952L817.125 492.989Z" fill="#EAEFFF" fill-opacity="0.81"/>
<path d="M817.125 492.989L816.488 490.581L676.527 525.918L677.164 528.326L677.802 530.735L817.763 495.398L817.125 492.989Z" fill="#EAEFFF" fill-opacity="0.81"/>
<path d="M817.125 492.989L816.104 490.176L680.053 537.641L681.074 540.455L682.095 543.269L818.146 495.803L817.125 492.989Z" fill="#EAEFFF" fill-opacity="0.81"/>
<path d="M817.125 492.989L814.164 486.655L683.059 545.886L686.02 552.22L688.981 558.553L820.086 499.323L817.125 492.989Z" fill="#EAEFFF" fill-opacity="0.81"/>
<path d="M817.125 492.989L813.608 486.937L688.448 557.483L691.966 563.535L695.483 569.587L820.643 499.041L817.125 492.989Z" fill="#EAEFFF" fill-opacity="0.81"/>
<path d="M817.126 492.992L815.392 490.539L697.126 571.862L698.86 574.314L700.594 576.767L818.86 495.444L817.126 492.992Z" fill="#EAEFFF" fill-opacity="0.81"/>
<path d="M817.126 492.989L815.18 490.697L704.711 582.181L706.658 584.473L708.604 586.765L819.073 495.281L817.126 492.989Z" fill="#EAEFFF" fill-opacity="0.81"/>
<path d="M817.124 492.989L814.981 490.876L713.149 591.82L715.292 593.933L717.436 596.047L819.267 495.103L817.124 492.989Z" fill="#EAEFFF" fill-opacity="0.81"/>
<path d="M817.126 492.989L813.642 490.111L721.221 599.752L724.706 602.63L728.19 605.508L820.61 495.867L817.126 492.989Z" fill="#EAEFFF" fill-opacity="0.81"/>
<path d="M817.126 492.99L813.399 490.426L731.095 607.927L734.822 610.491L738.548 613.055L820.852 495.554L817.126 492.99Z" fill="#EAEFFF" fill-opacity="0.81"/>
<path d="M817.126 492.99L813.188 490.759L741.624 615.226L745.562 617.457L749.5 619.688L821.064 495.221L817.126 492.99Z" fill="#EAEFFF" fill-opacity="0.81"/>
<path d="M817.124 492.99L813.006 491.108L752.731 621.594L756.85 623.475L760.969 625.356L821.243 494.871L817.124 492.99Z" fill="#EAEFFF" fill-opacity="0.81"/>
<path d="M817.124 492.989L813.805 491.808L765.273 627.317L768.592 628.498L771.911 629.679L820.443 494.17L817.124 492.989Z" fill="#EAEFFF" fill-opacity="0.81"/>
<path d="M817.125 492.988L813.716 492.097L777.298 631.601L780.707 632.492L784.115 633.383L820.534 493.879L817.125 492.988Z" fill="#EAEFFF" fill-opacity="0.81"/>
<path d="M817.126 492.989L810.182 491.8L786.157 634.239L793.101 635.428L800.045 636.617L824.07 494.179L817.126 492.989Z" fill="#EAEFFF" fill-opacity="0.81"/>
<path d="M817.124 492.99L810.106 492.399L798.655 636.685L805.673 637.276L812.691 637.866L824.142 493.581L817.124 492.99Z" fill="#EAEFFF" fill-opacity="0.81"/>
<path d="M817.125 492.987L810.086 492.998L811.297 638.033L818.336 638.022L825.376 638.011L824.165 492.977L817.125 492.987Z" fill="#EAEFFF" fill-opacity="0.81"/>
<path d="M817.126 492.991L812.621 493.384L826.485 638.067L830.991 637.674L835.496 637.282L821.631 492.599L817.126 492.991Z" fill="#EAEFFF" fill-opacity="0.81"/>
<path d="M817.125 492.989L812.673 493.763L839.083 636.989L843.535 636.215L847.987 635.441L821.577 492.215L817.125 492.989Z" fill="#EAEFFF" fill-opacity="0.81"/>
<path d="M817.127 492.989L815.672 493.372L854.427 634.057L855.882 633.674L857.337 633.291L818.582 492.606L817.127 492.989Z" fill="#EAEFFF" fill-opacity="0.81"/>
<path d="M817.123 492.99L816.651 493.158L867.457 630.225L867.929 630.056L868.401 629.888L817.595 492.821L817.123 492.99Z" fill="#EAEFFF" fill-opacity="0.81"/>
</g>
<mask id="mask5_81_29863" style="mask-type:alpha" maskUnits="userSpaceOnUse" x="703" y="379" width="228" height="229">
<path fill-rule="evenodd" clip-rule="evenodd" d="M771.974 596.696C714.316 570.446 687.762 502.979 712.665 446.004C737.567 389.029 804.496 364.122 862.154 390.372C919.812 416.623 946.366 484.09 921.463 541.065C896.56 598.039 829.632 622.947 771.974 596.696ZM786.322 561.772C825.795 579.743 871.614 562.691 888.662 523.687C905.711 484.682 887.532 438.494 848.059 420.523C808.587 402.552 762.768 419.604 745.719 458.609C728.671 497.613 746.85 543.801 786.322 561.772Z" fill="#D9D9D9"/>
</mask>
<g mask="url(#mask5_81_29863)">
<path d="M817.262 493.462L816.352 493.048L772.029 594.455L772.939 594.869L773.85 595.283L818.173 493.877L817.262 493.462Z" fill="#EAEFFF" fill-opacity="0.81"/>
<path d="M817.262 493.461L816.39 492.969L763.023 590.258L763.895 590.75L764.767 591.242L818.135 493.953L817.262 493.461Z" fill="#EAEFFF" fill-opacity="0.81"/>
<path d="M817.262 493.462L813.022 491.971L777.81 597.064L782.05 598.556L786.289 600.047L821.501 494.954L817.262 493.462Z" fill="#EAEFFF" fill-opacity="0.81"/>
<path d="M817.261 493.462L812.911 492.356L787.083 600.334L791.433 601.44L795.782 602.546L821.611 494.568L817.261 493.462Z" fill="#EAEFFF" fill-opacity="0.81"/>
<path d="M817.259 493.463L813.785 493.218L807.234 604.488L810.708 604.732L814.182 604.977L820.733 493.707L817.259 493.463Z" fill="#EAEFFF" fill-opacity="0.81"/>
<path d="M817.261 493.463L813.782 493.53L816.982 605.182L820.46 605.115L823.939 605.049L820.739 493.397L817.261 493.463Z" fill="#EAEFFF" fill-opacity="0.81"/>
<path d="M817.26 493.463L813.803 493.839L826.73 605.02L830.187 604.644L833.643 604.267L820.716 493.087L817.26 493.463Z" fill="#EAEFFF" fill-opacity="0.81"/>
<path d="M817.26 493.462L809.472 495.021L832.028 604.887L839.816 603.328L847.604 601.769L825.048 491.903L817.26 493.462Z" fill="#EAEFFF" fill-opacity="0.81"/>
<path d="M817.261 493.463L809.644 495.707L841.654 603.422L849.27 601.178L856.886 598.934L824.877 491.22L817.261 493.463Z" fill="#EAEFFF" fill-opacity="0.81"/>
<path d="M817.26 493.462L809.874 496.372L851.097 601.113L858.484 598.203L865.871 595.293L824.647 490.553L817.26 493.462Z" fill="#EAEFFF" fill-opacity="0.81"/>
<path d="M817.26 493.462L810.158 497.013L860.283 597.986L867.385 594.435L874.486 590.883L824.361 489.911L817.26 493.462Z" fill="#EAEFFF" fill-opacity="0.81"/>
<path d="M817.26 493.462L810.484 498.502L877.196 589.667L883.972 584.627L890.747 579.587L824.036 488.422L817.26 493.462Z" fill="#EAEFFF" fill-opacity="0.81"/>
<path d="M817.259 493.462L811.451 499.612L892.724 578.199L898.533 572.049L904.341 565.899L823.068 487.313L817.259 493.462Z" fill="#EAEFFF" fill-opacity="0.81"/>
<path d="M817.26 493.46L812.586 500.534L905.952 564.155L910.626 557.081L915.299 550.007L821.933 486.387L817.26 493.46Z" fill="#EAEFFF" fill-opacity="0.81"/>
<path d="M817.262 493.462L813.858 501.251L916.48 547.972L919.885 540.184L923.289 532.395L820.666 485.674L817.262 493.462Z" fill="#EAEFFF" fill-opacity="0.81"/>
<path d="M817.244 493.158L815.778 498.992L924.409 527.926L925.874 522.093L927.34 516.259L818.709 487.325L817.244 493.158Z" fill="#EAEFFF" fill-opacity="0.81"/>
<path d="M817.244 493.16L816.28 499.104L926.796 518.529L927.761 512.585L928.726 506.641L818.209 487.216L817.244 493.16Z" fill="#EAEFFF" fill-opacity="0.81"/>
<path d="M817.243 493.156L816.788 499.167L928.346 508.936L928.802 502.925L929.257 496.915L817.699 487.145L817.243 493.156Z" fill="#EAEFFF" fill-opacity="0.81"/>
<path d="M817.243 493.158L817.3 499.192L929.055 499.231L928.998 493.198L928.94 487.164L817.185 487.125L817.243 493.158Z" fill="#EAEFFF" fill-opacity="0.81"/>
<path d="M819.276 494.218L821.086 504.647L930.897 486.403L929.087 475.973L927.277 465.544L817.466 483.788L819.276 494.218Z" fill="#EAEFFF" fill-opacity="0.81"/>
<path d="M818.055 491.589L819.727 496.867L925.582 463.533L923.909 458.255L922.237 452.978L816.383 486.312L818.055 491.589Z" fill="#EAEFFF" fill-opacity="0.81"/>
<path d="M818.054 491.587L820.174 496.701L922.494 454.207L920.374 449.093L918.253 443.979L815.933 486.473L818.054 491.587Z" fill="#EAEFFF" fill-opacity="0.81"/>
<path d="M817.259 493.462L817.767 494.331L912.937 438.063L912.429 437.193L911.921 436.324L816.75 492.593L817.259 493.462Z" fill="#EAEFFF" fill-opacity="0.81"/>
<path d="M817.259 493.462L818.422 495.105L908.119 430.643L906.957 429L905.794 427.356L816.097 491.818L817.259 493.462Z" fill="#EAEFFF" fill-opacity="0.81"/>
<path d="M817.262 493.463L818.562 494.998L902.103 422.836L900.803 421.301L899.502 419.766L815.961 491.928L817.262 493.463Z" fill="#EAEFFF" fill-opacity="0.81"/>
<path d="M817.261 493.464L818.69 494.878L895.439 415.565L894.011 414.151L892.583 412.737L815.833 492.049L817.261 493.464Z" fill="#EAEFFF" fill-opacity="0.81"/>
<path d="M817.263 493.463L817.649 493.783L887.022 407.924L886.635 407.603L886.249 407.283L816.877 493.142L817.263 493.463Z" fill="#EAEFFF" fill-opacity="0.81"/>
<path d="M817.26 493.463L819.735 495.172L881.206 403.418L878.731 401.709L876.256 399.999L814.785 491.753L817.26 493.463Z" fill="#EAEFFF" fill-opacity="0.81"/>
<path d="M817.259 493.462L818.13 493.956L871.228 397.005L870.357 396.511L869.486 396.017L816.388 492.968L817.259 493.462Z" fill="#EAEFFF" fill-opacity="0.81"/>
<path d="M817.261 493.461L818.171 493.875L862.494 392.469L861.584 392.054L860.674 391.64L816.351 493.047L817.261 493.461Z" fill="#EAEFFF" fill-opacity="0.81"/>
<path d="M817.261 493.461L818.203 493.792L853.413 388.698L852.471 388.366L851.529 388.035L816.319 493.13L817.261 493.461Z" fill="#EAEFFF" fill-opacity="0.81"/>
<path d="M817.261 493.461L817.744 493.584L843.574 385.603L843.091 385.48L842.607 385.357L816.778 493.338L817.261 493.461Z" fill="#EAEFFF" fill-opacity="0.81"/>
<path d="M817.261 493.461L817.758 493.451L814.558 381.799L814.061 381.809L813.564 381.818L816.764 493.47L817.261 493.461Z" fill="#EAEFFF" fill-opacity="0.81"/>
<path d="M817.261 493.461L817.755 493.407L804.829 382.224L804.335 382.278L803.842 382.331L816.767 493.515L817.261 493.461Z" fill="#EAEFFF" fill-opacity="0.81"/>
<path d="M817.261 493.461L818.235 493.266L795.679 383.4L794.705 383.595L793.732 383.79L816.288 493.656L817.261 493.461Z" fill="#EAEFFF" fill-opacity="0.81"/>
<path d="M817.261 493.461L818.213 493.18L786.201 385.465L785.249 385.745L784.297 386.026L816.309 493.741L817.261 493.461Z" fill="#EAEFFF" fill-opacity="0.81"/>
<path d="M817.261 493.461L818.646 492.915L777.421 388.171L776.036 388.716L774.651 389.262L815.876 494.006L817.261 493.461Z" fill="#EAEFFF" fill-opacity="0.81"/>
<path d="M817.261 493.461L818.593 492.795L768.469 391.82L767.137 392.485L765.806 393.151L815.93 494.127L817.261 493.461Z" fill="#EAEFFF" fill-opacity="0.81"/>
<path d="M817.261 493.461L818.107 492.94L759.466 396.503L758.621 397.024L757.775 397.544L816.416 493.981L817.261 493.461Z" fill="#EAEFFF" fill-opacity="0.81"/>
<path d="M817.261 493.461L818.855 492.275L752.141 401.109L750.547 402.295L748.952 403.481L815.667 494.647L817.261 493.461Z" fill="#EAEFFF" fill-opacity="0.81"/>
<path d="M817.261 493.461L818.747 492.139L744.47 406.939L742.984 408.26L741.498 409.582L815.775 494.782L817.261 493.461Z" fill="#EAEFFF" fill-opacity="0.81"/>
<path d="M817.261 493.461L818.628 492.014L737.352 413.426L735.985 414.873L734.618 416.32L815.895 494.908L817.261 493.461Z" fill="#EAEFFF" fill-opacity="0.81"/>
<path d="M817.261 493.461L818.808 491.509L731.154 420.132L729.607 422.084L728.06 424.036L815.714 495.413L817.261 493.461Z" fill="#EAEFFF" fill-opacity="0.81"/>
<path d="M817.261 493.461L818.911 490.964L725.542 427.342L723.893 429.839L722.243 432.336L815.612 495.958L817.261 493.461Z" fill="#EAEFFF" fill-opacity="0.81"/>
<path d="M817.261 493.461L820.599 487.319L722.23 431.935L718.891 438.078L715.553 444.22L813.923 499.603L817.261 493.461Z" fill="#EAEFFF" fill-opacity="0.81"/>
<path d="M817.261 493.461L820.065 487.047L717.442 440.325L714.638 446.74L711.835 453.154L814.458 499.875L817.261 493.461Z" fill="#EAEFFF" fill-opacity="0.81"/>
<path d="M817.261 493.465L818.224 490.62L712.129 452.912L711.165 455.758L710.201 458.603L816.297 496.31L817.261 493.465Z" fill="#EAEFFF" fill-opacity="0.81"/>
<path d="M817.262 493.463L817.98 490.542L709.218 462.139L708.5 465.06L707.782 467.981L816.544 496.383L817.262 493.463Z" fill="#EAEFFF" fill-opacity="0.81"/>
<path d="M817.26 493.46L817.727 490.486L707.13 471.601L706.662 474.576L706.195 477.55L816.792 496.435L817.26 493.46Z" fill="#EAEFFF" fill-opacity="0.81"/>
<path d="M817.262 493.462L817.581 488.952L705.986 479.731L705.667 484.241L705.347 488.751L816.942 497.973L817.262 493.462Z" fill="#EAEFFF" fill-opacity="0.81"/>
<path d="M817.262 493.462L817.196 488.937L705.455 489.449L705.521 493.974L705.587 498.499L817.327 497.987L817.262 493.462Z" fill="#EAEFFF" fill-opacity="0.81"/>
<path d="M817.262 493.463L816.811 488.956L705.774 499.197L706.225 503.703L706.676 508.21L817.714 497.969L817.262 493.463Z" fill="#EAEFFF" fill-opacity="0.81"/>
<path d="M817.261 493.463L816.427 489.009L706.94 508.903L707.774 513.357L708.609 517.811L818.095 497.918L817.261 493.463Z" fill="#EAEFFF" fill-opacity="0.81"/>
<path d="M817.261 493.461L816.318 490.063L709.213 519.454L710.156 522.851L711.099 526.249L818.204 496.858L817.261 493.461Z" fill="#EAEFFF" fill-opacity="0.81"/>
<path d="M817.261 493.462L816.03 490.157L712.122 528.824L713.353 532.128L714.584 535.433L818.492 496.766L817.261 493.462Z" fill="#EAEFFF" fill-opacity="0.81"/>
<path d="M817.261 493.461L814.24 487.088L714.321 534.738L717.341 541.111L720.362 547.484L820.282 499.833L817.261 493.461Z" fill="#EAEFFF" fill-opacity="0.81"/>
<path d="M817.259 493.462L813.701 487.376L718.531 543.644L722.089 549.731L725.647 555.817L820.817 499.548L817.259 493.462Z" fill="#EAEFFF" fill-opacity="0.81"/>
<path d="M817.262 493.463L813.192 487.711L723.496 552.17L727.566 557.923L731.636 563.675L821.332 499.215L817.262 493.463Z" fill="#EAEFFF" fill-opacity="0.81"/>
<path d="M817.262 493.464L814.336 490.01L730.795 562.171L733.721 565.625L736.647 569.078L820.188 496.917L817.262 493.464Z" fill="#EAEFFF" fill-opacity="0.81"/>
<path d="M817.262 493.461L814.048 490.279L737.3 569.589L740.513 572.771L743.726 575.953L820.475 496.643L817.262 493.461Z" fill="#EAEFFF" fill-opacity="0.81"/>
<path d="M817.264 493.463L816.106 492.502L746.731 578.36L747.889 579.322L749.048 580.284L818.423 494.425L817.264 493.463Z" fill="#EAEFFF" fill-opacity="0.81"/>
<path d="M817.262 493.461L816.849 493.176L755.38 584.928L755.792 585.213L756.204 585.498L817.674 493.746L817.262 493.461Z" fill="#EAEFFF" fill-opacity="0.81"/>
</g>
<mask id="mask6_81_29863" style="mask-type:alpha" maskUnits="userSpaceOnUse" x="737" y="412" width="160" height="160">
<path fill-rule="evenodd" clip-rule="evenodd" d="M896.487 500.382C892.733 543.987 854.215 575.446 810.455 570.648C766.694 565.849 734.262 526.609 738.016 483.004C741.769 439.398 780.287 407.939 824.048 412.738C867.808 417.537 900.24 456.776 896.487 500.382ZM869.88 498.047C872.449 468.195 850.247 441.332 820.288 438.047C790.33 434.762 763.961 456.298 761.391 486.151C758.822 516.003 781.024 542.866 810.983 546.151C840.941 549.436 867.31 527.9 869.88 498.047Z" fill="#D9D9D9"/>
</mask>
<g mask="url(#mask6_81_29863)">
<path d="M817.157 491.575L817.071 492.572L894.958 501.113L895.044 500.116L895.13 499.12L817.243 490.579L817.157 491.575Z" fill="#EAEFFF" fill-opacity="0.81"/>
<path d="M817.151 491.575L816.978 492.558L894.276 507.939L894.449 506.956L894.623 505.973L817.324 490.592L817.151 491.575Z" fill="#EAEFFF" fill-opacity="0.81"/>
<path d="M817.156 491.576L817.159 496.085L895.333 497.83L895.33 493.321L895.327 488.812L817.153 487.067L817.156 491.576Z" fill="#EAEFFF" fill-opacity="0.81"/>
<path d="M817.155 491.575L817.547 496.076L895.41 491.01L895.018 486.509L894.626 482.008L816.763 487.074L817.155 491.575Z" fill="#EAEFFF" fill-opacity="0.81"/>
<path d="M817.159 491.577L817.288 492.064L892.762 473.545L892.633 473.058L892.504 472.571L817.03 491.09L817.159 491.577Z" fill="#EAEFFF" fill-opacity="0.81"/>
<path d="M817.159 491.577L817.329 492.052L890.743 466.992L890.573 466.518L890.403 466.043L816.989 491.102L817.159 491.577Z" fill="#EAEFFF" fill-opacity="0.81"/>
<path d="M817.157 491.575L817.367 492.034L888.159 460.625L887.949 460.166L887.738 459.707L816.947 491.116L817.157 491.575Z" fill="#EAEFFF" fill-opacity="0.81"/>
<path d="M817.156 491.577L817.405 492.017L885.038 454.497L884.789 454.057L884.54 453.617L816.907 491.137L817.156 491.577Z" fill="#EAEFFF" fill-opacity="0.81"/>
<path d="M817.158 491.576L817.444 491.994L881.403 448.65L881.118 448.232L880.833 447.815L816.873 491.159L817.158 491.576Z" fill="#EAEFFF" fill-opacity="0.81"/>
<path d="M817.156 491.575L817.476 491.967L877.273 443.127L876.953 442.735L876.633 442.344L816.836 491.183L817.156 491.575Z" fill="#EAEFFF" fill-opacity="0.81"/>
<path d="M817.154 491.577L817.507 491.94L872.688 437.975L872.336 437.612L871.984 437.249L816.802 491.214L817.154 491.577Z" fill="#EAEFFF" fill-opacity="0.81"/>
<path d="M817.155 491.576L819.605 493.36L864.334 430.418L861.884 428.634L859.435 426.85L814.705 489.792L817.155 491.576Z" fill="#EAEFFF" fill-opacity="0.81"/>
<path d="M817.157 491.577L819.869 492.912L852.786 422.903L850.074 421.568L847.362 420.234L814.445 490.242L817.157 491.577Z" fill="#EAEFFF" fill-opacity="0.81"/>
<path d="M817.155 491.578L820.046 492.422L840.151 417.474L837.259 416.63L834.368 415.786L814.263 490.734L817.155 491.578Z" fill="#EAEFFF" fill-opacity="0.81"/>
<path d="M817.155 491.576L820.137 491.903L826.818 414.292L823.836 413.965L820.854 413.638L814.173 491.249L817.155 491.576Z" fill="#EAEFFF" fill-opacity="0.81"/>
<path d="M817.36 491.357L819.349 491.233L812.787 413.295L810.799 413.418L808.811 413.542L815.372 491.48L817.36 491.357Z" fill="#EAEFFF" fill-opacity="0.81"/>
<path d="M816.959 491.65L818.924 491.352L805.598 414.116L803.632 414.415L801.666 414.713L814.993 491.948L816.959 491.65Z" fill="#EAEFFF" fill-opacity="0.81"/>
<path d="M816.903 491.549L817.867 491.313L797.879 415.372L796.915 415.607L795.951 415.842L815.939 491.784L816.903 491.549Z" fill="#EAEFFF" fill-opacity="0.81"/>
<path d="M816.958 491.647L818.365 491.168L791.867 417.095L790.459 417.574L789.052 418.054L815.551 492.127L816.958 491.647Z" fill="#EAEFFF" fill-opacity="0.81"/>
<path d="M817.18 490.084L818.485 489.378L780.301 420.349L778.997 421.056L777.693 421.762L815.876 490.79L817.18 490.084Z" fill="#EAEFFF" fill-opacity="0.81"/>
<path d="M815.722 491.435L816.912 490.55L769.643 427.244L768.453 428.129L767.263 429.013L814.532 492.319L815.722 491.435Z" fill="#EAEFFF" fill-opacity="0.81"/>
<path d="M815.721 491.435L816.828 490.448L764.312 431.366L763.205 432.353L762.099 433.34L814.614 492.422L815.721 491.435Z" fill="#EAEFFF" fill-opacity="0.81"/>
<path d="M817.157 491.579L817.796 490.824L757.826 439.311L757.188 440.066L756.55 440.822L816.519 492.335L817.157 491.579Z" fill="#EAEFFF" fill-opacity="0.81"/>
<path d="M817.158 491.575L819.434 488.336L755.321 442.133L753.044 445.373L750.767 448.612L814.881 494.815L817.158 491.575Z" fill="#EAEFFF" fill-opacity="0.81"/>
<path d="M817.156 491.576L818.148 489.859L750.381 449.318L749.389 451.035L748.397 452.751L816.164 493.292L817.156 491.576Z" fill="#EAEFFF" fill-opacity="0.81"/>
<path d="M817.157 491.573L817.995 489.773L747.089 455.203L746.251 457.002L745.413 458.802L816.319 493.373L817.157 491.573Z" fill="#EAEFFF" fill-opacity="0.81"/>
<path d="M817.157 491.575L818.512 487.836L745.007 459.5L743.652 463.238L742.297 466.977L815.802 495.313L817.157 491.575Z" fill="#EAEFFF" fill-opacity="0.81"/>
<path d="M817.156 491.577L817.924 488.69L742.379 466.801L741.611 469.688L740.843 472.576L816.387 494.465L817.156 491.577Z" fill="#EAEFFF" fill-opacity="0.81"/>
<path d="M817.156 491.577L817.328 490.593L740.319 475.322L740.147 476.305L739.975 477.288L816.985 492.56L817.156 491.577Z" fill="#EAEFFF" fill-opacity="0.81"/>
<path d="M817.154 491.576L817.239 490.58L739.352 482.039L739.267 483.035L739.181 484.031L817.068 492.572L817.154 491.576Z" fill="#EAEFFF" fill-opacity="0.81"/>
<path d="M817.154 491.576L817.153 490.574L738.979 488.831L738.98 489.833L738.98 490.835L817.154 492.578L817.154 491.576Z" fill="#EAEFFF" fill-opacity="0.81"/>
<path d="M817.154 491.576L817.11 491.076L739.245 496.142L739.289 496.642L739.332 497.142L817.197 492.076L817.154 491.576Z" fill="#EAEFFF" fill-opacity="0.81"/>
<path d="M817.154 491.576L816.984 491.101L743.57 516.161L743.74 516.635L743.91 517.11L817.324 492.051L817.154 491.576Z" fill="#EAEFFF" fill-opacity="0.81"/>
<path d="M817.154 491.576L816.943 491.117L746.149 522.526L746.36 522.985L746.57 523.444L817.364 492.035L817.154 491.576Z" fill="#EAEFFF" fill-opacity="0.81"/>
<path d="M817.154 491.576L816.656 490.696L749.023 528.217L749.52 529.097L750.018 529.977L817.651 492.456L817.154 491.576Z" fill="#EAEFFF" fill-opacity="0.81"/>
<path d="M817.154 491.576L816.583 490.741L752.623 534.087L753.194 534.922L753.764 535.757L817.725 492.411L817.154 491.576Z" fill="#EAEFFF" fill-opacity="0.81"/>
<path d="M817.154 491.576L816.194 490.401L756.394 539.242L757.354 540.417L758.314 541.593L818.114 492.751L817.154 491.576Z" fill="#EAEFFF" fill-opacity="0.81"/>
<path d="M817.154 491.576L816.097 490.487L760.913 544.452L761.97 545.541L763.026 546.629L818.21 492.665L817.154 491.576Z" fill="#EAEFFF" fill-opacity="0.81"/>
<path d="M817.154 491.576L816.39 490.913L766.243 549.59L767.006 550.253L767.77 550.915L817.917 492.239L817.154 491.576Z" fill="#EAEFFF" fill-opacity="0.81"/>
<path d="M817.154 491.576L815.521 490.387L770.791 553.331L772.424 554.521L774.057 555.71L818.787 492.765L817.154 491.576Z" fill="#EAEFFF" fill-opacity="0.81"/>
<path d="M817.154 491.576L815.427 490.533L776.455 557.264L778.182 558.307L779.909 559.351L818.881 492.62L817.154 491.576Z" fill="#EAEFFF" fill-opacity="0.81"/>
<path d="M817.154 491.576L815.346 490.686L782.429 560.697L784.237 561.587L786.045 562.477L818.962 492.466L817.154 491.576Z" fill="#EAEFFF" fill-opacity="0.81"/>
<path d="M817.154 491.576L814.81 490.665L788.197 563.421L790.541 564.333L792.885 565.244L819.497 492.488L817.154 491.576Z" fill="#EAEFFF" fill-opacity="0.81"/>
<path d="M817.154 491.576L814.262 490.732L794.158 565.682L797.049 566.526L799.94 567.37L820.045 492.42L817.154 491.576Z" fill="#EAEFFF" fill-opacity="0.81"/>
<path d="M817.154 491.576L814.206 490.988L800.761 567.561L803.709 568.149L806.657 568.736L820.102 492.164L817.154 491.576Z" fill="#EAEFFF" fill-opacity="0.81"/>
<path d="M817.154 491.576L814.172 491.249L807.491 568.861L810.473 569.188L813.455 569.515L820.136 491.903L817.154 491.576Z" fill="#EAEFFF" fill-opacity="0.81"/>
<path d="M817.156 491.575L814.163 491.511L814.295 569.572L817.288 569.636L820.281 569.7L820.15 491.639L817.156 491.575Z" fill="#EAEFFF" fill-opacity="0.81"/>
<path d="M817.157 491.575L814.176 491.775L821.122 569.692L824.103 569.492L827.084 569.292L820.138 491.375L817.157 491.575Z" fill="#EAEFFF" fill-opacity="0.81"/>
<path d="M817.156 491.577L814.21 492.039L827.914 569.216L830.861 568.754L833.807 568.292L820.103 491.115L817.156 491.577Z" fill="#EAEFFF" fill-opacity="0.81"/>
<path d="M817.158 491.574L812.824 492.655L833.186 568.508L837.519 567.427L841.852 566.346L821.491 490.493L817.158 491.574Z" fill="#EAEFFF" fill-opacity="0.81"/>
<path d="M817.155 491.576L812.941 493.036L839.803 566.986L844.017 565.526L848.231 564.066L821.369 490.116L817.155 491.576Z" fill="#EAEFFF" fill-opacity="0.81"/>
<path d="M817.155 491.574L813.093 493.402L846.251 564.887L850.313 563.06L854.375 561.232L821.217 489.747L817.155 491.574Z" fill="#EAEFFF" fill-opacity="0.81"/>
<path d="M817.155 491.574L813.276 493.754L852.478 562.229L856.357 560.048L860.237 557.867L821.034 489.393L817.155 491.574Z" fill="#EAEFFF" fill-opacity="0.81"/>
<path d="M817.155 491.575L814.302 493.533L859.248 558.477L862.101 556.52L864.953 554.562L820.007 489.618L817.155 491.575Z" fill="#EAEFFF" fill-opacity="0.81"/>
<path d="M817.156 491.577L814.49 493.781L864.839 554.701L867.505 552.497L870.171 550.293L819.821 489.373L817.156 491.577Z" fill="#EAEFFF" fill-opacity="0.81"/>
<path d="M817.155 491.575L815.047 493.661L870.419 550.093L872.527 548.007L874.635 545.921L819.263 489.49L817.155 491.575Z" fill="#EAEFFF" fill-opacity="0.81"/>
<path d="M817.155 491.574L815.24 493.84L875.209 545.353L877.124 543.087L879.039 540.821L819.07 489.308L817.155 491.574Z" fill="#EAEFFF" fill-opacity="0.81"/>
<path d="M817.156 491.575L815.449 494.004L879.56 540.207L881.268 537.777L882.975 535.348L818.864 489.146L817.156 491.575Z" fill="#EAEFFF" fill-opacity="0.81"/>
<path d="M817.158 491.574L815.67 494.148L883.437 534.689L884.925 532.115L886.413 529.54L818.646 488.999L817.158 491.574Z" fill="#EAEFFF" fill-opacity="0.81"/>
<path d="M817.155 491.574L815.898 494.273L886.803 528.844L888.059 526.144L889.316 523.445L818.412 488.874L817.155 491.574Z" fill="#EAEFFF" fill-opacity="0.81"/>
<path d="M817.157 491.575L816.648 492.977L890.153 521.315L890.661 519.913L891.169 518.511L817.665 490.173L817.157 491.575Z" fill="#EAEFFF" fill-opacity="0.81"/>
<path d="M817.155 491.577L817.027 492.058L892.569 513.947L892.698 513.466L892.826 512.985L817.283 491.096L817.155 491.577Z" fill="#EAEFFF" fill-opacity="0.81"/>
</g>
<mask id="mask7_81_29863" style="mask-type:alpha" maskUnits="userSpaceOnUse" x="760" y="436" width="111" height="112">
<path fill-rule="evenodd" clip-rule="evenodd" d="M774.826 528.256C754.207 505.253 755.766 470.353 778.308 450.307C800.85 430.26 835.839 432.657 856.457 455.66C877.076 478.664 875.517 513.563 852.975 533.61C830.433 553.657 795.444 551.26 774.826 528.256ZM788.232 515.786C802.348 531.534 826.301 533.175 841.733 519.451C857.165 505.727 858.233 481.835 844.117 466.087C830.002 450.338 806.049 448.697 790.617 462.421C775.184 476.145 774.117 500.037 788.232 515.786Z" fill="#D9D9D9"/>
</mask>
<g mask="url(#mask7_81_29863)">
<path d="M815.744 491.968L815.076 491.223L774.955 526.904L775.623 527.648L776.29 528.393L816.411 492.713L815.744 491.968Z" fill="#EAEFFF" fill-opacity="0.81"/>
<path d="M815.744 491.964L815.143 491.165L771.787 523.237L772.388 524.036L772.989 524.835L816.345 492.763L815.744 491.964Z" fill="#EAEFFF" fill-opacity="0.81"/>
<path d="M815.743 491.966L812.451 488.895L775.68 528.008L778.971 531.079L782.263 534.15L819.034 495.037L815.743 491.966Z" fill="#EAEFFF" fill-opacity="0.81"/>
<path d="M815.742 491.967L812.189 489.201L779.051 531.449L782.604 534.215L786.157 536.981L819.296 494.733L815.742 491.967Z" fill="#EAEFFF" fill-opacity="0.81"/>
<path d="M815.741 491.966L812.638 490.337L787.489 537.868L790.591 539.498L793.693 541.128L818.843 493.596L815.741 491.966Z" fill="#EAEFFF" fill-opacity="0.81"/>
<path d="M815.745 491.966L812.51 490.617L791.656 540.258L794.891 541.607L798.127 542.957L818.98 493.316L815.745 491.966Z" fill="#EAEFFF" fill-opacity="0.81"/>
<path d="M815.743 491.967L812.401 490.908L796.004 542.279L799.346 543.339L802.688 544.399L819.085 493.027L815.743 491.967Z" fill="#EAEFFF" fill-opacity="0.81"/>
<path d="M815.744 491.965L812.81 491.311L800.994 544.023L803.928 544.677L806.861 545.33L818.677 492.618L815.744 491.965Z" fill="#EAEFFF" fill-opacity="0.81"/>
<path d="M815.743 491.965L812.763 491.57L805.616 545.22L808.596 545.615L811.576 546.01L818.722 492.36L815.743 491.965Z" fill="#EAEFFF" fill-opacity="0.81"/>
<path d="M815.743 491.965L812.74 491.831L810.32 546.011L813.323 546.146L816.325 546.28L818.746 492.1L815.743 491.965Z" fill="#EAEFFF" fill-opacity="0.81"/>
<path d="M815.743 491.966L812.74 492.092L815.064 546.391L818.067 546.265L821.07 546.138L818.746 491.839L815.743 491.966Z" fill="#EAEFFF" fill-opacity="0.81"/>
<path d="M815.743 491.965L809.381 493.351L821.102 546.648L827.464 545.263L833.825 543.877L822.105 490.58L815.743 491.965Z" fill="#EAEFFF" fill-opacity="0.81"/>
<path d="M815.744 491.967L809.715 494.416L830.477 545.093L836.506 542.644L842.536 540.195L821.774 489.518L815.744 491.967Z" fill="#EAEFFF" fill-opacity="0.81"/>
<path d="M815.743 491.964L810.22 495.399L839.393 541.916L844.916 538.48L850.438 535.045L821.265 488.528L815.743 491.964Z" fill="#EAEFFF" fill-opacity="0.81"/>
<path d="M815.744 491.967L810.887 496.287L847.585 537.23L852.442 532.91L857.299 528.591L820.601 487.648L815.744 491.967Z" fill="#EAEFFF" fill-opacity="0.81"/>
<path d="M815.762 492.175L813.881 494.51L856.824 528.842L858.705 526.508L860.586 524.174L817.643 489.841L815.762 492.175Z" fill="#EAEFFF" fill-opacity="0.81"/>
<path d="M815.796 491.829L814.121 494.315L859.809 524.85L861.483 522.364L863.158 519.878L817.47 489.343L815.796 491.829Z" fill="#EAEFFF" fill-opacity="0.81"/>
<path d="M815.873 491.85L814.418 494.469L862.501 520.973L863.955 518.354L865.41 515.735L817.328 489.231L815.873 491.85Z" fill="#EAEFFF" fill-opacity="0.81"/>
<path d="M815.796 491.828L814.572 494.562L864.684 516.835L865.909 514.101L867.133 511.367L817.02 489.094L815.796 491.828Z" fill="#EAEFFF" fill-opacity="0.81"/>
<path d="M816.497 492.699L814.978 498.501L867.868 512.362L869.388 506.56L870.907 500.758L818.016 486.896L816.497 492.699Z" fill="#EAEFFF" fill-opacity="0.81"/>
<path d="M816.474 491.3L816.119 494.269L870.247 500.72L870.603 497.75L870.958 494.781L816.83 488.331L816.474 491.3Z" fill="#EAEFFF" fill-opacity="0.81"/>
<path d="M816.475 491.302L816.455 491.95L870.826 493.676L870.847 493.028L870.867 492.38L816.495 490.654L816.475 491.302Z" fill="#EAEFFF" fill-opacity="0.81"/>
<path d="M815.742 491.965L815.849 492.957L869.764 487.214L869.657 486.222L869.55 485.229L815.635 490.972L815.742 491.965Z" fill="#EAEFFF" fill-opacity="0.81"/>
<path d="M815.742 491.966L815.839 492.456L868.935 482.026L868.838 481.537L868.741 481.047L815.645 491.476L815.742 491.966Z" fill="#EAEFFF" fill-opacity="0.81"/>
<path d="M815.743 491.965L815.883 492.444L867.755 477.41L867.615 476.931L867.475 476.452L815.603 491.486L815.743 491.965Z" fill="#EAEFFF" fill-opacity="0.81"/>
<path d="M815.745 491.967L815.927 492.432L866.181 472.906L865.999 472.442L865.816 471.977L815.563 491.502L815.745 491.967Z" fill="#EAEFFF" fill-opacity="0.81"/>
<path d="M815.745 491.966L816.191 492.86L864.443 468.992L863.997 468.098L863.551 467.204L815.299 491.072L815.745 491.966Z" fill="#EAEFFF" fill-opacity="0.81"/>
<path d="M815.742 491.965L816.266 492.816L862.151 464.787L861.627 463.936L861.103 463.085L815.218 491.114L815.742 491.965Z" fill="#EAEFFF" fill-opacity="0.81"/>
<path d="M815.743 491.964L816.342 492.765L859.509 460.788L858.91 459.987L858.312 459.186L815.145 491.163L815.743 491.964Z" fill="#EAEFFF" fill-opacity="0.81"/>
<path d="M815.745 491.966L816.413 492.71L856.534 457.03L855.866 456.285L855.199 455.541L815.078 491.221L815.745 491.966Z" fill="#EAEFFF" fill-opacity="0.81"/>
<path d="M815.745 491.966L816.477 492.648L853.247 453.534L852.515 452.852L851.784 452.169L815.014 491.283L815.745 491.966Z" fill="#EAEFFF" fill-opacity="0.81"/>
<path d="M815.745 491.966L816.14 492.273L849.28 450.024L848.885 449.717L848.49 449.41L815.35 491.658L815.745 491.966Z" fill="#EAEFFF" fill-opacity="0.81"/>
<path d="M815.745 491.966L816.207 492.159L837.061 442.517L836.598 442.325L836.136 442.132L815.283 491.773L815.745 491.966Z" fill="#EAEFFF" fill-opacity="0.81"/>
<path d="M815.745 491.966L816.223 492.117L832.62 440.745L832.143 440.593L831.665 440.442L815.268 491.814L815.745 491.966Z" fill="#EAEFFF" fill-opacity="0.81"/>
<path d="M815.745 491.966L816.723 492.184L828.539 439.472L827.561 439.254L826.583 439.036L814.767 491.748L815.745 491.966Z" fill="#EAEFFF" fill-opacity="0.81"/>
<path d="M815.745 491.966L816.738 492.098L823.884 438.446L822.891 438.314L821.897 438.183L814.752 491.834L815.745 491.966Z" fill="#EAEFFF" fill-opacity="0.81"/>
<path d="M815.745 491.966L816.246 491.988L818.666 437.806L818.166 437.784L817.665 437.761L815.245 491.943L815.745 491.966Z" fill="#EAEFFF" fill-opacity="0.81"/>
<path d="M815.745 491.966L816.246 491.945L813.923 437.645L813.422 437.666L812.922 437.687L815.245 491.987L815.745 491.966Z" fill="#EAEFFF" fill-opacity="0.81"/>
<path d="M815.745 491.966L816.739 491.838L809.69 437.833L808.697 437.962L807.703 438.09L814.752 492.094L815.745 491.966Z" fill="#EAEFFF" fill-opacity="0.81"/>
<path d="M815.745 491.966L816.724 491.753L805.002 438.454L804.024 438.667L803.045 438.88L814.766 492.179L815.745 491.966Z" fill="#EAEFFF" fill-opacity="0.81"/>
<path d="M815.745 491.966L816.702 491.67L800.398 439.483L799.441 439.779L798.484 440.075L814.789 492.262L815.745 491.966Z" fill="#EAEFFF" fill-opacity="0.81"/>
<path d="M815.745 491.966L816.673 491.589L795.91 440.911L794.982 441.288L794.054 441.665L814.818 492.343L815.745 491.966Z" fill="#EAEFFF" fill-opacity="0.81"/>
<path d="M815.745 491.966L816.637 491.511L791.574 442.728L790.682 443.183L789.79 443.637L814.853 492.42L815.745 491.966Z" fill="#EAEFFF" fill-opacity="0.81"/>
<path d="M815.745 491.966L816.595 491.437L787.421 444.92L786.571 445.448L785.722 445.977L814.896 492.494L815.745 491.966Z" fill="#EAEFFF" fill-opacity="0.81"/>
<path d="M815.745 491.966L816.547 491.367L783.485 447.469L782.684 448.068L781.882 448.667L814.944 492.565L815.745 491.966Z" fill="#EAEFFF" fill-opacity="0.81"/>
<path d="M815.745 491.966L817.987 489.972L781.289 449.029L779.047 451.023L776.805 453.016L813.503 493.959L815.745 491.966Z" fill="#EAEFFF" fill-opacity="0.81"/>
<path d="M815.743 491.968L817.806 489.791L777.751 452.113L775.688 454.289L773.624 456.466L813.679 494.144L815.743 491.968Z" fill="#EAEFFF" fill-opacity="0.81"/>
<path d="M815.743 491.965L817.613 489.621L774.505 455.496L772.635 457.84L770.766 460.183L813.874 494.309L815.743 491.965Z" fill="#EAEFFF" fill-opacity="0.81"/>
<path d="M815.741 491.965L817.403 489.471L771.572 459.157L769.91 461.651L768.248 464.145L814.079 494.459L815.741 491.965Z" fill="#EAEFFF" fill-opacity="0.81"/>
<path d="M815.746 491.968L817.908 488.028L769.7 461.757L767.538 465.697L765.375 469.637L813.583 495.908L815.746 491.968Z" fill="#EAEFFF" fill-opacity="0.81"/>
<path d="M815.744 491.968L817.56 487.857L767.344 465.829L765.528 469.94L763.712 474.05L813.929 496.078L815.744 491.968Z" fill="#EAEFFF" fill-opacity="0.81"/>
<path d="M815.744 491.967L817.198 487.717L765.355 470.099L763.901 474.349L762.447 478.6L814.289 496.218L815.744 491.967Z" fill="#EAEFFF" fill-opacity="0.81"/>
<path d="M815.745 491.965L816.825 487.605L763.751 474.532L762.67 478.892L761.59 483.252L814.664 496.325L815.745 491.965Z" fill="#EAEFFF" fill-opacity="0.81"/>
<path d="M815.744 491.966L816.286 488.515L762.385 480.085L761.842 483.536L761.3 486.987L815.202 495.417L815.744 491.966Z" fill="#EAEFFF" fill-opacity="0.81"/>
<path d="M815.742 491.966L815.981 488.481L761.662 484.759L761.423 488.244L761.183 491.729L815.503 495.451L815.742 491.966Z" fill="#EAEFFF" fill-opacity="0.81"/>
<path d="M815.744 491.966L815.686 488.972L761.361 489.987L761.419 492.981L761.477 495.974L815.801 494.959L815.744 491.966Z" fill="#EAEFFF" fill-opacity="0.81"/>
<path d="M815.746 491.966L815.425 488.988L761.51 494.732L761.831 497.709L762.152 500.686L816.067 494.943L815.746 491.966Z" fill="#EAEFFF" fill-opacity="0.81"/>
<path d="M815.745 491.965L815.162 489.028L762.067 499.456L762.65 502.394L763.232 505.331L816.327 494.903L815.745 491.965Z" fill="#EAEFFF" fill-opacity="0.81"/>
<path d="M815.745 491.966L814.904 489.091L763.032 504.125L763.873 507L764.714 509.875L816.586 494.841L815.745 491.966Z" fill="#EAEFFF" fill-opacity="0.81"/>
<path d="M815.744 491.966L814.651 489.176L764.398 508.701L765.491 511.491L766.584 514.28L816.837 494.755L815.744 491.966Z" fill="#EAEFFF" fill-opacity="0.81"/>
<path d="M815.743 491.967L815.074 490.626L766.821 514.493L767.49 515.834L768.159 517.175L816.412 493.308L815.743 491.967Z" fill="#EAEFFF" fill-opacity="0.81"/>
<path d="M815.744 491.966L815.482 491.54L769.598 519.568L769.86 519.994L770.122 520.419L816.006 492.391L815.744 491.966Z" fill="#EAEFFF" fill-opacity="0.81"/>
</g>
</svg>
