<svg preserveAspectRatio="xMidYMid meet" width="100%" height="100%" overflow="visible" style="display: block;" viewBox="0 0 746.971 747.992" fill="none" xmlns="http://www.w3.org/2000/svg">
<g id="Group 14">
<path id="Vector" d="M373.486 374.04V0.087904" stroke="var(--stroke-0, black)" stroke-width="2" stroke-miterlimit="10"/>
<path id="Vector_2" d="M373.484 374.04L406.401 0.087904" stroke="var(--stroke-0, black)" stroke-width="2" stroke-miterlimit="10"/>
<path id="Vector_3" d="M373.485 374.039L340.939 1.5066" stroke="var(--stroke-0, black)" stroke-width="2" stroke-miterlimit="10"/>
<path id="Vector_4" d="M373.487 374.04L308.63 5.77399" stroke="var(--stroke-0, black)" stroke-width="2" stroke-miterlimit="10"/>
<path id="Vector_5" d="M373.484 374.039L276.824 12.8286" stroke="var(--stroke-0, black)" stroke-width="2" stroke-miterlimit="10"/>
<path id="Vector_6" d="M373.484 374.04L245.744 22.6438" stroke="var(--stroke-0, black)" stroke-width="2" stroke-miterlimit="10"/>
<path id="Vector_7" d="M373.485 374.04L215.643 35.1208" stroke="var(--stroke-0, black)" stroke-width="2" stroke-miterlimit="10"/>
<path id="Vector_8" d="M373.486 374.039L186.743 50.1902" stroke="var(--stroke-0, black)" stroke-width="2" stroke-miterlimit="10"/>
<path id="Vector_9" d="M373.485 374.039L159.259 67.7167" stroke="var(--stroke-0, black)" stroke-width="2" stroke-miterlimit="10"/>
<path id="Vector_10" d="M373.485 374.039L133.418 87.5719" stroke="var(--stroke-0, black)" stroke-width="2" stroke-miterlimit="10"/>
<path id="Vector_11" d="M373.487 374.04L109.396 109.62" stroke="var(--stroke-0, black)" stroke-width="2" stroke-miterlimit="10"/>
<path id="Vector_12" d="M373.486 374.041L87.3762 133.674" stroke="var(--stroke-0, black)" stroke-width="2" stroke-miterlimit="10"/>
<path id="Vector_13" d="M373.486 374.039L67.5454 159.546" stroke="var(--stroke-0, black)" stroke-width="2" stroke-miterlimit="10"/>
<path id="Vector_14" d="M373.486 374.04L50.0414 187.064" stroke="var(--stroke-0, black)" stroke-width="2" stroke-miterlimit="10"/>
<path id="Vector_15" d="M373.486 374.04L34.9892 216.001" stroke="var(--stroke-0, black)" stroke-width="2" stroke-miterlimit="10"/>
<path id="Vector_16" d="M373.484 374.04L22.5266 246.14" stroke="var(--stroke-0, black)" stroke-width="2" stroke-miterlimit="10"/>
<path id="Vector_17" d="M373.486 374.04L12.7254 277.259" stroke="var(--stroke-0, black)" stroke-width="2" stroke-miterlimit="10"/>
<path id="Vector_18" d="M373.486 374.04L5.67934 309.102" stroke="var(--stroke-0, black)" stroke-width="2" stroke-miterlimit="10"/>
<path id="Vector_19" d="M373.485 374.039L1.41671 341.453" stroke="var(--stroke-0, black)" stroke-width="2" stroke-miterlimit="10"/>
<path id="Vector_20" d="M373.486 374.04H1.14786e-07" stroke="var(--stroke-0, black)" stroke-width="2" stroke-miterlimit="10"/>
<path id="Vector_21" d="M373.485 374.04L1.41671 406.636" stroke="var(--stroke-0, black)" stroke-width="2" stroke-miterlimit="10"/>
<path id="Vector_22" d="M373.486 374.04L5.67934 438.978" stroke="var(--stroke-0, black)" stroke-width="2" stroke-miterlimit="10"/>
<path id="Vector_23" d="M373.486 374.04L12.7254 470.83" stroke="var(--stroke-0, black)" stroke-width="2" stroke-miterlimit="10"/>
<path id="Vector_24" d="M373.484 374.04L22.5266 501.939" stroke="var(--stroke-0, black)" stroke-width="2" stroke-miterlimit="10"/>
<path id="Vector_25" d="M373.486 374.04L34.9892 532.079" stroke="var(--stroke-0, black)" stroke-width="2" stroke-miterlimit="10"/>
<path id="Vector_26" d="M373.486 374.04L50.0414 561.016" stroke="var(--stroke-0, black)" stroke-width="2" stroke-miterlimit="10"/>
<path id="Vector_27" d="M373.486 374.04L67.5454 588.533" stroke="var(--stroke-0, black)" stroke-width="2" stroke-miterlimit="10"/>
<path id="Vector_28" d="M373.486 374.04L87.3762 614.416" stroke="var(--stroke-0, black)" stroke-width="2" stroke-miterlimit="10"/>
<path id="Vector_29" d="M373.487 374.04L109.396 638.47" stroke="var(--stroke-0, black)" stroke-width="2" stroke-miterlimit="10"/>
<path id="Vector_30" d="M373.485 374.04L133.418 660.507" stroke="var(--stroke-0, black)" stroke-width="2" stroke-miterlimit="10"/>
<path id="Vector_31" d="M373.485 374.04L159.259 680.362" stroke="var(--stroke-0, black)" stroke-width="2" stroke-miterlimit="10"/>
<path id="Vector_32" d="M373.486 374.04L186.743 697.898" stroke="var(--stroke-0, black)" stroke-width="2" stroke-miterlimit="10"/>
<path id="Vector_33" d="M373.485 374.04L215.643 712.958" stroke="var(--stroke-0, black)" stroke-width="2" stroke-miterlimit="10"/>
<path id="Vector_34" d="M373.484 374.04L245.744 725.445" stroke="var(--stroke-0, black)" stroke-width="2" stroke-miterlimit="10"/>
<path id="Vector_35" d="M373.484 374.04L276.824 735.25" stroke="var(--stroke-0, black)" stroke-width="2" stroke-miterlimit="10"/>
<path id="Vector_36" d="M373.487 374.04L308.63 742.316" stroke="var(--stroke-0, black)" stroke-width="2" stroke-miterlimit="10"/>
<path id="Vector_37" d="M373.485 374.04L340.939 746.573" stroke="var(--stroke-0, black)" stroke-width="2" stroke-miterlimit="10"/>
<path id="Vector_38" d="M373.486 374.04V747.992" stroke="var(--stroke-0, black)" stroke-width="2" stroke-miterlimit="10"/>
<path id="Vector_39" d="M373.486 374.04L406.041 746.573" stroke="var(--stroke-0, black)" stroke-width="2" stroke-miterlimit="10"/>
<path id="Vector_40" d="M373.486 374.04L438.343 742.316" stroke="var(--stroke-0, black)" stroke-width="2" stroke-miterlimit="10"/>
<path id="Vector_41" d="M373.486 374.04L470.155 735.25" stroke="var(--stroke-0, black)" stroke-width="2" stroke-miterlimit="10"/>
<path id="Vector_42" d="M373.486 374.04L501.226 725.445" stroke="var(--stroke-0, black)" stroke-width="2" stroke-miterlimit="10"/>
<path id="Vector_43" d="M373.486 374.04L531.328 712.958" stroke="var(--stroke-0, black)" stroke-width="2" stroke-miterlimit="10"/>
<path id="Vector_44" d="M373.486 374.04L560.228 697.898" stroke="var(--stroke-0, black)" stroke-width="2" stroke-miterlimit="10"/>
<path id="Vector_45" d="M373.486 374.04L587.711 680.362" stroke="var(--stroke-0, black)" stroke-width="2" stroke-miterlimit="10"/>
<path id="Vector_46" d="M373.486 374.04L613.562 660.507" stroke="var(--stroke-0, black)" stroke-width="2" stroke-miterlimit="10"/>
<path id="Vector_47" d="M373.486 374.04L637.586 638.47" stroke="var(--stroke-0, black)" stroke-width="2" stroke-miterlimit="10"/>
<path id="Vector_48" d="M373.486 374.04L659.596 614.416" stroke="var(--stroke-0, black)" stroke-width="2" stroke-miterlimit="10"/>
<path id="Vector_49" d="M373.486 374.04L679.426 588.533" stroke="var(--stroke-0, black)" stroke-width="2" stroke-miterlimit="10"/>
<path id="Vector_50" d="M373.486 374.04L696.94 561.016" stroke="var(--stroke-0, black)" stroke-width="2" stroke-miterlimit="10"/>
<path id="Vector_51" d="M373.486 374.04L711.982 532.079" stroke="var(--stroke-0, black)" stroke-width="2" stroke-miterlimit="10"/>
<path id="Vector_52" d="M373.486 374.04L724.453 501.939" stroke="var(--stroke-0, black)" stroke-width="2" stroke-miterlimit="10"/>
<path id="Vector_53" d="M373.486 374.04L734.246 470.83" stroke="var(--stroke-0, black)" stroke-width="2" stroke-miterlimit="10"/>
<path id="Vector_54" d="M373.486 374.04L741.302 438.978" stroke="var(--stroke-0, black)" stroke-width="2" stroke-miterlimit="10"/>
<path id="Vector_55" d="M373.486 374.04L745.554 406.636" stroke="var(--stroke-0, black)" stroke-width="2" stroke-miterlimit="10"/>
<path id="Vector_56" d="M373.486 374.04H746.971" stroke="var(--stroke-0, black)" stroke-width="2" stroke-miterlimit="10"/>
<path id="Vector_57" d="M373.486 374.039L745.554 341.453" stroke="var(--stroke-0, black)" stroke-width="2" stroke-miterlimit="10"/>
<path id="Vector_58" d="M373.486 374.04L741.302 309.102" stroke="var(--stroke-0, black)" stroke-width="2" stroke-miterlimit="10"/>
<path id="Vector_59" d="M373.486 374.04L734.246 277.259" stroke="var(--stroke-0, black)" stroke-width="2" stroke-miterlimit="10"/>
<path id="Vector_60" d="M373.486 374.04L724.453 246.14" stroke="var(--stroke-0, black)" stroke-width="2" stroke-miterlimit="10"/>
<path id="Vector_61" d="M373.486 374.04L711.982 216.001" stroke="var(--stroke-0, black)" stroke-width="2" stroke-miterlimit="10"/>
<path id="Vector_62" d="M373.486 374.04L696.94 187.064" stroke="var(--stroke-0, black)" stroke-width="2" stroke-miterlimit="10"/>
<path id="Vector_63" d="M373.486 374.039L679.426 159.546" stroke="var(--stroke-0, black)" stroke-width="2" stroke-miterlimit="10"/>
<path id="Vector_64" d="M373.486 374.041L659.596 133.674" stroke="var(--stroke-0, black)" stroke-width="2" stroke-miterlimit="10"/>
<path id="Vector_65" d="M373.486 374.04L637.586 109.62" stroke="var(--stroke-0, black)" stroke-width="2" stroke-miterlimit="10"/>
<path id="Vector_66" d="M373.486 374.039L613.562 87.5719" stroke="var(--stroke-0, black)" stroke-width="2" stroke-miterlimit="10"/>
<path id="Vector_67" d="M373.486 374.039L587.711 67.7167" stroke="var(--stroke-0, black)" stroke-width="2" stroke-miterlimit="10"/>
<path id="Vector_68" d="M373.486 374.039L560.228 50.1902" stroke="var(--stroke-0, black)" stroke-width="2" stroke-miterlimit="10"/>
<path id="Vector_69" d="M373.486 374.04L531.328 35.1208" stroke="var(--stroke-0, black)" stroke-width="2" stroke-miterlimit="10"/>
<path id="Vector_70" d="M373.486 374.04L501.226 22.6438" stroke="var(--stroke-0, black)" stroke-width="2" stroke-miterlimit="10"/>
<path id="Vector_71" d="M373.486 374.039L470.155 12.8286" stroke="var(--stroke-0, black)" stroke-width="2" stroke-miterlimit="10"/>
<path id="Vector_72" d="M373.486 374.039L438.343 5.77318" stroke="var(--stroke-0, black)" stroke-width="2" stroke-miterlimit="10"/>
</g>
</svg>
