<?xml version="1.0" encoding="UTF-8" standalone="no"?>
<!-- Created with Inkscape (http://www.inkscape.org/) -->

<svg
   version="1.1"
   id="svg2"
   width="728.68225"
   height="216.94318"
   viewBox="0 0 728.68225 216.94318"
   sodipodi:docname="CIMC_KH_05.pdf"
   xmlns:inkscape="http://www.inkscape.org/namespaces/inkscape"
   xmlns:sodipodi="http://sodipodi.sourceforge.net/DTD/sodipodi-0.dtd"
   xmlns="http://www.w3.org/2000/svg"
   xmlns:svg="http://www.w3.org/2000/svg">
  <defs
     id="defs6">
    <clipPath
       clipPathUnits="userSpaceOnUse"
       id="clipPath352">
      <path
         d="M 0,0 H 595.276 V 3203.15 H 0 Z"
         id="path350" />
    </clipPath>
    <clipPath
       clipPathUnits="userSpaceOnUse"
       id="clipPath376">
      <path
         d="M 0,0 H 595.276 V 3203.15 H 0 Z"
         id="path374" />
    </clipPath>
    <clipPath
       clipPathUnits="userSpaceOnUse"
       id="clipPath392">
      <path
         d="M 0,0 H 595.276 V 3203.15 H 0 Z"
         id="path390" />
    </clipPath>
    <clipPath
       clipPathUnits="userSpaceOnUse"
       id="clipPath416">
      <path
         d="M 0,0 H 595.276 V 3203.15 H 0 Z"
         id="path414" />
    </clipPath>
    <clipPath
       clipPathUnits="userSpaceOnUse"
       id="clipPath436">
      <path
         d="M 0,0 H 595.276 V 3203.15 H 0 Z"
         id="path434" />
    </clipPath>
    <clipPath
       clipPathUnits="userSpaceOnUse"
       id="clipPath452">
      <path
         d="M 0,0 H 595.276 V 3203.15 H 0 Z"
         id="path450" />
    </clipPath>
    <clipPath
       clipPathUnits="userSpaceOnUse"
       id="clipPath468">
      <path
         d="M 0,0 H 595.276 V 3203.15 H 0 Z"
         id="path466" />
    </clipPath>
    <clipPath
       clipPathUnits="userSpaceOnUse"
       id="clipPath532">
      <path
         d="M 0,0 H 595.276 V 3203.15 H 0 Z"
         id="path530" />
    </clipPath>
    <clipPath
       clipPathUnits="userSpaceOnUse"
       id="clipPath564">
      <path
         d="M 0,0 H 595.276 V 3203.15 H 0 Z"
         id="path562" />
    </clipPath>
    <clipPath
       clipPathUnits="userSpaceOnUse"
       id="clipPath580">
      <path
         d="M 0,0 H 595.276 V 3203.15 H 0 Z"
         id="path578" />
    </clipPath>
    <clipPath
       clipPathUnits="userSpaceOnUse"
       id="clipPath600">
      <path
         d="M 0,0 H 595.276 V 3203.15 H 0 Z"
         id="path598" />
    </clipPath>
    <clipPath
       clipPathUnits="userSpaceOnUse"
       id="clipPath636">
      <path
         d="M 0,0 H 595.276 V 3203.15 H 0 Z"
         id="path634" />
    </clipPath>
    <clipPath
       clipPathUnits="userSpaceOnUse"
       id="clipPath668">
      <path
         d="M 0,0 H 595.276 V 3203.15 H 0 Z"
         id="path666" />
    </clipPath>
    <clipPath
       clipPathUnits="userSpaceOnUse"
       id="clipPath748">
      <path
         d="M 0,0 H 595.276 V 3203.15 H 0 Z"
         id="path746" />
    </clipPath>
    <clipPath
       clipPathUnits="userSpaceOnUse"
       id="clipPath860">
      <path
         d="M 0,0 H 595.276 V 3203.15 H 0 Z"
         id="path858" />
    </clipPath>
    <clipPath
       clipPathUnits="userSpaceOnUse"
       id="clipPath884">
      <path
         d="M 0,0 H 595.276 V 3203.15 H 0 Z"
         id="path882" />
    </clipPath>
    <clipPath
       clipPathUnits="userSpaceOnUse"
       id="clipPath904">
      <path
         d="M 0,0 H 595.276 V 3203.15 H 0 Z"
         id="path902" />
    </clipPath>
    <clipPath
       clipPathUnits="userSpaceOnUse"
       id="clipPath924">
      <path
         d="M 0,0 H 595.276 V 3203.15 H 0 Z"
         id="path922" />
    </clipPath>
    <clipPath
       clipPathUnits="userSpaceOnUse"
       id="clipPath940">
      <path
         d="M 0,0 H 595.276 V 3203.15 H 0 Z"
         id="path938" />
    </clipPath>
  </defs>
  <sodipodi:namedview
     id="namedview4"
     pagecolor="#ffffff"
     bordercolor="#000000"
     borderopacity="0.25"
     inkscape:showpageshadow="2"
     inkscape:pageopacity="0.0"
     inkscape:pagecheckerboard="0"
     inkscape:deskcolor="#d1d1d1"
     showgrid="false" />
  <g
     id="g10"
     inkscape:groupmode="layer"
     inkscape:label="Page 1"
     transform="matrix(1.3333333,0,0,-1.3333333,-32.509464,3817.8544)">
    <g
       id="g346">
      <g
         id="g348"
         clip-path="url(#clipPath352)">
        <g
           id="g354"
           transform="translate(432.104,2826.9644)">
          <path
             d="m 0,0 19.269,-12.271 c 0.488,0.718 0.99,1.426 1.51,2.12 L 2.669,3.748 C 1.745,2.525 0.854,1.275 0,0"
             style="fill:#000000;fill-opacity:1;fill-rule:nonzero;stroke:none"
             id="path356" />
        </g>
        <g
           id="g358"
           transform="translate(444.4531,2800.9204)">
          <path
             d="M 0,0 C 0.283,0.821 0.586,1.634 0.906,2.438 L -20.195,11.17 C -20.764,9.753 -21.293,8.317 -21.783,6.862 Z"
             style="fill:#000000;fill-opacity:1;fill-rule:nonzero;stroke:none"
             id="path360" />
        </g>
      </g>
    </g>
    <g
       id="g362"
       transform="translate(273.8522,2793.0505)">
      <path
         d="M 0,0 23.009,-0.996 16.275,15.294 -7.62,18.43 Z"
         style="fill:#000000;fill-opacity:1;fill-rule:nonzero;stroke:none"
         id="path364" />
    </g>
    <g
       id="g366"
       transform="translate(352.9065,2815.8936)">
      <path
         d="M 0,0 20.704,-4.581 24.1,3.635 4.107,9.933 Z"
         style="fill:#000000;fill-opacity:1;fill-rule:nonzero;stroke:none"
         id="path368" />
    </g>
    <g
       id="g370">
      <g
         id="g372"
         clip-path="url(#clipPath376)">
        <g
           id="g378"
           transform="translate(442.9762,2795.9639)">
          <path
             d="m 0,0 c 0.214,0.862 0.451,1.715 0.703,2.561 l -21.787,6.863 c -0.448,-1.478 -0.845,-2.978 -1.21,-4.491 z"
             style="fill:#000000;fill-opacity:1;fill-rule:nonzero;stroke:none"
             id="path380" />
        </g>
      </g>
    </g>
    <g
       id="g382"
       transform="translate(377.1659,2810.5254)">
      <path
         d="m 0,0 23.489,-5.197 v 6.75 L 0,8.952 Z"
         style="fill:#000000;fill-opacity:1;fill-rule:nonzero;stroke:none"
         id="path384" />
    </g>
    <g
       id="g386">
      <g
         id="g388"
         clip-path="url(#clipPath392)">
        <g
           id="g394"
           transform="translate(448.6394,2810.2671)">
          <path
             d="m 0,0 c 0.438,0.782 0.891,1.555 1.363,2.315 l -19.258,12.263 c -0.825,-1.32 -1.625,-2.659 -2.376,-4.029 z"
             style="fill:#000000;fill-opacity:1;fill-rule:nonzero;stroke:none"
             id="path396" />
        </g>
      </g>
    </g>
    <g
       id="g398"
       transform="translate(358.3562,2774.4141)">
      <path
         d="m 0,0 -23.012,-1.005 -5.274,-12.758 23.894,3.137 z"
         style="fill:#000000;fill-opacity:1;fill-rule:nonzero;stroke:none"
         id="path400" />
    </g>
    <g
       id="g402"
       transform="translate(310.8845,2758.1331)">
      <path
         d="m 0,0 -5.77,13.957 -22.196,-0.969 6.532,-15.801 z"
         style="fill:#000000;fill-opacity:1;fill-rule:nonzero;stroke:none"
         id="path404" />
    </g>
    <g
       id="g406"
       transform="translate(347.99,2749.3379)">
      <path
         d="M 0,0 4.864,11.765 -19.03,8.629 -24.872,-5.504 Z"
         style="fill:#000000;fill-opacity:1;fill-rule:nonzero;stroke:none"
         id="path408" />
    </g>
    <g
       id="g410">
      <g
         id="g412"
         clip-path="url(#clipPath416)">
        <g
           id="g418"
           transform="translate(441.9492,2772.7983)">
          <path
             d="m 0,0 -22.643,-2.973 c 0.226,-1.524 0.491,-3.036 0.801,-4.531 L 0.459,-2.571 C 0.287,-1.72 0.135,-0.863 0,0"
             style="fill:#000000;fill-opacity:1;fill-rule:nonzero;stroke:none"
             id="path420" />
        </g>
        <g
           id="g422"
           transform="translate(443.6761,2765.187)">
          <path
             d="m 0,0 c -0.255,0.855 -0.493,1.716 -0.708,2.586 l -22.294,-4.933 c 0.366,-1.52 0.765,-3.027 1.214,-4.513 z"
             style="fill:#000000;fill-opacity:1;fill-rule:nonzero;stroke:none"
             id="path424" />
        </g>
      </g>
    </g>
    <g
       id="g426"
       transform="translate(400.6545,2767.3774)">
      <path
         d="m 0,0 -23.489,-3.083 v -8.502 L 0,-6.388 Z"
         style="fill:#000000;fill-opacity:1;fill-rule:nonzero;stroke:none"
         id="path428" />
    </g>
    <g
       id="g430">
      <g
         id="g432"
         clip-path="url(#clipPath436)">
        <g
           id="g438"
           transform="translate(446.3384,2805.678)">
          <path
             d="m 0,0 c 0.358,0.798 0.732,1.586 1.122,2.365 l -20.253,10.54 c -0.697,-1.369 -1.359,-2.758 -1.977,-4.171 z"
             style="fill:#000000;fill-opacity:1;fill-rule:nonzero;stroke:none"
             id="path440" />
        </g>
      </g>
    </g>
    <g
       id="g442"
       transform="translate(400.6545,2741.8716)">
      <path
         d="M 0,0 V 7.13 L -23.489,-0.266 V -9.723 Z"
         style="fill:#000000;fill-opacity:1;fill-rule:nonzero;stroke:none"
         id="path444" />
    </g>
    <g
       id="g446">
      <g
         id="g448"
         clip-path="url(#clipPath452)">
        <g
           id="g454"
           transform="translate(444.449,2762.791)">
          <path
             d="m 0,0 -21.784,-6.859 c 0.489,-1.45 1.015,-2.882 1.582,-4.294 l 21.1,8.735 C 0.582,-1.62 0.281,-0.814 0,0"
             style="fill:#000000;fill-opacity:1;fill-rule:nonzero;stroke:none"
             id="path456" />
        </g>
      </g>
    </g>
    <g
       id="g458"
       transform="translate(400.6545,2758.4109)">
      <path
         d="m 0,0 -23.489,-5.197 v -8.969 L 0,-6.77 Z"
         style="fill:#000000;fill-opacity:1;fill-rule:nonzero;stroke:none"
         id="path460" />
    </g>
    <g
       id="g462">
      <g
         id="g464"
         clip-path="url(#clipPath468)">
        <g
           id="g470"
           transform="translate(452.8457,2746.9365)">
          <path
             d="m 0,0 c -0.536,0.717 -1.054,1.448 -1.559,2.191 l -19.263,-12.267 c 0.867,-1.299 1.768,-2.574 2.707,-3.819 z"
             style="fill:#000000;fill-opacity:1;fill-rule:nonzero;stroke:none"
             id="path472" />
        </g>
        <g
           id="g474"
           transform="translate(546.9005,2815.9397)">
          <path
             d="m 0,0 c 0.483,-0.67 0.953,-1.349 1.407,-2.04 l 19.266,12.271 c -0.816,1.249 -1.659,2.478 -2.54,3.678 z"
             style="fill:#000000;fill-opacity:1;fill-rule:nonzero;stroke:none"
             id="path476" />
        </g>
        <g
           id="g478"
           transform="translate(449.9232,2751.2429)">
          <path
             d="M 0,0 C -0.453,0.732 -0.886,1.477 -1.306,2.23 L -21.578,-8.317 c 0.734,-1.341 1.514,-2.652 2.32,-3.945 z"
             style="fill:#000000;fill-opacity:1;fill-rule:nonzero;stroke:none"
             id="path480" />
        </g>
        <g
           id="g482"
           transform="translate(447.4416,2755.6982)">
          <path
             d="m 0,0 c -0.39,0.775 -0.761,1.56 -1.116,2.355 l -21.109,-8.738 c 0.618,-1.408 1.276,-2.791 1.97,-4.156 z"
             style="fill:#000000;fill-opacity:1;fill-rule:nonzero;stroke:none"
             id="path484" />
        </g>
      </g>
    </g>
    <g
       id="g486"
       transform="translate(218.3718,2770.8237)">
      <path
         d="m 0,0 v 22.108 l -23.489,1.017 v -24.15 z"
         style="fill:#000000;fill-opacity:1;fill-rule:nonzero;stroke:none"
         id="path488" />
    </g>
    <g
       id="g490"
       transform="translate(369.1441,2800.5085)">
      <path
         d="M 0,0 3.489,8.441 -17.214,13.022 -21.433,2.814 Z"
         style="fill:#000000;fill-opacity:1;fill-rule:nonzero;stroke:none"
         id="path492" />
    </g>
    <g
       id="g494"
       transform="translate(262.7473,2793.531)">
      <path
         d="m 0,0 v 18.407 l -23.488,3.084 V 1.017 Z"
         style="fill:#000000;fill-opacity:1;fill-rule:nonzero;stroke:none"
         id="path496" />
    </g>
    <g
       id="g498"
       transform="translate(311.88,2755.7246)">
      <path
         d="m 0,0 -21.434,-2.813 6.176,-14.94 20.704,4.582 z"
         style="fill:#000000;fill-opacity:1;fill-rule:nonzero;stroke:none"
         id="path500" />
    </g>
    <g
       id="g502"
       transform="translate(239.2598,2817.5615)">
      <path
         d="M 0,0 23.488,-3.084 V 2.351 L 25.864,-3.396 49.757,-6.533 42.285,11.543 0,20.9 Z"
         style="fill:#000000;fill-opacity:1;fill-rule:nonzero;stroke:none"
         id="path504" />
    </g>
    <g
       id="g506"
       transform="translate(262.7473,2730.4773)">
      <path
         d="M 0,0 V 18.798 L -23.488,15.715 V -5.197 Z"
         style="fill:#000000;fill-opacity:1;fill-rule:nonzero;stroke:none"
         id="path508" />
    </g>
    <g
       id="g510"
       transform="translate(262.7473,2770.2405)">
      <path
         d="M 0,0 -23.488,-1.025 V -21.509 L 0,-18.426 Z"
         style="fill:#000000;fill-opacity:1;fill-rule:nonzero;stroke:none"
         id="path512" />
    </g>
    <g
       id="g514"
       transform="translate(341.2033,2732.9214)">
      <path
         d="m 0,0 5.613,13.578 -24.872,-5.504 -1.988,-4.807 -1.654,4.002 -20.703,-4.581 6.006,-14.526 z"
         style="fill:#000000;fill-opacity:1;fill-rule:nonzero;stroke:none"
         id="path516" />
    </g>
    <g
       id="g518"
       transform="translate(400.6545,2846.9917)">
      <path
         d="m 0,0 v 9.905 l -5.257,4.034 h -1.275 -15.357 z"
         style="fill:#000000;fill-opacity:1;fill-rule:nonzero;stroke:none"
         id="path520" />
    </g>
    <g
       id="g522"
       transform="translate(400.6545,2835.239)">
      <path
         d="m 0,0 v 8.768 l -26.576,16.923 h -2.553 l -3.583,-8.666 z"
         style="fill:#000000;fill-opacity:1;fill-rule:nonzero;stroke:none"
         id="path524" />
    </g>
    <g
       id="g526">
      <g
         id="g528"
         clip-path="url(#clipPath532)">
        <g
           id="g534"
           transform="translate(457.8648,2822.6074)">
          <path
             d="m 0,0 c 0.631,0.645 1.276,1.274 1.935,1.89 l -15.424,16.833 c -1.148,-1.066 -2.26,-2.168 -3.344,-3.298 z"
             style="fill:#000000;fill-opacity:1;fill-rule:nonzero;stroke:none"
             id="path536" />
        </g>
        <g
           id="g538"
           transform="translate(542.1383,2821.7217)">
          <path
             d="m 0,0 16.838,15.429 c -1.033,1.11 -2.096,2.191 -3.191,3.241 L -1.784,1.829 C -1.174,1.234 -0.582,0.622 0,0"
             style="fill:#000000;fill-opacity:1;fill-rule:nonzero;stroke:none"
             id="path540" />
        </g>
        <g
           id="g542"
           transform="translate(175.0501,2740.3032)">
          <path
             d="m 0,0 c 0.624,1.032 1.233,2.073 1.812,3.134 l -20.263,10.562 c -3.934,-7.1 -9.31,-13.289 -15.725,-18.182 z"
             style="fill:#000000;fill-opacity:1;fill-rule:nonzero;stroke:none"
             id="path544" />
        </g>
        <g
           id="g546"
           transform="translate(50.9198,2802.6997)">
          <path
             d="m 0,0 c 5.531,14.748 16.859,26.652 31.212,32.952 l -33.52,4.401 c -10.035,-9.88 -17.498,-22.352 -21.33,-36.33 z"
             style="fill:#000000;fill-opacity:1;fill-rule:nonzero;stroke:none"
             id="path548" />
        </g>
        <g
           id="g550"
           transform="translate(550.6305,2810.0754)">
          <path
             d="m 0,0 20.263,10.562 c -0.628,1.153 -1.294,2.284 -1.976,3.404 L -0.978,1.696 C -0.643,1.137 -0.317,0.572 0,0"
             style="fill:#000000;fill-opacity:1;fill-rule:nonzero;stroke:none"
             id="path552" />
        </g>
      </g>
    </g>
    <g
       id="g554"
       transform="translate(218.3718,2768.304)">
      <path
         d="M 0,0 -23.489,-1.025 V -25.397 L 0,-22.314 Z"
         style="fill:#000000;fill-opacity:1;fill-rule:nonzero;stroke:none"
         id="path556" />
    </g>
    <g
       id="g558">
      <g
         id="g560"
         clip-path="url(#clipPath564)">
        <g
           id="g566"
           transform="translate(47.2151,2782.2236)">
          <path
             d="m 0,0 c 0,6.281 1.005,12.325 2.841,17.993 l -23.414,1.014 c -1.464,-6.1 -2.26,-12.459 -2.26,-19.007 0,-6.817 0.851,-13.434 2.434,-19.761 l 23.492,1.025 C 1.098,-12.853 0,-6.557 0,0"
             style="fill:#000000;fill-opacity:1;fill-rule:nonzero;stroke:none"
             id="path568" />
        </g>
      </g>
    </g>
    <g
       id="g570"
       transform="translate(342.2395,2790.0906)">
      <path
         d="M 0,0 22.201,-0.961 25.909,8.01 4.476,10.824 Z"
         style="fill:#000000;fill-opacity:1;fill-rule:nonzero;stroke:none"
         id="path572" />
    </g>
    <g
       id="g574">
      <g
         id="g576"
         clip-path="url(#clipPath580)">
        <g
           id="g582"
           transform="translate(549.7448,2752.0854)">
          <path
             d="m 0,0 19.268,-12.27 c 0.648,1.069 1.282,2.149 1.881,3.249 L 0.886,1.539 C 0.598,1.021 0.302,0.509 0,0"
             style="fill:#000000;fill-opacity:1;fill-rule:nonzero;stroke:none"
             id="path584" />
        </g>
        <g
           id="g586"
           transform="translate(542.1637,2742.0056)">
          <path
             d="m 0,0 c -0.574,-0.613 -1.157,-1.216 -1.756,-1.803 l 15.432,-16.842 c 1.085,1.043 2.138,2.117 3.163,3.218 z"
             style="fill:#000000;fill-opacity:1;fill-rule:nonzero;stroke:none"
             id="path588" />
        </g>
      </g>
    </g>
    <g
       id="g590"
       transform="translate(218.3718,2718.0803)">
      <path
         d="m 0,0 -23.489,-5.197 v -9.454 H 0 Z"
         style="fill:#000000;fill-opacity:1;fill-rule:nonzero;stroke:none"
         id="path592" />
    </g>
    <g
       id="g594">
      <g
         id="g596"
         clip-path="url(#clipPath600)">
        <g
           id="g602"
           transform="translate(51.2119,2761.0073)">
          <path
             d="m 0,0 -23.717,-1.035 c 3.974,-13.962 11.584,-26.384 21.751,-36.182 l 34.119,4.478 C 17.462,-26.691 5.792,-14.822 0,0"
             style="fill:#000000;fill-opacity:1;fill-rule:nonzero;stroke:none"
             id="path604" />
        </g>
        <g
           id="g606"
           transform="translate(457.8333,2741.127)">
          <path
             d="m 0,0 -16.837,-15.422 c 1.079,-1.124 2.184,-2.222 3.325,-3.283 L 1.914,-1.873 C 1.262,-1.263 0.624,-0.64 0,0"
             style="fill:#000000;fill-opacity:1;fill-rule:nonzero;stroke:none"
             id="path608" />
        </g>
        <g
           id="g610"
           transform="translate(441.3843,2778.0378)">
          <path
             d="m 0,0 -22.818,-0.996 c 0.094,-1.587 0.239,-3.158 0.422,-4.719 L 0.24,-2.744 C 0.138,-1.835 0.06,-0.92 0,0"
             style="fill:#000000;fill-opacity:1;fill-rule:nonzero;stroke:none"
             id="path612" />
        </g>
        <g
           id="g614"
           transform="translate(419.3108,2793.9216)">
          <path
             d="m 0,0 22.646,-2.973 c 0.136,0.859 0.286,1.714 0.459,2.561 L 0.806,4.522 C 0.496,3.029 0.228,1.522 0,0"
             style="fill:#000000;fill-opacity:1;fill-rule:nonzero;stroke:none"
             id="path616" />
        </g>
      </g>
    </g>
    <g
       id="g618"
       transform="translate(400.6545,2769.9165)">
      <path
         d="M 0,0 V 6.344 L -23.489,5.318 v -8.401 z"
         style="fill:#000000;fill-opacity:1;fill-rule:nonzero;stroke:none"
         id="path620" />
    </g>
    <g
       id="g622"
       transform="translate(377.1659,2799.4553)">
      <path
         d="M 0,0 23.489,-3.084 V 3.295 L 0,8.491 Z"
         style="fill:#000000;fill-opacity:1;fill-rule:nonzero;stroke:none"
         id="path624" />
    </g>
    <g
       id="g626"
       transform="translate(400.6545,2787.562)">
      <path
         d="M 0,0 V 6.271 L -23.489,9.354 V 1.017 Z"
         style="fill:#000000;fill-opacity:1;fill-rule:nonzero;stroke:none"
         id="path628" />
    </g>
    <g
       id="g630">
      <g
         id="g632"
         clip-path="url(#clipPath636)">
        <g
           id="g638"
           transform="translate(418.4708,2779.5576)">
          <path
             d="m 0,0 22.809,0.996 c -0.009,0.433 -0.033,0.862 -0.033,1.297 0,0.48 0.025,0.956 0.037,1.434 L 0.003,4.713 C -0.02,3.907 -0.058,3.105 -0.058,2.293 -0.058,1.524 -0.021,0.764 0,0"
             style="fill:#000000;fill-opacity:1;fill-rule:nonzero;stroke:none"
             id="path640" />
        </g>
      </g>
    </g>
    <g
       id="g642"
       transform="translate(400.6545,2785.0425)">
      <path
         d="M 0,0 -23.489,1.017 V -7.288 L 0,-6.262 Z"
         style="fill:#000000;fill-opacity:1;fill-rule:nonzero;stroke:none"
         id="path644" />
    </g>
    <g
       id="g646"
       transform="translate(297.9217,2789.4885)">
      <path
         d="m 0,0 -23.008,0.996 6.982,-16.888 22.196,0.969 z"
         style="fill:#000000;fill-opacity:1;fill-rule:nonzero;stroke:none"
         id="path648" />
    </g>
    <g
       id="g650"
       transform="translate(239.2598,2771.7354)">
      <path
         d="M 0,0 23.488,1.025 V 19.276 L 0,20.293 Z"
         style="fill:#000000;fill-opacity:1;fill-rule:nonzero;stroke:none"
         id="path652" />
    </g>
    <g
       id="g654"
       transform="translate(218.3718,2817.7646)">
      <path
         d="m 0,0 -23.489,3.084 v -24.38 L 0,-22.313 Z"
         style="fill:#000000;fill-opacity:1;fill-rule:nonzero;stroke:none"
         id="path656" />
    </g>
    <g
       id="g658"
       transform="translate(336.4046,2775.9758)">
      <path
         d="m 0,0 23.013,1.004 3.999,9.674 -22.2,0.961 z"
         style="fill:#000000;fill-opacity:1;fill-rule:nonzero;stroke:none"
         id="path660" />
    </g>
    <g
       id="g662">
      <g
         id="g664"
         clip-path="url(#clipPath668)">
        <g
           id="g670"
           transform="translate(418.5764,2786.7866)">
          <path
             d="m 0,0 22.819,-0.988 c 0.059,0.89 0.135,1.776 0.234,2.655 L 0.418,4.638 C 0.237,3.104 0.093,1.559 0,0"
             style="fill:#000000;fill-opacity:1;fill-rule:nonzero;stroke:none"
             id="path672" />
        </g>
        <g
           id="g674"
           transform="translate(156.5989,2810.4492)">
          <path
             d="m 0,0 20.263,10.561 c -0.437,0.803 -0.888,1.596 -1.352,2.382 L -14.65,17.349 C -8.707,12.594 -3.713,6.701 0,0"
             style="fill:#000000;fill-opacity:1;fill-rule:nonzero;stroke:none"
             id="path676" />
        </g>
        <g
           id="g678"
           transform="translate(469.9722,2832.106)">
          <path
             d="M 0,0 C 0.731,0.432 1.471,0.851 2.223,1.252 L -8.315,21.507 c -1.342,-0.711 -2.668,-1.449 -3.964,-2.231 z"
             style="fill:#000000;fill-opacity:1;fill-rule:nonzero;stroke:none"
             id="path680" />
        </g>
        <g
           id="g682"
           transform="translate(472.2447,2730.3179)">
          <path
             d="m 0,0 c -0.749,0.398 -1.485,0.813 -2.213,1.243 l -12.279,-19.277 c 1.292,-0.778 2.612,-1.512 3.949,-2.219 z"
             style="fill:#000000;fill-opacity:1;fill-rule:nonzero;stroke:none"
             id="path684" />
        </g>
        <g
           id="g686"
           transform="translate(491.5339,2724.0837)">
          <path
             d="m 0,0 c -0.838,0.116 -1.669,0.252 -2.496,0.402 l -4.939,-22.31 c 1.473,-0.284 2.962,-0.524 4.463,-0.727 z"
             style="fill:#000000;fill-opacity:1;fill-rule:nonzero;stroke:none"
             id="path688" />
        </g>
        <g
           id="g690"
           transform="translate(463.5991,2735.9546)">
          <path
             d="m 0,0 c -0.67,0.526 -1.33,1.066 -1.976,1.621 l -15.43,-16.836 c 1.143,-0.998 2.313,-1.965 3.512,-2.9 z"
             style="fill:#000000;fill-opacity:1;fill-rule:nonzero;stroke:none"
             id="path692" />
        </g>
        <g
           id="g694"
           transform="translate(476.8412,2728.1165)">
          <path
             d="m 0,0 c -0.793,0.336 -1.577,0.694 -2.352,1.064 l -10.547,-20.263 c 1.369,-0.67 2.754,-1.309 4.164,-1.902 z"
             style="fill:#000000;fill-opacity:1;fill-rule:nonzero;stroke:none"
             id="path696" />
        </g>
        <g
           id="g698"
           transform="translate(543.8215,2819.8496)">
          <path
             d="m 0,0 c 0.534,-0.622 1.058,-1.253 1.567,-1.897 l 18.126,13.903 c -0.917,1.171 -1.873,2.309 -2.851,3.427 z"
             style="fill:#000000;fill-opacity:1;fill-rule:nonzero;stroke:none"
             id="path700" />
        </g>
        <g
           id="g702"
           transform="translate(481.653,2726.3369)">
          <path
             d="m 0,0 c -0.832,0.268 -1.656,0.551 -2.47,0.855 l -8.734,-21.101 c 1.43,-0.55 2.874,-1.067 4.341,-1.537 z"
             style="fill:#000000;fill-opacity:1;fill-rule:nonzero;stroke:none"
             id="path704" />
        </g>
        <g
           id="g706"
           transform="translate(454.401,2744.9565)">
          <path
             d="m 0,0 -18.114,-13.894 c 0.964,-1.201 1.955,-2.381 2.985,-3.524 L 1.711,-1.994 C 1.127,-1.341 0.555,-0.677 0,0"
             style="fill:#000000;fill-opacity:1;fill-rule:nonzero;stroke:none"
             id="path708" />
        </g>
        <g
           id="g710"
           transform="translate(467.891,2732.8867)">
          <path
             d="M 0,0 C -0.772,0.501 -1.532,1.02 -2.279,1.556 L -16.183,-16.57 c 1.277,-0.934 2.586,-1.826 3.918,-2.686 z"
             style="fill:#000000;fill-opacity:1;fill-rule:nonzero;stroke:none"
             id="path712" />
        </g>
      </g>
    </g>
    <g
       id="g714"
       transform="translate(323.9701,2703.4304)">
      <path
         d="M 0,0 H 5.041 L 8.063,7.311 -9.596,0 h 1.569 z"
         style="fill:#000000;fill-opacity:1;fill-rule:nonzero;stroke:none"
         id="path716" />
    </g>
    <g
       id="g718"
       transform="translate(400.6545,2739.1472)">
      <path
         d="M 0,0 -23.489,-9.723 V -20.011 L 0,-7.791 Z"
         style="fill:#000000;fill-opacity:1;fill-rule:nonzero;stroke:none"
         id="path720" />
    </g>
    <g
       id="g722"
       transform="translate(339.9488,2729.8872)">
      <path
         d="m 0,0 -35.379,-11.139 5.878,-14.218 22.945,9.498 z"
         style="fill:#000000;fill-opacity:1;fill-rule:nonzero;stroke:none"
         id="path724" />
    </g>
    <g
       id="g726"
       transform="translate(400.6545,2706.9033)">
      <path
         d="M 0,0 V 9.982 L -21.133,-3.474 h 16.604 z"
         style="fill:#000000;fill-opacity:1;fill-rule:nonzero;stroke:none"
         id="path728" />
    </g>
    <g
       id="g730"
       transform="translate(400.6545,2719.8701)">
      <path
         d="M 0,0 V 8.649 L -23.489,-3.572 v -11.385 z"
         style="fill:#000000;fill-opacity:1;fill-rule:nonzero;stroke:none"
         id="path732" />
    </g>
    <g
       id="g734"
       transform="translate(262.7473,2705.5779)">
      <path
         d="M 0,0 -6.825,-2.148 H 0 Z"
         style="fill:#000000;fill-opacity:1;fill-rule:nonzero;stroke:none"
         id="path736" />
    </g>
    <g
       id="g738"
       transform="translate(400.2606,2703.429)">
      <path
         d="M 0,0 H 0.394 V 0.302 Z"
         style="fill:#000000;fill-opacity:1;fill-rule:nonzero;stroke:none"
         id="path740" />
    </g>
    <g
       id="g742">
      <g
         id="g744"
         clip-path="url(#clipPath748)">
        <g
           id="g750"
           transform="translate(545.4357,2745.8098)">
          <path
             d="m 0,0 c -0.516,-0.656 -1.047,-1.298 -1.59,-1.931 l 16.843,-15.431 c 0.987,1.127 1.948,2.275 2.871,3.456 z"
             style="fill:#000000;fill-opacity:1;fill-rule:nonzero;stroke:none"
             id="path752" />
        </g>
        <g
           id="g754"
           transform="translate(548.4089,2749.9514)">
          <path
             d="m 0,0 c -0.472,-0.72 -0.961,-1.429 -1.464,-2.127 l 18.133,-13.914 c 0.902,1.23 1.763,2.491 2.596,3.773 z"
             style="fill:#000000;fill-opacity:1;fill-rule:nonzero;stroke:none"
             id="path756" />
        </g>
        <g
           id="g758"
           transform="translate(538.5719,2738.4788)">
          <path
             d="M 0,0 C -0.617,-0.556 -1.248,-1.096 -1.889,-1.625 L 12.018,-19.76 c 1.165,0.942 2.3,1.919 3.41,2.923 z"
             style="fill:#000000;fill-opacity:1;fill-rule:nonzero;stroke:none"
             id="path760" />
        </g>
        <g
           id="g762"
           transform="translate(534.7087,2735.2913)">
          <path
             d="m 0,0 c -0.696,-0.527 -1.404,-1.039 -2.123,-1.534 l 12.272,-19.267 c 1.276,0.86 2.528,1.749 3.75,2.678 z"
             style="fill:#000000;fill-opacity:1;fill-rule:nonzero;stroke:none"
             id="path764" />
        </g>
        <g
           id="g766"
           transform="translate(499.2032,2840.1733)">
          <path
             d="m 0,0 c 0.126,0.001 0.251,0.01 0.377,0.01 0.76,0 1.515,-0.018 2.267,-0.047 l 0.989,22.81 c -1.081,0.043 -2.165,0.071 -3.256,0.071 -0.46,0 -0.914,-0.027 -1.372,-0.035 z"
             style="fill:#000000;fill-opacity:1;fill-rule:nonzero;stroke:none"
             id="path768" />
        </g>
        <g
           id="g770"
           transform="translate(501.7793,2723.5605)">
          <path
             d="m 0,0 c -0.73,-0.026 -1.463,-0.042 -2.199,-0.042 -0.151,0 -0.299,0.01 -0.449,0.011 L -3.635,-22.84 c 0.48,-0.008 0.954,-0.037 1.436,-0.037 1.07,0 2.134,0.025 3.194,0.067 z"
             style="fill:#000000;fill-opacity:1;fill-rule:nonzero;stroke:none"
             id="path772" />
        </g>
        <g
           id="g774"
           transform="translate(526.1434,2729.9084)">
          <path
             d="m 0,0 c -0.749,-0.384 -1.509,-0.748 -2.277,-1.099 l 8.738,-21.117 c 1.38,0.617 2.742,1.266 4.081,1.956 z"
             style="fill:#000000;fill-opacity:1;fill-rule:nonzero;stroke:none"
             id="path776" />
        </g>
        <g
           id="g778"
           transform="translate(530.4789,2732.3789)">
          <path
             d="M 0,0 C -0.698,-0.438 -1.405,-0.861 -2.122,-1.27 L 8.425,-21.542 c 1.305,0.724 2.585,1.488 3.845,2.28 z"
             style="fill:#000000;fill-opacity:1;fill-rule:nonzero;stroke:none"
             id="path780" />
        </g>
        <g
           id="g782"
           transform="translate(516.8112,2726.1123)">
          <path
             d="m 0,0 c -0.821,-0.253 -1.65,-0.488 -2.486,-0.705 l 4.939,-22.317 c 1.487,0.371 2.955,0.788 4.408,1.239 z"
             style="fill:#000000;fill-opacity:1;fill-rule:nonzero;stroke:none"
             id="path784" />
        </g>
        <g
           id="g786"
           transform="translate(509.8783,2701.3418)">
          <path
             d="M 0,0 -2.972,22.64 C -3.838,22.532 -4.709,22.441 -5.586,22.371 L -4.589,-0.46 C -3.045,-0.354 -1.518,-0.192 0,0"
             style="fill:#000000;fill-opacity:1;fill-rule:nonzero;stroke:none"
             id="path788" />
        </g>
        <g
           id="g790"
           transform="translate(511.8764,2724.8213)">
          <path
             d="m 0,0 c -0.821,-0.177 -1.647,-0.335 -2.48,-0.477 l 2.974,-22.647 c 1.494,0.237 2.975,0.509 4.441,0.826 z"
             style="fill:#000000;fill-opacity:1;fill-rule:nonzero;stroke:none"
             id="path792" />
        </g>
        <g
           id="g794"
           transform="translate(496.6139,2723.593)">
          <path
             d="m 0,0 c -0.867,0.044 -1.725,0.114 -2.581,0.194 l -2.975,-22.656 c 1.511,-0.158 3.035,-0.274 4.569,-0.348 z"
             style="fill:#000000;fill-opacity:1;fill-rule:nonzero;stroke:none"
             id="path796" />
        </g>
        <g
           id="g798"
           transform="translate(521.5551,2727.8088)">
          <path
             d="m 0,0 c -0.777,-0.317 -1.559,-0.623 -2.353,-0.906 l 6.862,-21.788 c 1.426,0.491 2.835,1.022 4.224,1.59 z"
             style="fill:#000000;fill-opacity:1;fill-rule:nonzero;stroke:none"
             id="path800" />
        </g>
        <g
           id="g802"
           transform="translate(486.5717,2724.9919)">
          <path
             d="m 0,0 c -0.842,0.192 -1.677,0.4 -2.505,0.628 l -6.864,-21.787 c 1.462,-0.418 2.939,-0.797 4.433,-1.134 z"
             style="fill:#000000;fill-opacity:1;fill-rule:nonzero;stroke:none"
             id="path804" />
        </g>
        <g
           id="g806"
           transform="translate(491.0371,2862.5669)">
          <path
             d="m 0,0 2.975,-22.655 c 0.886,0.084 1.777,0.154 2.674,0.198 L 4.654,0.352 C 3.09,0.278 1.539,0.161 0,0"
             style="fill:#000000;fill-opacity:1;fill-rule:nonzero;stroke:none"
             id="path808" />
        </g>
        <g
           id="g810"
           transform="translate(488.9812,2839.2048)">
          <path
             d="M 0,0 C 0.838,0.154 1.682,0.292 2.532,0.41 L -0.44,23.045 C -1.952,22.839 -3.453,22.598 -4.938,22.31 Z"
             style="fill:#000000;fill-opacity:1;fill-rule:nonzero;stroke:none"
             id="path812" />
        </g>
        <g
           id="g814"
           transform="translate(504.3604,2839.9819)">
          <path
             d="m 0,0 c 0.861,-0.07 1.716,-0.158 2.565,-0.265 l 2.973,22.639 c -1.505,0.191 -3.02,0.351 -4.549,0.458 z"
             style="fill:#000000;fill-opacity:1;fill-rule:nonzero;stroke:none"
             id="path816" />
        </g>
        <g
           id="g818"
           transform="translate(479.1308,2836.4885)">
          <path
             d="M 0,0 C 0.821,0.308 1.653,0.594 2.491,0.865 L -4.37,22.648 c -1.474,-0.473 -2.927,-0.993 -4.363,-1.547 z"
             style="fill:#000000;fill-opacity:1;fill-rule:nonzero;stroke:none"
             id="path820" />
        </g>
        <g
           id="g822"
           transform="translate(509.4162,2839.353)">
          <path
             d="M 0,0 C 0.838,-0.142 1.67,-0.304 2.496,-0.481 L 7.431,21.817 C 5.96,22.135 4.473,22.409 2.973,22.646 Z"
             style="fill:#000000;fill-opacity:1;fill-rule:nonzero;stroke:none"
             id="path824" />
        </g>
        <g
           id="g826"
           transform="translate(484.0341,2838.0718)">
          <path
             d="m 0,0 c 0.82,0.227 1.648,0.433 2.481,0.624 l -4.934,22.293 c -1.485,-0.336 -2.955,-0.713 -4.409,-1.13 z"
             style="fill:#000000;fill-opacity:1;fill-rule:nonzero;stroke:none"
             id="path828" />
        </g>
        <g
           id="g830"
           transform="translate(519.1831,2836.8054)">
          <path
             d="m 0,0 c 0.81,-0.289 1.609,-0.602 2.402,-0.926 l 8.734,21.103 c -1.405,0.576 -2.83,1.112 -4.273,1.61 z"
             style="fill:#000000;fill-opacity:1;fill-rule:nonzero;stroke:none"
             id="path832" />
        </g>
        <g
           id="g834"
           transform="translate(532.6517,2829.8989)">
          <path
             d="m 0,0 c 0.659,-0.455 1.309,-0.924 1.948,-1.405 l 13.906,18.119 c -1.168,0.883 -2.366,1.732 -3.582,2.552 z"
             style="fill:#000000;fill-opacity:1;fill-rule:nonzero;stroke:none"
             id="path836" />
        </g>
        <g
           id="g838"
           transform="translate(536.5768,2826.9343)">
          <path
             d="m 0,0 c 0.658,-0.541 1.305,-1.094 1.939,-1.663 l 15.428,16.837 c -1.124,1.015 -2.273,2.004 -3.453,2.956 z"
             style="fill:#000000;fill-opacity:1;fill-rule:nonzero;stroke:none"
             id="path840" />
        </g>
        <g
           id="g842"
           transform="translate(528.3732,2832.5823)">
          <path
             d="m 0,0 c 0.734,-0.418 1.459,-0.853 2.174,-1.302 l 12.268,19.261 c -1.275,0.804 -2.571,1.578 -3.893,2.312 z"
             style="fill:#000000;fill-opacity:1;fill-rule:nonzero;stroke:none"
             id="path844" />
        </g>
        <g
           id="g846"
           transform="translate(523.8955,2834.8779)">
          <path
             d="M 0,0 C 0.763,-0.35 1.521,-0.712 2.265,-1.094 L 12.808,19.165 C 11.474,19.853 10.116,20.5 8.74,21.115 Z"
             style="fill:#000000;fill-opacity:1;fill-rule:nonzero;stroke:none"
             id="path848" />
        </g>
      </g>
    </g>
    <g
       id="g850"
       transform="translate(262.7473,2727.8982)">
      <path
         d="m 0,0 -23.488,-5.197 v -19.272 h 8.281 L 0,-19.68 Z"
         style="fill:#000000;fill-opacity:1;fill-rule:nonzero;stroke:none"
         id="path852" />
    </g>
    <g
       id="g854">
      <g
         id="g856"
         clip-path="url(#clipPath860)">
        <g
           id="g862"
           transform="translate(514.3611,2838.2847)">
          <path
             d="M 0,0 C 0.817,-0.213 1.627,-0.442 2.43,-0.69 L 9.293,21.093 C 7.857,21.538 6.407,21.95 4.939,22.317 Z"
             style="fill:#000000;fill-opacity:1;fill-rule:nonzero;stroke:none"
             id="path864" />
        </g>
        <g
           id="g866"
           transform="translate(474.4388,2834.498)">
          <path
             d="m 0,0 c 0.775,0.371 1.558,0.726 2.352,1.063 l -8.735,21.104 c -1.408,-0.593 -2.792,-1.235 -4.158,-1.905 z"
             style="fill:#000000;fill-opacity:1;fill-rule:nonzero;stroke:none"
             id="path868" />
        </g>
      </g>
    </g>
    <g
       id="g870"
       transform="translate(218.3718,2820.3037)">
      <path
         d="m 0,0 v 22.78 l -23.489,5.197 V 3.084 Z"
         style="fill:#000000;fill-opacity:1;fill-rule:nonzero;stroke:none"
         id="path872" />
    </g>
    <g
       id="g874"
       transform="translate(239.2598,2841.0398)">
      <path
         d="M 0,0 41.112,-9.096 32.544,11.63 6.32,19.891 H 0 Z"
         style="fill:#000000;fill-opacity:1;fill-rule:nonzero;stroke:none"
         id="path876" />
    </g>
    <g
       id="g878">
      <g
         id="g880"
         clip-path="url(#clipPath884)">
        <g
           id="g886"
           transform="translate(87.0496,2837.5449)">
          <path
             d="m 0,0 c 5.815,1.944 12.03,3.012 18.498,3.012 11.881,0 22.927,-3.559 32.143,-9.66 l 36.105,-4.741 C 72.299,11.01 47.134,25.846 18.498,25.846 -2.525,25.846 -21.681,17.852 -36.097,4.74 Z"
             style="fill:#000000;fill-opacity:1;fill-rule:nonzero;stroke:none"
             id="path888" />
        </g>
      </g>
    </g>
    <g
       id="g890"
       transform="translate(218.3718,2845.6619)">
      <path
         d="M 0,0 V 15.269 H -23.489 V 5.197 Z"
         style="fill:#000000;fill-opacity:1;fill-rule:nonzero;stroke:none"
         id="path892" />
    </g>
    <g
       id="g894"
       transform="translate(218.3718,2743.4502)">
      <path
         d="M 0,0 -23.489,-3.083 V -27.989 L 0,-22.792 Z"
         style="fill:#000000;fill-opacity:1;fill-rule:nonzero;stroke:none"
         id="path896" />
    </g>
    <g
       id="g898">
      <g
         id="g900"
         clip-path="url(#clipPath904)">
        <g
           id="g906"
           transform="translate(465.6612,2829.2935)">
          <path
             d="m 0,0 c 0.713,0.51 1.436,1.005 2.173,1.484 l -12.266,19.255 c -1.295,-0.838 -2.568,-1.706 -3.811,-2.614 z"
             style="fill:#000000;fill-opacity:1;fill-rule:nonzero;stroke:none"
             id="path908" />
        </g>
        <g
           id="g910"
           transform="translate(173.2978,2737.5342)">
          <path
             d="m 0,0 -36.965,-4.853 c -8.935,-5.567 -19.481,-8.79 -30.785,-8.79 -5.91,0 -11.611,0.885 -16.986,2.52 l -36.921,-4.847 c 14.337,-12.749 33.212,-20.507 53.907,-20.507 28.311,0 53.226,14.503 67.75,36.477"
             style="fill:#000000;fill-opacity:1;fill-rule:nonzero;stroke:none"
             id="path912" />
        </g>
      </g>
    </g>
    <g
       id="g914"
       transform="translate(399.5325,2860.9307)">
      <path
         d="M 0,0 1.122,-0.862 V 0 Z"
         style="fill:#000000;fill-opacity:1;fill-rule:nonzero;stroke:none"
         id="path916" />
    </g>
    <g
       id="g918">
      <g
         id="g920"
         clip-path="url(#clipPath924)">
        <g
           id="g926"
           transform="translate(454.4386,2818.7922)">
          <path
             d="m 0,0 c 0.552,0.674 1.121,1.332 1.703,1.98 l -16.837,15.428 c -1.028,-1.138 -2.014,-2.313 -2.977,-3.509 z"
             style="fill:#000000;fill-opacity:1;fill-rule:nonzero;stroke:none"
             id="path928" />
        </g>
      </g>
    </g>
    <g
       id="g930"
       transform="translate(270.5488,2855.7046)">
      <path
         d="m 0,0 -2.161,5.226 h -5.64 -8.788 z"
         style="fill:#000000;fill-opacity:1;fill-rule:nonzero;stroke:none"
         id="path932" />
    </g>
    <g
       id="g934">
      <g
         id="g936"
         clip-path="url(#clipPath940)">
        <g
           id="g942"
           transform="translate(461.6792,2826.1736)">
          <path
             d="m 0,0 c 0.644,0.551 1.3,1.087 1.968,1.611 l -13.897,18.112 c -1.193,-0.93 -2.359,-1.892 -3.499,-2.886 z"
             style="fill:#000000;fill-opacity:1;fill-rule:nonzero;stroke:none"
             id="path944" />
        </g>
      </g>
    </g>
    <g
       id="g946"
       transform="translate(400.6545,2814.7178)">
      <path
         d="m 0,0 v 7.14 l -38.668,16 -4.008,-9.696 z"
         style="fill:#000000;fill-opacity:1;fill-rule:nonzero;stroke:none"
         id="path948" />
    </g>
    <g
       id="g950"
       transform="translate(400.6545,2824.5818)">
      <path
         d="m 0,0 v 7.82 l -33.678,17.526 -4.028,-9.744 z"
         style="fill:#000000;fill-opacity:1;fill-rule:nonzero;stroke:none"
         id="path952" />
    </g>
  </g>
</svg>
