<svg xmlns="http://www.w3.org/2000/svg" width="246" height="113" viewBox="0 0 246 113" fill="none">
  <g clip-path="url(#clip0_22_577)">
    <path d="M181.472 93.4449C181.332 94.6055 181.054 95.6724 180.636 96.6458C180.217 97.6192 179.615 98.4054 178.83 99.0044C178.044 99.6034 177.005 99.916 175.713 99.9404C173.635 99.9404 172.121 99.1107 171.17 97.4507C170.22 95.7911 169.745 93.3015 169.745 89.9819C169.745 86.6626 170.22 84.173 171.17 82.513C172.121 80.8534 173.635 80.0234 175.713 80.0234C177.816 80.0234 179.337 80.8534 180.274 82.513C181.212 84.173 181.681 86.6626 181.681 89.9819C181.681 91.1301 181.611 92.2843 181.472 93.4449ZM182.707 81.2588C182.048 80.0608 181.149 79.1062 180.008 78.3948C178.868 77.6835 177.436 77.3155 175.713 77.2904C172.748 77.2904 170.537 78.3701 169.079 80.5288C167.622 82.6878 166.894 85.8394 166.894 89.9819C166.894 94.1251 167.622 97.2763 169.079 99.435C170.537 101.594 172.748 102.673 175.713 102.673C178.678 102.673 180.889 101.594 182.346 99.435C183.803 97.2763 184.532 94.1251 184.532 89.9819C184.532 88.3597 184.393 86.7996 184.114 85.3021C183.835 83.8046 183.366 82.4568 182.707 81.2588Z" fill="white"/>
    <path d="M201.619 93.4449C201.48 94.6055 201.201 95.6724 200.783 96.6458C200.365 97.6192 199.763 98.4054 198.977 99.0044C198.192 99.6034 197.153 99.916 195.86 99.9404C193.782 99.9404 192.268 99.1107 191.318 97.4507C190.367 95.7911 189.892 93.3015 189.892 89.9819C189.892 86.6626 190.367 84.173 191.318 82.513C192.268 80.8534 193.782 80.0234 195.86 80.0234C197.964 80.0234 199.484 80.8534 200.422 82.513C201.359 84.173 201.828 86.6626 201.828 89.9819C201.828 91.1301 201.759 92.2843 201.619 93.4449ZM202.855 81.2588C202.196 80.0608 201.296 79.1062 200.156 78.3948C199.015 77.6835 197.583 77.3155 195.86 77.2904C192.895 77.2904 190.684 78.3701 189.227 80.5288C187.769 82.6878 187.041 85.8394 187.041 89.9819C187.041 94.1251 187.769 97.2763 189.227 99.435C190.684 101.594 192.895 102.673 195.86 102.673C198.825 102.673 201.036 101.594 202.494 99.435C203.951 97.2763 204.679 94.1251 204.679 89.9819C204.679 88.3597 204.54 86.7996 204.261 85.3021C203.982 83.8046 203.514 82.4568 202.855 81.2588Z" fill="white"/>
    <path d="M221.767 93.4449C221.627 94.6055 221.349 95.6724 220.931 96.6458C220.513 97.6192 219.91 98.4054 219.125 99.0044C218.339 99.6034 217.3 99.916 216.008 99.9404C213.93 99.9404 212.416 99.1107 211.465 97.4507C210.515 95.7911 210.04 93.3015 210.04 89.9819C210.04 86.6626 210.515 84.173 211.465 82.513C212.416 80.8534 213.93 80.0234 216.008 80.0234C218.111 80.0234 219.632 80.8534 220.57 82.513C221.507 84.173 221.976 86.6626 221.976 89.9819C221.976 91.1301 221.906 92.2843 221.767 93.4449ZM223.002 81.2588C222.343 80.0608 221.444 79.1062 220.303 78.3948C219.163 77.6835 217.731 77.3155 216.008 77.2904C213.043 77.2904 210.832 78.3701 209.375 80.5288C207.917 82.6878 207.189 85.8394 207.189 89.9819C207.189 94.1251 207.917 97.2763 209.375 99.435C210.832 101.594 213.043 102.673 216.008 102.673C218.973 102.673 221.184 101.594 222.641 99.435C224.098 97.2763 224.827 94.1251 224.827 89.9819C224.827 88.3597 224.688 86.7996 224.409 85.3021C224.13 83.8046 223.661 82.4568 223.002 81.2588Z" fill="white"/>
    <path d="M228.548 80.2856H233.87V102.374H236.721V77.5901H228.548V80.2856Z" fill="white"/>
    <path d="M103.639 102.497C103.765 102.498 103.891 102.502 104.017 102.502C104.144 102.502 104.27 102.498 104.396 102.497V74.2953H103.639V102.497Z" fill="white"/>
    <path d="M104.396 -7.5412C104.27 -7.54195 104.144 -7.54607 104.017 -7.54607C103.891 -7.54607 103.765 -7.54195 103.639 -7.5412V20.7593H104.396V-7.5412Z" fill="white"/>
    <path d="M87.3602 30.5849C87.3119 30.6545 87.261 30.72 87.2162 30.7941C87.1245 30.9458 87.0474 31.1049 86.9805 31.27L93.9643 38.1477V37.089L87.3602 30.5849Z" fill="white"/>
    <path d="M80.0512 23.3871L64.7625 8.32989C64.5819 8.5051 64.4032 8.6818 64.2253 8.85964L80.0512 24.4458V23.3871Z" fill="white"/>
    <path d="M113.786 57.669L120.886 64.6616C121.076 64.4943 121.243 64.3063 121.399 64.1079L114.183 57.0007C114.036 57.2092 113.901 57.4279 113.786 57.669Z" fill="white"/>
    <path d="M125.507 69.2106L143.234 86.6687C143.414 86.4935 143.594 86.3172 143.772 86.1397L126.05 68.6865C125.876 68.8677 125.695 69.0422 125.507 69.2106Z" fill="white"/>
    <path d="M48.1494 47.4781C48.1494 47.6174 48.1536 47.7559 48.1547 47.8948H95.5019C95.4951 47.7566 95.4913 47.6177 95.4913 47.4781C95.4913 47.3669 95.4954 47.2565 95.4996 47.146H48.1536C48.1528 47.2568 48.1494 47.3673 48.1494 47.4781Z" fill="white"/>
    <path d="M112.548 47.4781C112.548 47.6177 112.544 47.757 112.537 47.8948H159.885C159.886 47.7559 159.89 47.6174 159.89 47.4781C159.89 47.3673 159.886 47.2568 159.886 47.146H112.54C112.544 47.2565 112.548 47.3669 112.548 47.4781Z" fill="white"/>
    <path d="M114.495 36.6776V37.7363L121.416 30.9196C121.311 30.6752 121.183 30.449 121.028 30.2431L114.495 36.6776Z" fill="white"/>
    <path d="M143.815 8.85964C143.637 8.68181 143.458 8.5051 143.278 8.32989L125.77 25.5727C125.942 25.7543 126.109 25.9426 126.268 26.1406L143.815 8.85964Z" fill="white"/>
    <path d="M64.2673 86.1395C64.4452 86.3169 64.625 86.4932 64.8052 86.6685L82.9191 68.8289C82.7412 68.6511 82.5698 68.4669 82.4048 68.2767L64.2673 86.1395Z" fill="white"/>
    <path d="M87.1589 63.5991C87.2996 63.8132 87.452 64.0157 87.6231 64.2007L94.7495 57.1826C94.6241 56.9561 94.4769 56.7483 94.3123 56.554L87.1589 63.5991Z" fill="white"/>
    <path d="M10.7946 32.4025C10.7946 30.7305 11.3014 29.4325 12.3152 28.5089C13.3286 27.5857 14.5325 27.1237 15.9265 27.1237C17.2695 27.1237 18.3909 27.6044 19.2907 28.5651C20.1901 29.5261 20.6402 30.7927 20.6402 32.365V43.5964H23.4912V32.4025C23.4912 30.7305 23.9979 29.4325 25.0117 28.5089C26.0248 27.5857 27.2291 27.1237 28.623 27.1237C29.9661 27.1237 31.0875 27.6044 31.9873 28.5651C32.8867 29.5261 33.3367 30.7927 33.3367 32.365V43.5964H36.1878V32.2902C36.1878 30.7178 35.8517 29.3513 35.1804 28.1907C34.5087 27.0301 33.6408 26.138 32.5765 25.5139C31.5121 24.8902 30.3717 24.578 29.1552 24.578C27.9133 24.578 26.8489 24.8026 25.9621 25.2518C25.0745 25.7011 24.359 26.2252 23.8143 26.8242C23.2688 27.4232 22.8701 27.935 22.6169 28.3592C22.0087 27.1612 21.1659 26.2316 20.089 25.5701C19.0117 24.9089 17.8397 24.578 16.5727 24.578C15.0267 24.578 13.7848 24.9149 12.8474 25.5888C11.9096 26.2627 11.2253 26.974 10.7946 27.7227V24.8775H7.9436V43.5964H10.7946V32.4025Z" fill="white"/>
    <path d="M42.6483 37.7749C42.1161 36.6892 41.85 35.5099 41.85 34.237C41.85 32.9394 42.1161 31.7537 42.6483 30.6804C43.1805 29.6074 43.9533 28.7464 44.9672 28.0972C45.9806 27.4484 47.1845 27.1238 48.5785 27.1238C49.9975 27.1238 51.195 27.4484 52.1708 28.0972C53.1462 28.7464 53.8871 29.6074 54.3946 30.6804C54.9013 31.7537 55.1548 32.9394 55.1548 34.237C55.1548 35.5099 54.9013 36.6892 54.3946 37.7749C53.8871 38.8606 53.1462 39.728 52.1708 40.3768C51.195 41.026 49.9975 41.3502 48.5785 41.3502C47.1845 41.3502 45.9806 41.026 44.9672 40.3768C43.9533 39.728 43.1805 38.8606 42.6483 37.7749ZM52.2468 42.9975C53.3743 42.3985 54.2931 41.5999 55.0028 40.6015V43.5965H57.8538V24.8775H55.0028V27.91C54.2931 26.8868 53.3743 26.0755 52.2468 25.4765C51.1189 24.8775 49.7694 24.578 48.1983 24.578C46.3482 24.578 44.7326 25.0085 43.3516 25.8696C41.9702 26.7307 40.8997 27.8913 40.1394 29.3513C39.3792 30.8114 38.999 32.44 38.999 34.237C38.999 36.0093 39.3792 37.6315 40.1394 39.1039C40.8997 40.5767 41.9702 41.7433 43.3516 42.6044C44.7326 43.4655 46.3482 43.896 48.1983 43.896C49.7694 43.896 51.1189 43.5965 52.2468 42.9975Z" fill="white"/>
    <path d="M65.2665 42.6044C66.6601 43.4655 68.3076 43.896 70.2083 43.896C72.4637 43.896 74.3833 43.3221 75.9674 42.1739C77.5506 41.026 78.6219 39.5408 79.1795 37.7187H76.1004C75.6693 38.7921 74.979 39.6655 74.0287 40.3394C73.0783 41.0133 71.9315 41.3502 70.5884 41.3502C69.1945 41.3502 67.978 41.026 66.9391 40.3768C65.8998 39.728 65.1012 38.8606 64.5443 37.7749C63.9866 36.6892 63.708 35.5099 63.708 34.237C63.708 32.9394 63.9866 31.7537 64.5443 30.6804C65.1012 29.6074 65.8998 28.7464 66.9391 28.0972C67.978 27.4484 69.1945 27.1238 70.5884 27.1238C71.9315 27.1238 73.0783 27.4607 74.0287 28.1346C74.979 28.8085 75.6693 29.6823 76.1004 30.7553H79.1795C78.6219 28.9335 77.5506 27.4484 75.9674 26.3002C74.3833 25.1523 72.4637 24.578 70.2083 24.578C68.3076 24.578 66.6601 25.0085 65.2665 25.8696C63.8726 26.7307 62.7892 27.8913 62.0164 29.3513C61.2432 30.8114 60.8569 32.44 60.8569 34.237C60.8569 36.0093 61.2432 37.6315 62.0164 39.1039C62.7892 40.5767 63.8726 41.7433 65.2665 42.6044Z" fill="white"/>
    <path d="M84.8051 32.8143C84.8051 31.7061 85.0587 30.7264 85.5646 29.8736C85.5715 29.8616 85.5772 29.8496 85.5844 29.838C85.7114 29.6272 85.8497 29.4284 85.9972 29.2409C86.4526 28.6621 87.0054 28.193 87.6562 27.8351C88.5175 27.3611 89.4808 27.1237 90.5452 27.1237C92.1163 27.1237 93.3962 27.6419 94.3846 28.6774C95.3729 29.7133 95.8671 31.0798 95.8671 32.7769V38.9612V40.02V43.5964H98.7181V32.702C98.7181 30.9301 98.357 29.4389 97.6347 28.2282C96.9125 27.0178 95.9747 26.1069 94.8217 25.4952C93.668 24.8838 92.4326 24.578 91.1154 24.578C89.5694 24.578 88.3024 24.8902 87.314 25.5139C86.3257 26.138 85.4894 26.8991 84.8051 27.7976V17.3899H81.9541V25.259V26.3177V43.5964H84.8051V32.8143Z" fill="white"/>
    <path d="M105.446 22.6311H104.4H103.64H102.595V41.3501H105.446V22.6311Z" fill="white"/>
    <path d="M112.592 39.6082V38.5494V32.8143C112.592 31.6912 112.852 30.6991 113.371 29.838C113.89 28.9769 114.581 28.3094 115.443 27.8351C116.304 27.3611 117.268 27.1237 118.332 27.1237C119.903 27.1237 121.183 27.6419 122.171 28.6774C122.244 28.7534 122.308 28.835 122.375 28.9144C122.54 29.1094 122.694 29.312 122.827 29.5284C123.377 30.4273 123.654 31.5096 123.654 32.7769V43.5964H126.505V32.702C126.505 30.9301 126.144 29.4393 125.421 28.2282C125.263 27.962 125.091 27.7126 124.911 27.4753C124.757 27.2712 124.595 27.0784 124.425 26.8957C123.894 26.3256 123.29 25.8568 122.608 25.4952C121.455 24.8838 120.219 24.578 118.902 24.578C117.356 24.578 116.089 24.8902 115.101 25.5139C114.112 26.138 113.276 26.8991 112.592 27.7976V24.8775H109.741V43.5964H112.592V39.6082Z" fill="white"/>
    <path d="M132.282 32.7392C132.56 31.1421 133.251 29.8067 134.353 28.7334C135.456 27.6608 136.919 27.1235 138.744 27.1235C140.569 27.1235 142.038 27.6608 143.154 28.7334C144.268 29.8067 144.953 31.1421 145.206 32.7392H132.282ZM138.744 24.5778C136.818 24.5778 135.145 25.0083 133.726 25.8694C132.306 26.7304 131.217 27.891 130.457 29.3511C129.697 30.8112 129.317 32.4397 129.317 34.2368C129.317 36.0091 129.716 37.6313 130.514 39.1037C131.312 40.5769 132.434 41.7431 133.878 42.6041C135.323 43.4652 137.008 43.8958 138.934 43.8958C141.189 43.8958 143.033 43.3656 144.465 42.3046C145.896 41.244 146.942 39.8775 147.601 38.2052H144.484C143.977 39.1288 143.268 39.8839 142.355 40.4702C141.443 41.0568 140.315 41.35 138.972 41.35C137.705 41.35 136.59 41.0819 135.627 40.5451C134.664 40.0086 133.897 39.2849 133.327 38.3737C132.757 37.4628 132.396 36.4587 132.244 35.3599H148.171V34.2368C148.171 32.4397 147.791 30.8112 147.031 29.3511C146.271 27.891 145.187 26.7304 143.781 25.8694C142.374 25.0083 140.695 24.5778 138.744 24.5778Z" fill="white"/>
    <path d="M8.66361 54.3037C9.70253 53.6549 10.919 53.3303 12.3129 53.3303C13.6559 53.3303 14.8028 53.6673 15.7532 54.3412C16.7035 55.015 17.3938 55.8888 17.8249 56.9618H20.904C20.3464 55.1401 19.2755 53.6549 17.6919 52.5067C16.1078 51.3589 14.1881 50.7846 11.9328 50.7846C10.0321 50.7846 8.38459 51.2151 6.99101 52.0762C5.59705 52.9372 4.51366 54.0978 3.74084 55.5579C2.96764 57.018 2.58142 58.6465 2.58142 60.4435C2.58142 62.2159 2.96764 63.838 3.74084 65.3105C4.51366 66.7837 5.59705 67.9499 6.99101 68.8109C8.38459 69.672 10.0321 70.1025 11.9328 70.1025C14.1881 70.1025 16.1078 69.5286 17.6919 68.3804C19.2755 67.2325 20.3464 65.7474 20.904 63.9253H17.8249C17.3938 64.9986 16.7035 65.872 15.7532 66.5459C14.8028 67.2198 13.6559 67.5568 12.3129 67.5568C10.919 67.5568 9.70253 67.2325 8.66361 66.5834C7.62432 65.9346 6.82603 65.0671 6.26875 63.9814C5.71109 62.8957 5.43245 61.7164 5.43245 60.4435C5.43245 59.1459 5.71109 57.9603 6.26875 56.8869C6.82603 55.814 7.62432 54.9529 8.66361 54.3037Z" fill="white"/>
    <path d="M37.7415 63.9814C37.2344 65.0671 36.4932 65.9346 35.5177 66.5834C34.5419 67.2325 33.3445 67.5568 31.9254 67.5568C30.5315 67.5568 29.3405 67.2325 28.3522 66.5834C27.3638 65.9346 26.6161 65.0671 26.1093 63.9814C25.6019 62.8957 25.3491 61.7164 25.3491 60.4435C25.3491 59.1459 25.6019 57.9603 26.1093 56.8869C26.6161 55.814 27.3638 54.9529 28.3522 54.3037C29.3405 53.6549 30.5315 53.3303 31.9254 53.3303C33.3445 53.3303 34.5419 53.6549 35.5177 54.3037C36.4932 54.9529 37.2344 55.814 37.7415 56.8869C38.2483 57.9603 38.5018 59.1459 38.5018 60.4435C38.5018 61.7164 38.2483 62.8957 37.7415 63.9814ZM36.9623 52.0762C35.5557 51.2151 33.8767 50.7846 31.9254 50.7846C29.9993 50.7846 28.3267 51.2151 26.9076 52.0762C25.4882 52.9372 24.3987 54.0978 23.6385 55.5579C23.3632 56.0869 23.1393 56.6384 22.9637 57.2115C22.8037 57.7334 22.6877 58.2751 22.6106 58.8337C22.5383 59.3548 22.498 59.8902 22.498 60.4435C22.498 60.995 22.5395 61.5307 22.6128 62.0534C22.6908 62.6056 22.8075 63.1428 22.9675 63.6625C23.1424 64.2311 23.3648 64.7807 23.6385 65.3105C24.3987 66.7833 25.4882 67.9499 26.9076 68.8109C28.3267 69.672 29.9993 70.1025 31.9254 70.1025C33.8767 70.1025 35.5557 69.672 36.9623 68.8109C38.3688 67.9499 39.4521 66.7833 40.2124 65.3105C40.9727 63.838 41.3528 62.2159 41.3528 60.4435C41.3528 58.6465 40.9727 57.018 40.2124 55.5579C39.4521 54.0978 38.3688 52.9372 36.9623 52.0762Z" fill="white"/>
    <path d="M57.2236 51.702C56.0699 51.0906 54.8344 50.7847 53.5173 50.7847C51.9712 50.7847 50.7042 51.097 49.7159 51.7207C48.7275 52.3448 47.8912 53.1059 47.207 54.0044V51.0842H44.356V69.8032H47.207V59.0211C47.207 57.898 47.4666 56.9058 47.9863 56.0448C48.5051 55.1837 49.1962 54.5162 50.058 54.0418C50.9194 53.5679 51.8827 53.3305 52.947 53.3305C54.5182 53.3305 55.7981 53.8487 56.7864 54.8842C57.7748 55.9201 58.269 57.2866 58.269 58.9837V69.8032H61.12V58.9088C61.12 57.1368 60.7589 55.6461 60.0366 54.4349C59.3143 53.2246 58.3765 52.3137 57.2236 51.702Z" fill="white"/>
    <path d="M75.0937 67.1824C74.5741 67.3823 74.0354 67.5193 73.4782 67.5942C72.9205 67.6691 72.4518 67.7065 72.0716 67.7065C70.8552 67.7065 69.8669 67.5257 69.1066 67.1637C68.3463 66.802 67.7822 66.3277 67.415 65.741C67.0474 65.1547 66.8258 64.5494 66.7497 63.9253H63.7847C63.8607 65.0237 64.2154 66.0405 64.8491 66.9765C65.4824 67.9124 66.4011 68.6675 67.605 69.2415C68.8086 69.8154 70.285 70.1025 72.0336 70.1025C74.3905 70.1025 76.2722 69.6222 77.6787 68.6612C79.0852 67.7005 79.7884 66.309 79.7884 64.4868C79.7884 63.3139 79.4843 62.3847 78.8761 61.6977C78.2679 61.0115 77.4821 60.481 76.5192 60.1066C75.556 59.7322 74.5361 59.4391 73.4591 59.2268C72.3818 59.0153 71.3619 58.7903 70.399 58.5529C69.4358 58.3159 68.6504 57.9977 68.0422 57.5983C67.434 57.1992 67.1299 56.6249 67.1299 55.8761C67.1299 54.0791 68.6375 53.1806 71.6535 53.1806C73.2501 53.1806 74.3966 53.4677 75.0937 54.0417C75.7905 54.6163 76.1897 55.3022 76.2912 56.1007H79.1802C79.0787 55.1779 78.7556 54.3165 78.2109 53.5175C77.6657 52.719 76.8675 52.0638 75.816 51.552C74.7642 51.0406 73.4021 50.7846 71.7295 50.7846C69.2712 50.7846 67.415 51.2525 66.1605 52.1885C64.9061 53.1244 64.2788 54.4411 64.2788 56.1382C64.2788 57.2864 64.583 58.1913 65.1912 58.8524C65.7994 59.514 66.5848 60.0257 67.548 60.3874C68.5109 60.7494 69.5308 61.0426 70.6081 61.2672C71.6851 61.4918 72.705 61.7228 73.6682 61.9598C74.6311 62.1975 75.4169 62.5277 76.0251 62.9519C76.6333 63.3764 76.9374 63.9758 76.9374 64.7489C76.9374 65.373 76.7599 65.8848 76.4052 66.2839C76.0502 66.6833 75.613 66.9828 75.0937 67.1824Z" fill="white"/>
    <path d="M95.6623 55.2228C95.8323 55.4115 95.9893 55.6099 96.1322 55.8188C96.3728 56.1708 96.5766 56.5515 96.7412 56.9618H99.8207C99.4626 55.7926 98.8901 54.7638 98.1093 53.8717C97.9451 53.6837 97.7698 53.5029 97.5866 53.3277C97.2848 53.0379 96.9613 52.7628 96.6081 52.5067C95.0241 51.3589 93.1044 50.7846 90.849 50.7846C88.9484 50.7846 87.3008 51.2151 85.9073 52.0762C84.5133 52.9372 83.4299 54.0978 82.6575 55.5579C81.8839 57.018 81.4977 58.6465 81.4977 60.4435C81.4977 62.2159 81.8839 63.838 82.6575 65.3105C82.9711 65.9084 83.3387 66.4531 83.7546 66.9503C83.9165 67.1434 84.0872 67.3284 84.2647 67.5066C84.7543 67.9985 85.2994 68.4354 85.9073 68.8109C87.3008 69.672 88.9484 70.1025 90.849 70.1025C93.1044 70.1025 95.0241 69.5286 96.6081 68.3804C98.1918 67.2325 99.2626 65.7474 99.8207 63.9253H96.7412C96.3101 64.9986 95.6198 65.8721 94.6694 66.5459C93.7191 67.2198 92.5722 67.5568 91.2292 67.5568C89.8352 67.5568 88.6188 67.2325 87.5799 66.5834C87.0922 66.279 86.6596 65.9245 86.2779 65.5239C86.1042 65.3412 85.9422 65.148 85.7902 64.9455C85.5651 64.6452 85.3618 64.3255 85.1854 63.9814C84.6273 62.8957 84.3487 61.7164 84.3487 60.4435C84.3487 59.1459 84.6273 57.9603 85.1854 56.8869C85.7423 55.814 86.5406 54.9533 87.5799 54.3037C88.6188 53.6549 89.8352 53.3303 91.2292 53.3303C92.5722 53.3303 93.7191 53.6673 94.6694 54.3412C95.0404 54.6043 95.3704 54.899 95.6623 55.2228Z" fill="white"/>
    <path d="M102.595 72.4236H103.64H104.4H105.446V53.7046H102.595V72.4236Z" fill="white"/>
    <path d="M123.694 63.9814C123.441 64.5235 123.129 65.011 122.759 65.4441C122.595 65.6354 122.419 65.8144 122.232 65.9847C121.996 66.2008 121.743 66.4014 121.47 66.5834C120.494 67.2325 119.297 67.5568 117.878 67.5568C116.484 67.5568 115.293 67.2325 114.304 66.5834C113.316 65.9346 112.568 65.0671 112.061 63.9814C111.554 62.8957 111.301 61.7164 111.301 60.4435C111.301 59.1459 111.554 57.9603 112.061 56.8869C112.16 56.6784 112.27 56.4804 112.387 56.2879C112.52 56.0678 112.666 55.8578 112.823 55.6586C113.235 55.1356 113.728 54.6826 114.304 54.3037C115.293 53.6549 116.484 53.3303 117.878 53.3303C119.297 53.3303 120.494 53.6549 121.47 54.3037C122.445 54.9529 123.187 55.814 123.694 56.8869C124.2 57.9603 124.454 59.1459 124.454 60.4435C124.454 61.7164 124.2 62.8957 123.694 63.9814ZM127.305 60.4435C127.305 58.6465 126.925 57.018 126.165 55.5579C125.404 54.0978 124.321 52.9372 122.914 52.0762C121.508 51.2151 119.829 50.7846 117.878 50.7846C115.951 50.7846 114.279 51.2151 112.86 52.0762C112.097 52.5389 111.433 53.0907 110.861 53.7264C110.692 53.9136 110.532 54.109 110.38 54.3116C110.087 54.7002 109.822 55.1135 109.591 55.5579C108.83 57.018 108.45 58.6465 108.45 60.4435C108.45 62.2159 108.83 63.838 109.591 65.3105C110.351 66.7833 111.44 67.9499 112.86 68.8109C114.279 69.672 115.951 70.1025 117.878 70.1025C119.829 70.1025 121.508 69.672 122.914 68.8109C123.365 68.535 123.779 68.2243 124.163 67.8858C124.352 67.7189 124.535 67.5459 124.708 67.364C125.281 66.7623 125.768 66.0791 126.165 65.3105C126.925 63.838 127.305 62.2159 127.305 60.4435Z" fill="white"/>
    <path d="M144.027 61.8662C144.027 62.9893 143.767 63.9758 143.248 64.8238C142.728 65.6725 142.037 66.34 141.176 66.8267C140.314 67.3134 139.351 67.5568 138.287 67.5568C136.741 67.5568 135.467 67.039 134.467 66.0031C133.465 64.9679 132.965 63.6014 132.965 61.9036V51.0841H130.114V61.9785C130.114 63.7512 130.475 65.2423 131.197 66.4523C131.92 67.6631 132.864 68.5739 134.029 69.1853C135.195 69.7974 136.424 70.1025 137.717 70.1025C139.262 70.1025 140.53 69.7907 141.518 69.1666C142.506 68.5429 143.343 67.7814 144.027 66.8829V69.803H146.878V51.0841H144.027V61.8662Z" fill="white"/>
    <path d="M164.823 61.6977C164.215 61.0115 163.429 60.481 162.466 60.1066C161.503 59.7322 160.483 59.4391 159.406 59.2268C158.329 59.0153 157.308 58.7903 156.346 58.5529C155.383 58.3159 154.597 57.9977 153.989 57.5983C153.381 57.1992 153.077 56.6249 153.077 55.8761C153.077 54.0791 154.584 53.1806 157.6 53.1806C159.197 53.1806 160.343 53.4677 161.041 54.0417C161.737 54.6163 162.137 55.3022 162.238 56.1007H165.127C165.026 55.1779 164.702 54.3164 164.158 53.5175C163.612 52.719 162.814 52.0638 161.763 51.552C160.711 51.0406 159.349 50.7846 157.676 50.7846C155.218 50.7846 153.362 51.2525 152.107 52.1885C150.853 53.1244 150.226 54.4411 150.226 56.1382C150.226 57.2864 150.53 58.1913 151.138 58.8524C151.746 59.514 152.532 60.0257 153.495 60.3874C154.457 60.7494 155.478 61.0426 156.555 61.2672C157.632 61.4918 158.652 61.7228 159.615 61.9598C160.578 62.1975 161.364 62.5277 161.972 62.9519C162.58 63.3764 162.884 63.9758 162.884 64.7489C162.884 65.373 162.707 65.8848 162.352 66.2839C161.997 66.6833 161.56 66.9828 161.041 67.1824C160.521 67.3823 159.982 67.5193 159.425 67.5942C158.867 67.6691 158.399 67.7065 158.019 67.7065C156.802 67.7065 155.814 67.5257 155.053 67.1637C154.293 66.802 153.729 66.3277 153.362 65.741C152.994 65.1547 152.773 64.5494 152.697 63.9253H149.732C149.808 65.0237 150.162 66.0405 150.796 66.9765C151.429 67.9124 152.348 68.6675 153.552 69.2415C154.755 69.8154 156.232 70.1025 157.981 70.1025C160.337 70.1025 162.219 69.6222 163.626 68.6612C165.032 67.7005 165.735 66.309 165.735 64.4868C165.735 63.3139 165.431 62.3847 164.823 61.6977Z" fill="white"/>
    <path d="M185.389 69.8032V58.9088C185.389 57.1368 185.028 55.6461 184.306 54.4349C183.584 53.2246 182.646 52.3137 181.493 51.702C180.339 51.0906 179.104 50.7847 177.786 50.7847C176.24 50.7847 174.973 51.097 173.985 51.7207C172.997 52.3448 172.16 53.1059 171.476 54.0044V51.0842H168.625V69.8032H171.476V59.0211C171.476 57.898 171.736 56.9058 172.255 56.0448C172.774 55.1837 173.465 54.5162 174.327 54.0418C175.189 53.5679 176.152 53.3305 177.216 53.3305C178.787 53.3305 180.067 53.8487 181.056 54.8842C182.044 55.9201 182.538 57.2866 182.538 58.9837V69.8032H185.389Z" fill="white"/>
    <path d="M193.237 54.9402C194.34 53.8676 195.803 53.3303 197.628 53.3303C199.453 53.3303 200.922 53.8676 202.038 54.9402C203.153 56.0135 203.837 57.3493 204.09 58.946H191.166C191.444 57.3493 192.135 56.0135 193.237 54.9402ZM203.368 64.412C202.861 65.3359 202.152 66.0911 201.239 66.677C200.327 67.2636 199.199 67.5568 197.856 67.5568C196.589 67.5568 195.474 67.2887 194.511 66.7518C193.548 66.2154 192.781 65.4921 192.211 64.5804C191.641 63.6696 191.28 62.6655 191.128 61.5667H207.055V60.4435C207.055 58.6465 206.675 57.018 205.915 55.5579C205.155 54.0978 204.071 52.9372 202.665 52.0762C201.258 51.2151 199.579 50.7846 197.628 50.7846C195.702 50.7846 194.029 51.2151 192.61 52.0762C191.191 52.9372 190.101 54.0978 189.341 55.5579C188.581 57.018 188.201 58.6465 188.201 60.4435C188.201 62.2162 188.6 63.8384 189.398 65.3105C190.196 66.7837 191.318 67.9499 192.762 68.8109C194.207 69.672 195.892 70.1025 197.818 70.1025C200.073 70.1025 201.917 69.5724 203.349 68.5114C204.781 67.4508 205.826 66.0847 206.485 64.412H203.368Z" fill="white"/>
    <path d="M224.008 62.3768C223.881 62.1298 223.731 61.9018 223.55 61.6977C222.942 61.0115 222.156 60.481 221.193 60.1066C220.23 59.7322 219.21 59.4391 218.133 59.2268C217.056 59.0149 216.036 58.7903 215.073 58.5529C214.109 58.3159 213.324 57.9977 212.716 57.5983C212.108 57.1992 211.804 56.6249 211.804 55.8761C211.804 54.0791 213.311 53.1806 216.328 53.1806C217.924 53.1806 219.07 53.4677 219.767 54.0417C220.464 54.616 220.863 55.3022 220.965 56.1007H223.854C223.752 55.1775 223.429 54.3165 222.885 53.5175C222.339 52.719 221.541 52.0638 220.49 51.552C219.438 51.0406 218.076 50.7846 216.403 50.7846C213.945 50.7846 212.089 51.2525 210.834 52.1885C209.58 53.1244 208.953 54.4411 208.953 56.1382C208.953 57.2864 209.257 58.1913 209.865 58.8524C210.473 59.514 211.258 60.0257 212.222 60.3874C213.185 60.7494 214.205 61.0426 215.282 61.2672C216.359 61.4918 217.379 61.7228 218.342 61.9598C219.305 62.1971 220.091 62.5277 220.699 62.9519C221.307 63.3764 221.611 63.9754 221.611 64.7489C221.611 65.373 221.434 65.8848 221.079 66.2839C220.724 66.6833 220.287 66.9828 219.767 67.1824C219.248 67.3823 218.709 67.5193 218.152 67.5942C217.594 67.6691 217.125 67.7065 216.745 67.7065C215.529 67.7065 214.541 67.5257 213.78 67.1637C213.02 66.802 212.456 66.3277 212.089 65.741C211.721 65.1547 211.499 64.5494 211.423 63.9253H208.713H208.458C208.47 64.0941 208.491 64.2603 208.516 64.4254C208.653 65.3337 208.987 66.1843 209.523 66.9765C210.156 67.9124 211.075 68.6675 212.279 69.2415C213.482 69.8154 214.959 70.1025 216.708 70.1025C219.064 70.1025 220.946 69.6222 222.352 68.6612C223.476 67.8941 224.142 66.8473 224.369 65.5306C224.242 65.0503 224.159 64.5572 224.124 64.0526L224.008 62.3768Z" fill="white"/>
    <path d="M241.116 61.6977C240.508 61.0115 239.722 60.481 238.759 60.1066C237.796 59.7322 236.776 59.4391 235.699 59.2268C234.622 59.0153 233.601 58.7903 232.639 58.5529C231.676 58.3159 230.89 57.9977 230.282 57.5983C229.674 57.1992 229.37 56.6249 229.37 55.8761C229.37 54.0791 230.877 53.1806 233.893 53.1806C235.49 53.1806 236.636 53.4677 237.333 54.0417C238.03 54.6163 238.429 55.3022 238.531 56.1007H241.42C241.318 55.1779 240.995 54.3164 240.451 53.5175C239.905 52.719 239.107 52.0638 238.056 51.552C237.004 51.0406 235.642 50.7846 233.969 50.7846C231.511 50.7846 229.655 51.2525 228.4 52.1885C227.146 53.1244 226.519 54.4411 226.519 56.1382C226.519 57.2864 226.823 58.1913 227.431 58.8524C228.039 59.514 228.825 60.0257 229.788 60.3874C230.75 60.7494 231.771 61.0426 232.848 61.2672C233.925 61.4918 234.945 61.7228 235.908 61.9598C236.871 62.1975 237.657 62.5277 238.265 62.9519C238.873 63.3764 239.177 63.9758 239.177 64.7489C239.177 65.373 239 65.8848 238.645 66.2839C238.29 66.6833 237.853 66.9828 237.333 67.1824C236.814 67.3823 236.275 67.5193 235.718 67.5942C235.16 67.6691 234.692 67.7065 234.311 67.7065C233.095 67.7065 232.107 67.5257 231.346 67.1637C230.586 66.802 230.022 66.3277 229.655 65.741C229.287 65.1547 229.066 64.5494 228.989 63.9253H226.346H226.024C226.06 64.4374 226.159 64.9312 226.315 65.4082C226.494 65.954 226.75 66.477 227.089 66.9765C227.722 67.9124 228.641 68.6675 229.845 69.2415C231.048 69.8154 232.525 70.1025 234.273 70.1025C236.63 70.1025 238.512 69.6222 239.918 68.6612C241.325 67.7005 242.028 66.309 242.028 64.4868C242.028 63.3139 241.724 62.3847 241.116 61.6977Z" fill="white"/>
    <path d="M104.021 45.324C102.813 45.324 101.834 46.2884 101.834 47.4778C101.834 48.6676 102.813 49.6316 104.021 49.6316C105.229 49.6316 106.208 48.6676 106.208 47.4778C106.208 46.2884 105.229 45.324 104.021 45.324Z" fill="white"/>
  </g>
  <defs>
    <clipPath id="clip0_22_577">
      <rect width="246" height="113" fill="white"/>
    </clipPath>
  </defs>
</svg>
