<?xml version="1.0" encoding="UTF-8"?>
<!DOCTYPE svg PUBLIC "-//W3C//DTD SVG 1.1//EN" "http://www.w3.org/Graphics/SVG/1.1/DTD/svg11.dtd">
<svg version="1.2" width="210mm" height="297mm" viewBox="0 0 21000 29700" preserveAspectRatio="xMidYMid" fill-rule="evenodd" stroke-width="28.222" stroke-linejoin="round" xmlns="http://www.w3.org/2000/svg" xmlns:ooo="http://xml.openoffice.org/svg/export" xmlns:xlink="http://www.w3.org/1999/xlink" xmlns:presentation="http://sun.com/xmlns/staroffice/presentation" xmlns:smil="http://www.w3.org/2001/SMIL20/" xmlns:anim="urn:oasis:names:tc:opendocument:xmlns:animation:1.0" xml:space="preserve">
 <defs class="ClipPathGroup">
  <clipPath id="presentation_clip_path" clipPathUnits="userSpaceOnUse">
   <rect x="0" y="0" width="21000" height="29700"/>
  </clipPath>
  <clipPath id="presentation_clip_path_shrink" clipPathUnits="userSpaceOnUse">
   <rect x="21" y="29" width="20958" height="29641"/>
  </clipPath>
 </defs>
 <defs class="TextShapeIndex">
  <g ooo:slide="id1" ooo:id-list="id3 id4 id5 id6 id7 id8 id9 id10 id11 id12 id13 id14 id15 id16 id17 id18 id19 id20 id21 id22 id23 id24 id25 id26 id27 id28 id29 id30 id31 id32 id33 id34 id35 id36 id37 id38 id39 id40 id41 id42 id43 id44 id45 id46 id47 id48 id49 id50 id51 id52 id53 id54 id55 id56 id57 id58 id59 id60 id61 id62 id63 id64 id65 id66 id67 id68 id69 id70 id71 id72 id73 id74 id75 id76 id77 id78 id79 id80 id81 id82 id83 id84 id85 id86 id87 id88 id89 id90 id91 id92 id93 id94 id95 id96 id97 id98 id99 id100 id101 id102 id103 id104 id105 id106 id107 id108 id109 id110 id111 id112 id113 id114 id115 id116"/>
 </defs>
 <defs class="EmbeddedBulletChars">
  <g id="bullet-char-template-57356" transform="scale(0.00048828125,-0.00048828125)">
   <path d="M 580,1141 L 1163,571 580,0 -4,571 580,1141 Z"/>
  </g>
  <g id="bullet-char-template-57354" transform="scale(0.00048828125,-0.00048828125)">
   <path d="M 8,1128 L 1137,1128 1137,0 8,0 8,1128 Z"/>
  </g>
  <g id="bullet-char-template-10146" transform="scale(0.00048828125,-0.00048828125)">
   <path d="M 174,0 L 602,739 174,1481 1456,739 174,0 Z M 1358,739 L 309,1346 659,739 1358,739 Z"/>
  </g>
  <g id="bullet-char-template-10132" transform="scale(0.00048828125,-0.00048828125)">
   <path d="M 2015,739 L 1276,0 717,0 1260,543 174,543 174,936 1260,936 717,1481 1274,1481 2015,739 Z"/>
  </g>
  <g id="bullet-char-template-10007" transform="scale(0.00048828125,-0.00048828125)">
   <path d="M 0,-2 C -7,14 -16,27 -25,37 L 356,567 C 262,823 215,952 215,954 215,979 228,992 255,992 264,992 276,990 289,987 310,991 331,999 354,1012 L 381,999 492,748 772,1049 836,1024 860,1049 C 881,1039 901,1025 922,1006 886,937 835,863 770,784 769,783 710,716 594,584 L 774,223 C 774,196 753,168 711,139 L 727,119 C 717,90 699,76 672,76 641,76 570,178 457,381 L 164,-76 C 142,-110 111,-127 72,-127 30,-127 9,-110 8,-76 1,-67 -2,-52 -2,-32 -2,-23 -1,-13 0,-2 Z"/>
  </g>
  <g id="bullet-char-template-10004" transform="scale(0.00048828125,-0.00048828125)">
   <path d="M 285,-33 C 182,-33 111,30 74,156 52,228 41,333 41,471 41,549 55,616 82,672 116,743 169,778 240,778 293,778 328,747 346,684 L 369,508 C 377,444 397,411 428,410 L 1163,1116 C 1174,1127 1196,1133 1229,1133 1271,1133 1292,1118 1292,1087 L 1292,965 C 1292,929 1282,901 1262,881 L 442,47 C 390,-6 338,-33 285,-33 Z"/>
  </g>
  <g id="bullet-char-template-9679" transform="scale(0.00048828125,-0.00048828125)">
   <path d="M 813,0 C 632,0 489,54 383,161 276,268 223,411 223,592 223,773 276,916 383,1023 489,1130 632,1184 813,1184 992,1184 1136,1130 1245,1023 1353,916 1407,772 1407,592 1407,412 1353,268 1245,161 1136,54 992,0 813,0 Z"/>
  </g>
  <g id="bullet-char-template-8226" transform="scale(0.00048828125,-0.00048828125)">
   <path d="M 346,457 C 273,457 209,483 155,535 101,586 74,649 74,723 74,796 101,859 155,911 209,963 273,989 346,989 419,989 480,963 531,910 582,859 608,796 608,723 608,648 583,586 532,535 482,483 420,457 346,457 Z"/>
  </g>
  <g id="bullet-char-template-8211" transform="scale(0.00048828125,-0.00048828125)">
   <path d="M -4,459 L 1135,459 1135,606 -4,606 -4,459 Z"/>
  </g>
  <g id="bullet-char-template-61548" transform="scale(0.00048828125,-0.00048828125)">
   <path d="M 173,740 C 173,903 231,1043 346,1159 462,1274 601,1332 765,1332 928,1332 1067,1274 1183,1159 1299,1043 1357,903 1357,740 1357,577 1299,437 1183,322 1067,206 928,148 765,148 601,148 462,206 346,322 231,437 173,577 173,740 Z"/>
  </g>
 </defs>
 <g>
  <g id="id2" class="Master_Slide">
   <g id="bg-id2" class="Background"/>
   <g id="bo-id2" class="BackgroundObjects"/>
  </g>
 </g>
 <g class="SlideGroup">
  <g>
   <g id="container-id1">
    <g id="id1" class="Slide" clip-path="url(#presentation_clip_path)">
     <g class="Page">
      <g class="com.sun.star.drawing.ClosedBezierShape">
       <g id="id3">
        <rect class="BoundingBox" stroke="none" fill="none" x="1797" y="11986" width="4336" height="1316"/>
        <path fill="rgb(255,161,29)" stroke="none" d="M 3071,12899 C 3277,12831 3496,12793 3724,12793 4143,12793 4533,12919 4858,13134 L 6132,13301 C 5622,12511 4734,11986 3724,11986 2982,11986 2307,12268 1797,12732 L 3071,12899 Z"/>
       </g>
      </g>
      <g class="com.sun.star.drawing.PolyPolygonShape">
       <g id="id4">
        <rect class="BoundingBox" stroke="none" fill="none" x="6875" y="12073" width="830" height="542"/>
        <path fill="rgb(255,161,29)" stroke="none" d="M 7704,12613 L 7704,12073 6875,12073 6875,12430 7704,12613 Z"/>
       </g>
      </g>
      <g class="com.sun.star.drawing.PolyPolygonShape">
       <g id="id5">
        <rect class="BoundingBox" stroke="none" fill="none" x="8959" y="12073" width="587" height="187"/>
        <path fill="rgb(255,161,29)" stroke="none" d="M 9545,12259 L 9469,12073 9270,12073 8959,12073 9545,12259 Z"/>
       </g>
      </g>
      <g class="com.sun.star.drawing.PolyPolygonShape">
       <g id="id6">
        <rect class="BoundingBox" stroke="none" fill="none" x="14094" y="12073" width="42" height="33"/>
        <path fill="rgb(255,161,29)" stroke="none" d="M 14094,12073 L 14135,12105 14135,12073 14094,12073 Z"/>
       </g>
      </g>
      <g class="com.sun.star.drawing.ClosedBezierShape">
       <g id="id7">
        <rect class="BoundingBox" stroke="none" fill="none" x="17575" y="12000" width="165" height="809"/>
        <path fill="rgb(255,161,29)" stroke="none" d="M 17610,12807 C 17615,12806 17619,12806 17624,12806 17650,12806 17677,12807 17705,12808 L 17739,12002 C 17701,12001 17662,12000 17624,12000 17607,12000 17591,12001 17575,12001 L 17610,12807 Z"/>
       </g>
      </g>
      <g class="com.sun.star.drawing.ClosedBezierShape">
       <g id="id8">
        <rect class="BoundingBox" stroke="none" fill="none" x="962" y="12810" width="1937" height="1319"/>
        <path fill="rgb(255,161,29)" stroke="none" d="M 1797,14128 C 1992,13607 2392,13187 2898,12965 L 1715,12810 C 1361,13158 1098,13598 962,14092 L 1797,14128 Z"/>
       </g>
      </g>
      <g class="com.sun.star.drawing.PolyPolygonShape">
       <g id="id9">
        <rect class="BoundingBox" stroke="none" fill="none" x="6875" y="12520" width="830" height="988"/>
        <path fill="rgb(255,161,29)" stroke="none" d="M 7704,13507 L 7704,12703 6875,12520 6875,13399 7704,13507 Z"/>
       </g>
      </g>
      <g class="com.sun.star.drawing.PolyPolygonShape">
       <g id="id10">
        <rect class="BoundingBox" stroke="none" fill="none" x="8440" y="12073" width="1452" height="1025"/>
        <path fill="rgb(255,161,29)" stroke="none" d="M 8440,12775 L 9891,13097 9589,12365 8663,12073 8440,12073 8440,12775 Z"/>
       </g>
      </g>
      <g class="com.sun.star.drawing.PolyPolygonShape">
       <g id="id11">
        <rect class="BoundingBox" stroke="none" fill="none" x="12804" y="12461" width="1332" height="897"/>
        <path fill="rgb(255,161,29)" stroke="none" d="M 14135,13357 L 14135,13081 12946,12461 12804,12805 14135,13357 Z"/>
       </g>
      </g>
      <g class="com.sun.star.drawing.ClosedBezierShape">
       <g id="id12">
        <rect class="BoundingBox" stroke="none" fill="none" x="16146" y="12331" width="513" height="761"/>
        <path fill="rgb(255,161,29)" stroke="none" d="M 16579,13091 C 16605,13076 16632,13061 16658,13047 L 16286,12331 C 16238,12356 16192,12383 16146,12410 L 16579,13091 Z"/>
       </g>
      </g>
      <g class="com.sun.star.drawing.ClosedBezierShape">
       <g id="id13">
        <rect class="BoundingBox" stroke="none" fill="none" x="16365" y="12224" width="457" height="785"/>
        <path fill="rgb(255,161,29)" stroke="none" d="M 16738,13007 C 16765,12994 16793,12981 16821,12969 L 16511,12224 C 16462,12245 16413,12267 16365,12291 L 16738,13007 Z"/>
       </g>
      </g>
      <g class="com.sun.star.drawing.ClosedBezierShape">
       <g id="id14">
        <rect class="BoundingBox" stroke="none" fill="none" x="16594" y="12137" width="398" height="802"/>
        <path fill="rgb(255,161,29)" stroke="none" d="M 16903,12937 C 16932,12926 16961,12916 16991,12906 L 16748,12137 C 16696,12153 16645,12172 16594,12191 L 16903,12937 Z"/>
       </g>
      </g>
      <g class="com.sun.star.drawing.ClosedBezierShape">
       <g id="id15">
        <rect class="BoundingBox" stroke="none" fill="none" x="16833" y="12071" width="332" height="811"/>
        <path fill="rgb(255,161,29)" stroke="none" d="M 17076,12881 C 17105,12873 17134,12865 17164,12859 L 16990,12071 C 16936,12083 16884,12096 16833,12111 L 17076,12881 Z"/>
       </g>
      </g>
      <g class="com.sun.star.drawing.ClosedBezierShape">
       <g id="id16">
        <rect class="BoundingBox" stroke="none" fill="none" x="17075" y="12027" width="266" height="815"/>
        <path fill="rgb(255,161,29)" stroke="none" d="M 17251,12841 C 17280,12835 17310,12830 17340,12826 L 17235,12027 C 17181,12034 17128,12042 17075,12053 L 17251,12841 Z"/>
       </g>
      </g>
      <g class="com.sun.star.drawing.ClosedBezierShape">
       <g id="id17">
        <rect class="BoundingBox" stroke="none" fill="none" x="17322" y="12003" width="201" height="815"/>
        <path fill="rgb(255,161,29)" stroke="none" d="M 17322,12016 L 17428,12816 C 17459,12813 17491,12810 17522,12809 L 17487,12003 C 17432,12006 17376,12010 17322,12016 Z"/>
       </g>
      </g>
      <g class="com.sun.star.drawing.ClosedBezierShape">
       <g id="id18">
        <rect class="BoundingBox" stroke="none" fill="none" x="17791" y="12007" width="199" height="817"/>
        <path fill="rgb(255,161,29)" stroke="none" d="M 17792,12813 C 17823,12816 17854,12819 17884,12823 L 17989,12023 C 17935,12016 17882,12011 17827,12007 L 17792,12813 Z"/>
       </g>
      </g>
      <g class="com.sun.star.drawing.ClosedBezierShape">
       <g id="id19">
        <rect class="BoundingBox" stroke="none" fill="none" x="17971" y="12036" width="264" height="817"/>
        <path fill="rgb(255,161,29)" stroke="none" d="M 17971,12835 C 18000,12840 18029,12846 18059,12852 L 18234,12065 C 18181,12054 18128,12044 18075,12036 L 17971,12835 Z"/>
       </g>
      </g>
      <g class="com.sun.star.drawing.ClosedBezierShape">
       <g id="id20">
        <rect class="BoundingBox" stroke="none" fill="none" x="18145" y="12085" width="330" height="814"/>
        <path fill="rgb(255,161,29)" stroke="none" d="M 18145,12873 C 18175,12881 18203,12889 18232,12897 L 18474,12128 C 18423,12112 18372,12098 18320,12085 L 18145,12873 Z"/>
       </g>
      </g>
      <g class="com.sun.star.drawing.ClosedBezierShape">
       <g id="id21">
        <rect class="BoundingBox" stroke="none" fill="none" x="18314" y="12155" width="396" height="804"/>
        <path fill="rgb(255,161,29)" stroke="none" d="M 18315,12925 C 18344,12936 18372,12947 18400,12958 L 18709,12213 C 18659,12192 18608,12173 18557,12156 L 18315,12925 Z"/>
       </g>
      </g>
      <g class="com.sun.star.drawing.ClosedBezierShape">
       <g id="id22">
        <rect class="BoundingBox" stroke="none" fill="none" x="18481" y="12247" width="454" height="786"/>
        <path fill="rgb(255,161,29)" stroke="none" d="M 18481,12993 C 18508,13006 18535,13018 18561,13032 L 18934,12316 C 18887,12292 18839,12269 18791,12247 L 18481,12993 Z"/>
       </g>
      </g>
      <g class="com.sun.star.drawing.ClosedBezierShape">
       <g id="id23">
        <rect class="BoundingBox" stroke="none" fill="none" x="18639" y="12358" width="512" height="763"/>
        <path fill="rgb(255,161,29)" stroke="none" d="M 18639,13074 C 18665,13089 18691,13104 18716,13120 L 19150,12440 C 19105,12411 19058,12384 19011,12358 L 18639,13074 Z"/>
       </g>
      </g>
      <g class="com.sun.star.drawing.ClosedBezierShape">
       <g id="id24">
        <rect class="BoundingBox" stroke="none" fill="none" x="5007" y="13242" width="1234" height="614"/>
        <path fill="rgb(255,161,29)" stroke="none" d="M 5524,13855 L 6240,13482 C 6224,13453 6208,13425 6192,13398 L 5007,13242 C 5217,13410 5393,13618 5524,13855 Z"/>
       </g>
      </g>
      <g class="com.sun.star.drawing.PolyPolygonShape">
       <g id="id25">
        <rect class="BoundingBox" stroke="none" fill="none" x="6875" y="13487" width="830" height="898"/>
        <path fill="rgb(255,161,29)" stroke="none" d="M 7704,13596 L 6875,13487 6875,14348 7704,14384 7704,13596 Z"/>
       </g>
      </g>
      <g class="com.sun.star.drawing.PolyPolygonShape">
       <g id="id26">
        <rect class="BoundingBox" stroke="none" fill="none" x="12627" y="12887" width="1509" height="819"/>
        <path fill="rgb(255,161,29)" stroke="none" d="M 14135,13705 L 14135,13452 12770,12887 12628,13229 14135,13705 Z"/>
       </g>
      </g>
      <g class="com.sun.star.drawing.ClosedBezierShape">
       <g id="id27">
        <rect class="BoundingBox" stroke="none" fill="none" x="15242" y="13138" width="736" height="568"/>
        <path fill="rgb(255,161,29)" stroke="none" d="M 15243,13271 L 15924,13705 C 15941,13680 15959,13655 15977,13631 L 15337,13139 C 15305,13182 15273,13227 15243,13271 Z"/>
       </g>
      </g>
      <g class="com.sun.star.drawing.ClosedBezierShape">
       <g id="id28">
        <rect class="BoundingBox" stroke="none" fill="none" x="15392" y="12946" width="701" height="616"/>
        <path fill="rgb(255,161,29)" stroke="none" d="M 16032,13561 C 16052,13537 16072,13514 16092,13491 L 15497,12946 C 15461,12986 15426,13027 15392,13069 L 16032,13561 Z"/>
       </g>
      </g>
      <g class="com.sun.star.drawing.ClosedBezierShape">
       <g id="id29">
        <rect class="BoundingBox" stroke="none" fill="none" x="15742" y="12604" width="616" height="697"/>
        <path fill="rgb(255,161,29)" stroke="none" d="M 16288,13300 C 16310,13281 16333,13262 16357,13244 L 15866,12604 C 15824,12636 15782,12670 15742,12705 L 16288,13300 Z"/>
       </g>
      </g>
      <g class="com.sun.star.drawing.ClosedBezierShape">
       <g id="id30">
        <rect class="BoundingBox" stroke="none" fill="none" x="15935" y="12458" width="571" height="733"/>
        <path fill="rgb(255,161,29)" stroke="none" d="M 16428,13190 C 16453,13172 16479,13155 16505,13138 L 16071,12458 C 16025,12487 15980,12518 15936,12550 L 16428,13190 Z"/>
       </g>
      </g>
      <g class="com.sun.star.drawing.ClosedBezierShape">
       <g id="id31">
        <rect class="BoundingBox" stroke="none" fill="none" x="18790" y="12487" width="562" height="733"/>
        <path fill="rgb(255,161,29)" stroke="none" d="M 18790,13169 C 18814,13185 18836,13202 18859,13219 L 19351,12578 C 19309,12547 19266,12517 19223,12488 L 18790,13169 Z"/>
       </g>
      </g>
      <g class="com.sun.star.drawing.ClosedBezierShape">
       <g id="id32">
        <rect class="BoundingBox" stroke="none" fill="none" x="18929" y="12633" width="615" height="700"/>
        <path fill="rgb(255,161,29)" stroke="none" d="M 18929,13274 C 18952,13293 18975,13312 18997,13332 L 19542,12737 C 19503,12701 19462,12667 19421,12633 L 18929,13274 Z"/>
       </g>
      </g>
      <g class="com.sun.star.drawing.ClosedBezierShape">
       <g id="id33">
        <rect class="BoundingBox" stroke="none" fill="none" x="19184" y="12978" width="697" height="613"/>
        <path fill="rgb(255,161,29)" stroke="none" d="M 19184,13523 C 19203,13545 19222,13568 19240,13590 L 19880,13099 C 19848,13058 19814,13017 19778,12978 L 19184,13523 Z"/>
       </g>
      </g>
      <g class="com.sun.star.drawing.PolyPolygonShape">
       <g id="id34">
        <rect class="BoundingBox" stroke="none" fill="none" x="8440" y="13693" width="831" height="760"/>
        <path fill="rgb(255,161,29)" stroke="none" d="M 9270,14452 L 9270,13802 8440,13693 8440,14416 9270,14452 Z"/>
       </g>
      </g>
      <g class="com.sun.star.drawing.PolyPolygonShape">
       <g id="id35">
        <rect class="BoundingBox" stroke="none" fill="none" x="8440" y="12865" width="1757" height="971"/>
        <path fill="rgb(255,161,29)" stroke="none" d="M 8440,13604 L 9269,13713 9269,13521 9352,13724 10196,13835 9933,13197 8440,12866 8440,13604 Z"/>
       </g>
      </g>
      <g class="com.sun.star.drawing.PolyPolygonShape">
       <g id="id36">
        <rect class="BoundingBox" stroke="none" fill="none" x="12980" y="12073" width="1156" height="910"/>
        <path fill="rgb(255,161,29)" stroke="none" d="M 14135,12981 L 14135,12671 13196,12073 13106,12073 12980,12380 14135,12981 Z"/>
       </g>
      </g>
      <g class="com.sun.star.drawing.PolyPolygonShape">
       <g id="id37">
        <rect class="BoundingBox" stroke="none" fill="none" x="13362" y="12073" width="774" height="494"/>
        <path fill="rgb(255,161,29)" stroke="none" d="M 14135,12566 L 14135,12216 13949,12073 13904,12073 13362,12073 14135,12566 Z"/>
       </g>
      </g>
      <g class="com.sun.star.drawing.ClosedBezierShape">
       <g id="id38">
        <rect class="BoundingBox" stroke="none" fill="none" x="15558" y="12765" width="665" height="662"/>
        <path fill="rgb(255,161,29)" stroke="none" d="M 16152,13426 C 16174,13403 16197,13381 16221,13360 L 15676,12765 C 15636,12802 15596,12841 15558,12882 L 16152,13426 Z"/>
       </g>
      </g>
      <g class="com.sun.star.drawing.ClosedBezierShape">
       <g id="id39">
        <rect class="BoundingBox" stroke="none" fill="none" x="19062" y="12798" width="659" height="661"/>
        <path fill="rgb(255,161,29)" stroke="none" d="M 19125,13457 L 19720,12913 C 19683,12874 19646,12836 19607,12798 L 19062,13393 C 19084,13414 19104,13436 19125,13457 Z"/>
       </g>
      </g>
      <g class="com.sun.star.drawing.ClosedBezierShape">
       <g id="id40">
        <rect class="BoundingBox" stroke="none" fill="none" x="19293" y="13170" width="731" height="564"/>
        <path fill="rgb(255,161,29)" stroke="none" d="M 19293,13661 C 19310,13685 19328,13709 19344,13733 L 20023,13300 C 19994,13256 19965,13213 19934,13170 L 19293,13661 Z"/>
       </g>
      </g>
      <g class="com.sun.star.drawing.PolyPolygonShape">
       <g id="id41">
        <rect class="BoundingBox" stroke="none" fill="none" x="9392" y="13818" width="1082" height="687"/>
        <path fill="rgb(255,161,29)" stroke="none" d="M 9660,14469 L 10473,14504 10235,13928 9392,13818 9660,14469 Z"/>
       </g>
      </g>
      <g class="com.sun.star.drawing.PolyPolygonShape">
       <g id="id42">
        <rect class="BoundingBox" stroke="none" fill="none" x="12265" y="13745" width="882" height="462"/>
        <path fill="rgb(255,161,29)" stroke="none" d="M 13023,14206 L 13146,13907 12415,13745 12266,14107 13023,14206 Z"/>
       </g>
      </g>
      <g class="com.sun.star.drawing.PolyPolygonShape">
       <g id="id43">
        <rect class="BoundingBox" stroke="none" fill="none" x="12448" y="13312" width="853" height="514"/>
        <path fill="rgb(255,161,29)" stroke="none" d="M 12449,13663 L 13181,13825 13300,13534 12594,13312 12449,13663 Z"/>
       </g>
      </g>
      <g class="com.sun.star.drawing.PolyPolygonShape">
       <g id="id44">
        <rect class="BoundingBox" stroke="none" fill="none" x="13305" y="13536" width="832" height="501"/>
        <path fill="rgb(255,161,29)" stroke="none" d="M 13305,13852 L 14135,14036 14135,13798 13305,13536 13305,13852 Z"/>
       </g>
      </g>
      <g class="com.sun.star.drawing.ClosedBezierShape">
       <g id="id45">
        <rect class="BoundingBox" stroke="none" fill="none" x="15000" y="13567" width="787" height="457"/>
        <path fill="rgb(255,161,29)" stroke="none" d="M 15746,14023 C 15759,13995 15772,13967 15786,13940 L 15070,13567 C 15046,13615 15022,13664 15001,13714 L 15746,14023 Z"/>
       </g>
      </g>
      <g class="com.sun.star.drawing.ClosedBezierShape">
       <g id="id46">
        <rect class="BoundingBox" stroke="none" fill="none" x="15110" y="13346" width="767" height="517"/>
        <path fill="rgb(255,161,29)" stroke="none" d="M 15828,13862 C 15843,13834 15859,13807 15876,13780 L 15195,13346 C 15166,13393 15138,13440 15111,13488 L 15828,13862 Z"/>
       </g>
      </g>
      <g class="com.sun.star.drawing.ClosedBezierShape">
       <g id="id47">
        <rect class="BoundingBox" stroke="none" fill="none" x="19390" y="13375" width="751" height="494"/>
        <path fill="rgb(255,161,29)" stroke="none" d="M 19425,13868 L 20140,13495 C 20118,13454 20095,13414 20071,13375 L 19390,13808 C 19402,13828 19413,13848 19425,13868 Z"/>
       </g>
      </g>
      <g class="com.sun.star.drawing.ClosedBezierShape">
       <g id="id48">
        <rect class="BoundingBox" stroke="none" fill="none" x="860" y="14179" width="916" height="1370"/>
        <path fill="rgb(255,161,29)" stroke="none" d="M 1666,14851 C 1666,14629 1702,14416 1766,14215 L 939,14179 C 888,14396 860,14620 860,14851 860,15091 890,15325 946,15548 L 1775,15512 C 1705,15304 1666,15082 1666,14851 Z"/>
       </g>
      </g>
      <g class="com.sun.star.drawing.ClosedBezierShape">
       <g id="id49">
        <rect class="BoundingBox" stroke="none" fill="none" x="14840" y="14033" width="814" height="334"/>
        <path fill="rgb(255,161,29)" stroke="none" d="M 15628,14366 C 15635,14336 15644,14306 15653,14276 L 14883,14033 C 14867,14085 14853,14139 14840,14192 L 15628,14366 Z"/>
       </g>
      </g>
      <g class="com.sun.star.drawing.ClosedBezierShape">
       <g id="id50">
        <rect class="BoundingBox" stroke="none" fill="none" x="14910" y="13796" width="803" height="396"/>
        <path fill="rgb(255,161,29)" stroke="none" d="M 15680,14191 C 15690,14162 15700,14134 15712,14105 L 14966,13796 C 14946,13846 14928,13897 14910,13948 L 15680,14191 Z"/>
       </g>
      </g>
      <g class="com.sun.star.drawing.PolyPolygonShape">
       <g id="id51">
        <rect class="BoundingBox" stroke="none" fill="none" x="6875" y="14436" width="830" height="854"/>
        <path fill="rgb(255,161,29)" stroke="none" d="M 7704,15253 L 7704,14472 6875,14436 6875,15289 7704,15253 Z"/>
       </g>
      </g>
      <g class="com.sun.star.drawing.PolyPolygonShape">
       <g id="id52">
        <rect class="BoundingBox" stroke="none" fill="none" x="8440" y="14504" width="831" height="718"/>
        <path fill="rgb(255,161,29)" stroke="none" d="M 8440,15221 L 9270,15185 9270,14540 8440,14504 8440,15221 Z"/>
       </g>
      </g>
      <g class="com.sun.star.drawing.PolyPolygonShape">
       <g id="id53">
        <rect class="BoundingBox" stroke="none" fill="none" x="9698" y="14558" width="1031" height="598"/>
        <path fill="rgb(255,161,29)" stroke="none" d="M 10511,14595 L 9698,14558 9945,15155 10728,15121 10511,14595 Z"/>
       </g>
      </g>
      <g class="com.sun.star.drawing.PolyPolygonShape">
       <g id="id54">
        <rect class="BoundingBox" stroke="none" fill="none" x="12073" y="14190" width="916" height="418"/>
        <path fill="rgb(255,161,29)" stroke="none" d="M 12073,14573 L 12857,14607 12988,14290 12231,14190 12073,14573 Z"/>
       </g>
      </g>
      <g class="com.sun.star.drawing.PolyPolygonShape">
       <g id="id55">
        <rect class="BoundingBox" stroke="none" fill="none" x="11867" y="14660" width="955" height="412"/>
        <path fill="rgb(255,161,29)" stroke="none" d="M 11867,15071 L 12680,15036 12821,14694 12038,14660 11867,15071 Z"/>
       </g>
      </g>
      <g class="com.sun.star.drawing.PolyPolygonShape">
       <g id="id56">
        <rect class="BoundingBox" stroke="none" fill="none" x="13305" y="14332" width="832" height="332"/>
        <path fill="rgb(255,161,29)" stroke="none" d="M 14135,14663 L 14135,14440 13305,14332 13305,14626 14135,14663 Z"/>
       </g>
      </g>
      <g class="com.sun.star.drawing.PolyPolygonShape">
       <g id="id57">
        <rect class="BoundingBox" stroke="none" fill="none" x="13305" y="13942" width="832" height="411"/>
        <path fill="rgb(255,161,29)" stroke="none" d="M 13305,14243 L 14135,14352 14135,14127 13305,13942 13305,14243 Z"/>
       </g>
      </g>
      <g class="com.sun.star.drawing.ClosedBezierShape">
       <g id="id58">
        <rect class="BoundingBox" stroke="none" fill="none" x="14792" y="14278" width="817" height="266"/>
        <path fill="rgb(255,161,29)" stroke="none" d="M 14792,14438 L 15592,14543 C 15597,14513 15602,14483 15608,14453 L 14820,14278 C 14809,14330 14800,14383 14792,14438 Z"/>
       </g>
      </g>
      <g class="com.sun.star.drawing.PolyPolygonShape">
       <g id="id59">
        <rect class="BoundingBox" stroke="none" fill="none" x="13305" y="14714" width="832" height="296"/>
        <path fill="rgb(255,161,29)" stroke="none" d="M 14135,14751 L 13305,14715 13305,15009 14135,14972 14135,14751 Z"/>
       </g>
      </g>
      <g class="com.sun.star.drawing.ClosedBezierShape">
       <g id="id60">
        <rect class="BoundingBox" stroke="none" fill="none" x="14766" y="14525" width="815" height="201"/>
        <path fill="rgb(255,161,29)" stroke="none" d="M 14766,14690 L 15572,14725 C 15574,14693 15577,14662 15580,14631 L 14781,14525 C 14774,14580 14769,14635 14766,14690 Z"/>
       </g>
      </g>
      <g class="com.sun.star.drawing.ClosedBezierShape">
       <g id="id61">
        <rect class="BoundingBox" stroke="none" fill="none" x="14760" y="14778" width="809" height="168"/>
        <path fill="rgb(255,161,29)" stroke="none" d="M 14762,14945 L 15568,14910 C 15568,14894 15567,14879 15567,14864 15567,14846 15568,14829 15568,14812 L 14762,14778 C 14762,14806 14760,14834 14760,14864 14760,14891 14761,14918 14762,14945 Z"/>
       </g>
      </g>
      <g class="com.sun.star.drawing.PolyPolygonShape">
       <g id="id62">
        <rect class="BoundingBox" stroke="none" fill="none" x="8440" y="15273" width="831" height="760"/>
        <path fill="rgb(255,161,29)" stroke="none" d="M 9270,15273 L 8440,15309 8440,16032 9270,15924 9270,15273 Z"/>
       </g>
      </g>
      <g class="com.sun.star.drawing.PolyPolygonShape">
       <g id="id63">
        <rect class="BoundingBox" stroke="none" fill="none" x="9980" y="15207" width="989" height="594"/>
        <path fill="rgb(255,161,29)" stroke="none" d="M 10968,15701 L 10764,15207 9980,15242 10211,15800 10968,15701 Z"/>
       </g>
      </g>
      <g class="com.sun.star.drawing.PolyPolygonShape">
       <g id="id64">
        <rect class="BoundingBox" stroke="none" fill="none" x="11644" y="15125" width="1000" height="488"/>
        <path fill="rgb(255,161,29)" stroke="none" d="M 12643,15125 L 11830,15161 11644,15612 12488,15501 12643,15125 Z"/>
       </g>
      </g>
      <g class="com.sun.star.drawing.PolyPolygonShape">
       <g id="id65">
        <rect class="BoundingBox" stroke="none" fill="none" x="13305" y="15060" width="832" height="335"/>
        <path fill="rgb(255,161,29)" stroke="none" d="M 14135,15285 L 14135,15060 13305,15096 13305,15394 14135,15285 Z"/>
       </g>
      </g>
      <g class="com.sun.star.drawing.ClosedBezierShape">
       <g id="id66">
        <rect class="BoundingBox" stroke="none" fill="none" x="14766" y="14998" width="815" height="203"/>
        <path fill="rgb(255,161,29)" stroke="none" d="M 15572,14998 L 14766,15033 C 14769,15089 14774,15144 14780,15200 L 15580,15094 C 15576,15062 15574,15030 15572,14998 Z"/>
       </g>
      </g>
      <g class="com.sun.star.drawing.ClosedBezierShape">
       <g id="id67">
        <rect class="BoundingBox" stroke="none" fill="none" x="969" y="15598" width="1973" height="1315"/>
        <path fill="rgb(255,161,29)" stroke="none" d="M 1807,15598 L 969,15635 C 1111,16127 1379,16567 1738,16912 L 2941,16754 C 2423,16541 2011,16121 1807,15598 Z"/>
       </g>
      </g>
      <g class="com.sun.star.drawing.PolyPolygonShape">
       <g id="id68">
        <rect class="BoundingBox" stroke="none" fill="none" x="13305" y="15374" width="832" height="410"/>
        <path fill="rgb(255,161,29)" stroke="none" d="M 14135,15374 L 13305,15482 13305,15783 14135,15599 14135,15374 Z"/>
       </g>
      </g>
      <g class="com.sun.star.drawing.ClosedBezierShape">
       <g id="id69">
        <rect class="BoundingBox" stroke="none" fill="none" x="14792" y="15182" width="817" height="267"/>
        <path fill="rgb(255,161,29)" stroke="none" d="M 15591,15182 L 14792,15287 C 14800,15341 14809,15394 14820,15448 L 15608,15273 C 15602,15243 15596,15213 15591,15182 Z"/>
       </g>
      </g>
      <g class="com.sun.star.drawing.PolyPolygonShape">
       <g id="id70">
        <rect class="BoundingBox" stroke="none" fill="none" x="11398" y="15595" width="1051" height="611"/>
        <path fill="rgb(255,161,29)" stroke="none" d="M 12277,16010 L 12448,15595 11604,15706 11398,16205 12277,16010 Z"/>
       </g>
      </g>
      <g class="com.sun.star.drawing.PolyPolygonShape">
       <g id="id71">
        <rect class="BoundingBox" stroke="none" fill="none" x="13305" y="15690" width="832" height="502"/>
        <path fill="rgb(255,161,29)" stroke="none" d="M 14135,15690 L 13305,15874 13305,16191 14135,15930 14135,15690 Z"/>
       </g>
      </g>
      <g class="com.sun.star.drawing.ClosedBezierShape">
       <g id="id72">
        <rect class="BoundingBox" stroke="none" fill="none" x="14840" y="15360" width="813" height="336"/>
        <path fill="rgb(255,161,29)" stroke="none" d="M 15652,15451 C 15643,15421 15635,15390 15627,15360 L 14840,15535 C 14853,15588 14867,15641 14883,15694 L 15652,15451 Z"/>
       </g>
      </g>
      <g class="com.sun.star.drawing.ClosedBezierShape">
       <g id="id73">
        <rect class="BoundingBox" stroke="none" fill="none" x="14910" y="15535" width="802" height="396"/>
        <path fill="rgb(255,161,29)" stroke="none" d="M 15680,15535 L 14910,15777 C 14927,15829 14946,15879 14966,15930 L 15711,15621 C 15700,15593 15690,15564 15680,15535 Z"/>
       </g>
      </g>
      <g class="com.sun.star.drawing.ClosedBezierShape">
       <g id="id74">
        <rect class="BoundingBox" stroke="none" fill="none" x="1821" y="16425" width="4294" height="1290"/>
        <path fill="rgb(255,161,29)" stroke="none" d="M 6114,16426 L 4810,16598 C 4495,16794 4123,16908 3724,16908 3516,16908 3314,16876 3125,16819 L 1821,16990 C 2328,17441 2994,17714 3724,17714 4723,17714 5602,17202 6114,16426 Z"/>
       </g>
      </g>
      <g class="com.sun.star.drawing.ClosedBezierShape">
       <g id="id75">
        <rect class="BoundingBox" stroke="none" fill="none" x="4969" y="15846" width="1272" height="643"/>
        <path fill="rgb(255,161,29)" stroke="none" d="M 6176,16329 C 6198,16292 6219,16256 6240,16218 L 5524,15846 C 5385,16096 5196,16314 4969,16488 L 6176,16329 Z"/>
       </g>
      </g>
      <g class="com.sun.star.drawing.PolyPolygonShape">
       <g id="id76">
        <rect class="BoundingBox" stroke="none" fill="none" x="6875" y="15341" width="830" height="898"/>
        <path fill="rgb(255,161,29)" stroke="none" d="M 7704,15341 L 6875,15377 6875,16238 7704,16129 7704,15341 Z"/>
       </g>
      </g>
      <g class="com.sun.star.drawing.PolyPolygonShape">
       <g id="id77">
        <rect class="BoundingBox" stroke="none" fill="none" x="6875" y="16218" width="830" height="989"/>
        <path fill="rgb(255,161,29)" stroke="none" d="M 7704,16218 L 6875,16327 6875,17206 7704,17023 7704,16218 Z"/>
       </g>
      </g>
      <g class="com.sun.star.drawing.PolyPolygonShape">
       <g id="id78">
        <rect class="BoundingBox" stroke="none" fill="none" x="8440" y="16012" width="831" height="849"/>
        <path fill="rgb(255,161,29)" stroke="none" d="M 9270,16676 L 9270,16012 8440,16121 8440,16860 9270,16676 Z"/>
       </g>
      </g>
      <g class="com.sun.star.drawing.PolyPolygonShape">
       <g id="id79">
        <rect class="BoundingBox" stroke="none" fill="none" x="10246" y="15785" width="950" height="628"/>
        <path fill="rgb(255,161,29)" stroke="none" d="M 11003,15785 L 10246,15884 10464,16412 11195,16250 11003,15785 Z"/>
       </g>
      </g>
      <g class="com.sun.star.drawing.PolyPolygonShape">
       <g id="id80">
        <rect class="BoundingBox" stroke="none" fill="none" x="13305" y="16022" width="832" height="596"/>
        <path fill="rgb(255,161,29)" stroke="none" d="M 14135,16273 L 14135,16022 13305,16283 13305,16617 14135,16273 Z"/>
       </g>
      </g>
      <g class="com.sun.star.drawing.PolyPolygonShape">
       <g id="id81">
        <rect class="BoundingBox" stroke="none" fill="none" x="8440" y="16766" width="831" height="866"/>
        <path fill="rgb(255,161,29)" stroke="none" d="M 9270,16766 L 8440,16951 8440,17631 8733,17631 9270,17462 9270,16766 Z"/>
       </g>
      </g>
      <g class="com.sun.star.drawing.PolyPolygonShape">
       <g id="id82">
        <rect class="BoundingBox" stroke="none" fill="none" x="10498" y="16110" width="1738" height="899"/>
        <path fill="rgb(255,161,29)" stroke="none" d="M 12037,16590 L 12235,16110 11358,16304 11288,16474 11228,16333 10498,16494 10710,17008 12037,16590 Z"/>
       </g>
      </g>
      <g class="com.sun.star.drawing.ClosedBezierShape">
       <g id="id83">
        <rect class="BoundingBox" stroke="none" fill="none" x="14999" y="15703" width="787" height="456"/>
        <path fill="rgb(255,161,29)" stroke="none" d="M 15785,15786 C 15771,15758 15758,15731 15746,15703 L 15000,16011 C 15022,16060 15045,16109 15070,16158 L 15785,15786 Z"/>
       </g>
      </g>
      <g class="com.sun.star.drawing.ClosedBezierShape">
       <g id="id84">
        <rect class="BoundingBox" stroke="none" fill="none" x="15111" y="15864" width="763" height="513"/>
        <path fill="rgb(255,161,29)" stroke="none" d="M 15873,15943 C 15857,15917 15842,15891 15827,15864 L 15111,16237 C 15136,16284 15164,16331 15192,16376 L 15873,15943 Z"/>
       </g>
      </g>
      <g class="com.sun.star.drawing.ClosedBezierShape">
       <g id="id85">
        <rect class="BoundingBox" stroke="none" fill="none" x="15240" y="16016" width="737" height="571"/>
        <path fill="rgb(255,161,29)" stroke="none" d="M 15976,16095 C 15957,16069 15939,16044 15921,16017 L 15240,16451 C 15271,16497 15303,16542 15336,16586 L 15976,16095 Z"/>
       </g>
      </g>
      <g class="com.sun.star.drawing.ClosedBezierShape">
       <g id="id86">
        <rect class="BoundingBox" stroke="none" fill="none" x="15391" y="16165" width="701" height="616"/>
        <path fill="rgb(255,161,29)" stroke="none" d="M 16031,16165 L 15391,16656 C 15425,16698 15460,16740 15496,16780 L 16091,16235 C 16071,16212 16050,16188 16031,16165 Z"/>
       </g>
      </g>
      <g class="com.sun.star.drawing.ClosedBezierShape">
       <g id="id87">
        <rect class="BoundingBox" stroke="none" fill="none" x="15557" y="16300" width="663" height="663"/>
        <path fill="rgb(255,161,29)" stroke="none" d="M 16151,16300 L 15557,16845 C 15595,16884 15634,16923 15674,16961 L 16219,16366 C 16196,16344 16173,16322 16151,16300 Z"/>
       </g>
      </g>
      <g class="com.sun.star.drawing.ClosedBezierShape">
       <g id="id88">
        <rect class="BoundingBox" stroke="none" fill="none" x="15740" y="16425" width="616" height="699"/>
        <path fill="rgb(255,161,29)" stroke="none" d="M 16355,16482 C 16332,16464 16308,16445 16286,16425 L 15740,17019 C 15781,17055 15822,17089 15864,17122 L 16355,16482 Z"/>
       </g>
      </g>
      <g class="com.sun.star.drawing.ClosedBezierShape">
       <g id="id89">
        <rect class="BoundingBox" stroke="none" fill="none" x="16148" y="16637" width="513" height="760"/>
        <path fill="rgb(255,161,29)" stroke="none" d="M 16660,16681 C 16634,16667 16607,16652 16581,16637 L 16148,17318 C 16194,17346 16240,17372 16287,17396 L 16660,16681 Z"/>
       </g>
      </g>
      <g class="com.sun.star.drawing.ClosedBezierShape">
       <g id="id90">
        <rect class="BoundingBox" stroke="none" fill="none" x="16366" y="16721" width="457" height="784"/>
        <path fill="rgb(255,161,29)" stroke="none" d="M 16822,16759 C 16794,16747 16767,16734 16739,16721 L 16366,17437 C 16415,17461 16464,17483 16513,17504 L 16822,16759 Z"/>
       </g>
      </g>
      <g class="com.sun.star.drawing.ClosedBezierShape">
       <g id="id91">
        <rect class="BoundingBox" stroke="none" fill="none" x="16596" y="16791" width="398" height="801"/>
        <path fill="rgb(255,161,29)" stroke="none" d="M 16992,16821 C 16963,16812 16934,16802 16905,16791 L 16596,17537 C 16646,17556 16697,17574 16749,17591 L 16992,16821 Z"/>
       </g>
      </g>
      <g class="com.sun.star.drawing.ClosedBezierShape">
       <g id="id92">
        <rect class="BoundingBox" stroke="none" fill="none" x="16834" y="16847" width="333" height="810"/>
        <path fill="rgb(255,161,29)" stroke="none" d="M 17166,16869 C 17136,16862 17107,16855 17077,16847 L 16834,17616 C 16886,17631 16938,17644 16991,17656 L 17166,16869 Z"/>
       </g>
      </g>
      <g class="com.sun.star.drawing.ClosedBezierShape">
       <g id="id93">
        <rect class="BoundingBox" stroke="none" fill="none" x="17077" y="16887" width="265" height="814"/>
        <path fill="rgb(255,161,29)" stroke="none" d="M 17341,16901 C 17311,16897 17282,16892 17253,16887 L 17077,17675 C 17129,17685 17183,17693 17236,17700 L 17341,16901 Z"/>
       </g>
      </g>
      <g class="com.sun.star.drawing.ClosedBezierShape">
       <g id="id94">
        <rect class="BoundingBox" stroke="none" fill="none" x="17323" y="16911" width="198" height="815"/>
        <path fill="rgb(255,161,29)" stroke="none" d="M 17520,16918 C 17489,16917 17459,16914 17429,16911 L 17323,17712 C 17377,17717 17431,17721 17485,17724 L 17520,16918 Z"/>
       </g>
      </g>
      <g class="com.sun.star.drawing.ClosedBezierShape">
       <g id="id95">
        <rect class="BoundingBox" stroke="none" fill="none" x="17573" y="16919" width="165" height="809"/>
        <path fill="rgb(255,161,29)" stroke="none" d="M 17702,16919 C 17675,16920 17650,16921 17624,16921 17618,16921 17613,16920 17608,16920 L 17573,17726 C 17590,17726 17607,17727 17624,17727 17661,17727 17700,17727 17737,17725 L 17702,16919 Z"/>
       </g>
      </g>
      <g class="com.sun.star.drawing.ClosedBezierShape">
       <g id="id96">
        <rect class="BoundingBox" stroke="none" fill="none" x="17790" y="16904" width="200" height="817"/>
        <path fill="rgb(255,161,29)" stroke="none" d="M 17988,17704 L 17883,16904 C 17852,16908 17821,16912 17790,16914 L 17825,17720 C 17880,17717 17934,17711 17988,17704 Z"/>
       </g>
      </g>
      <g class="com.sun.star.drawing.ClosedBezierShape">
       <g id="id97">
        <rect class="BoundingBox" stroke="none" fill="none" x="17970" y="16874" width="263" height="819"/>
        <path fill="rgb(255,161,29)" stroke="none" d="M 18057,16875 C 18028,16881 17999,16887 17970,16892 L 18075,17692 C 18127,17683 18181,17674 18232,17662 L 18057,16875 Z"/>
       </g>
      </g>
      <g class="com.sun.star.drawing.ClosedBezierShape">
       <g id="id98">
        <rect class="BoundingBox" stroke="none" fill="none" x="18144" y="16829" width="331" height="814"/>
        <path fill="rgb(255,161,29)" stroke="none" d="M 18231,16829 C 18202,16838 18173,16847 18144,16854 L 18319,17642 C 18371,17629 18423,17615 18474,17599 L 18231,16829 Z"/>
       </g>
      </g>
      <g class="com.sun.star.drawing.ClosedBezierShape">
       <g id="id99">
        <rect class="BoundingBox" stroke="none" fill="none" x="18316" y="16768" width="393" height="804"/>
        <path fill="rgb(255,161,29)" stroke="none" d="M 18399,16769 C 18371,16781 18344,16791 18316,16801 L 18558,17571 C 18609,17554 18659,17535 18708,17515 L 18399,16769 Z"/>
       </g>
      </g>
      <g class="com.sun.star.drawing.ClosedBezierShape">
       <g id="id100">
        <rect class="BoundingBox" stroke="none" fill="none" x="18480" y="16695" width="456" height="786"/>
        <path fill="rgb(255,161,29)" stroke="none" d="M 18561,16695 C 18534,16709 18507,16722 18480,16734 L 18790,17480 C 18838,17458 18886,17435 18934,17411 L 18561,16695 Z"/>
       </g>
      </g>
      <g class="com.sun.star.drawing.ClosedBezierShape">
       <g id="id101">
        <rect class="BoundingBox" stroke="none" fill="none" x="18639" y="16608" width="509" height="762"/>
        <path fill="rgb(255,161,29)" stroke="none" d="M 18714,16608 C 18689,16624 18664,16639 18639,16653 L 19011,17369 C 19058,17344 19103,17317 19147,17289 L 18714,16608 Z"/>
       </g>
      </g>
      <g class="com.sun.star.drawing.ClosedBezierShape">
       <g id="id102">
        <rect class="BoundingBox" stroke="none" fill="none" x="18788" y="16506" width="567" height="735"/>
        <path fill="rgb(255,161,29)" stroke="none" d="M 18863,16506 C 18838,16524 18813,16542 18788,16560 L 19222,17240 C 19267,17209 19311,17178 19354,17145 L 18863,16506 Z"/>
       </g>
      </g>
      <g class="com.sun.star.drawing.ClosedBezierShape">
       <g id="id103">
        <rect class="BoundingBox" stroke="none" fill="none" x="18932" y="16393" width="613" height="699"/>
        <path fill="rgb(255,161,29)" stroke="none" d="M 18999,16393 C 18977,16413 18955,16432 18932,16450 L 19424,17091 C 19465,17057 19505,17022 19544,16987 L 18999,16393 Z"/>
       </g>
      </g>
      <g class="com.sun.star.drawing.ClosedBezierShape">
       <g id="id104">
        <rect class="BoundingBox" stroke="none" fill="none" x="19063" y="16269" width="659" height="659"/>
        <path fill="rgb(255,161,29)" stroke="none" d="M 19126,16269 C 19106,16290 19085,16312 19064,16332 L 19609,16927 C 19648,16891 19685,16853 19721,16814 L 19126,16269 Z"/>
       </g>
      </g>
      <g class="com.sun.star.drawing.ClosedBezierShape">
       <g id="id105">
        <rect class="BoundingBox" stroke="none" fill="none" x="19185" y="16134" width="699" height="615"/>
        <path fill="rgb(255,161,29)" stroke="none" d="M 19241,16134 C 19223,16158 19204,16180 19185,16203 L 19779,16748 C 19815,16708 19849,16668 19882,16626 L 19241,16134 Z"/>
       </g>
      </g>
      <g class="com.sun.star.drawing.ClosedBezierShape">
       <g id="id106">
        <rect class="BoundingBox" stroke="none" fill="none" x="19295" y="15987" width="733" height="569"/>
        <path fill="rgb(255,161,29)" stroke="none" d="M 19346,15988 C 19329,16014 19312,16039 19295,16063 L 19935,16555 C 19967,16512 19997,16467 20027,16422 L 19346,15988 Z"/>
       </g>
      </g>
      <g class="com.sun.star.drawing.ClosedBezierShape">
       <g id="id107">
        <rect class="BoundingBox" stroke="none" fill="none" x="19392" y="15859" width="749" height="489"/>
        <path fill="rgb(255,161,29)" stroke="none" d="M 19393,15913 L 20074,16347 C 20097,16308 20119,16270 20140,16231 L 19425,15859 C 19414,15877 19404,15895 19393,15913 Z"/>
       </g>
      </g>
      <g class="com.sun.star.drawing.PolyPolygonShape">
       <g id="id108">
        <rect class="BoundingBox" stroke="none" fill="none" x="6875" y="17113" width="830" height="519"/>
        <path fill="rgb(255,161,29)" stroke="none" d="M 7704,17113 L 6875,17297 6875,17631 7704,17631 7704,17113 Z"/>
       </g>
      </g>
      <g class="com.sun.star.drawing.PolyPolygonShape">
       <g id="id109">
        <rect class="BoundingBox" stroke="none" fill="none" x="9028" y="17554" width="243" height="79"/>
        <path fill="rgb(255,161,29)" stroke="none" d="M 9270,17554 L 9028,17631 9270,17631 9270,17554 Z"/>
       </g>
      </g>
      <g class="com.sun.star.drawing.PolyPolygonShape">
       <g id="id110">
        <rect class="BoundingBox" stroke="none" fill="none" x="10744" y="16696" width="1250" height="897"/>
        <path fill="rgb(255,161,29)" stroke="none" d="M 11993,16696 L 10744,17089 10951,17592 11761,17256 11993,16696 Z"/>
       </g>
      </g>
      <g class="com.sun.star.drawing.PolyPolygonShape">
       <g id="id111">
        <rect class="BoundingBox" stroke="none" fill="none" x="13305" y="16369" width="832" height="709"/>
        <path fill="rgb(255,161,29)" stroke="none" d="M 14135,16369 L 13305,16713 13305,17076 14135,16645 14135,16369 Z"/>
       </g>
      </g>
      <g class="com.sun.star.drawing.PolyPolygonShape">
       <g id="id112">
        <rect class="BoundingBox" stroke="none" fill="none" x="13305" y="16744" width="832" height="835"/>
        <path fill="rgb(255,161,29)" stroke="none" d="M 14135,17050 L 14135,16744 13305,17177 13305,17578 14135,17050 Z"/>
       </g>
      </g>
      <g class="com.sun.star.drawing.ClosedBezierShape">
       <g id="id113">
        <rect class="BoundingBox" stroke="none" fill="none" x="15935" y="16535" width="573" height="737"/>
        <path fill="rgb(255,161,29)" stroke="none" d="M 16507,16590 C 16479,16573 16453,16554 16426,16535 L 15935,17175 C 15980,17208 16026,17239 16073,17271 L 16507,16590 Z"/>
       </g>
      </g>
      <g class="com.sun.star.drawing.PolyPolygonShape">
       <g id="id114">
        <rect class="BoundingBox" stroke="none" fill="none" x="11090" y="17372" width="625" height="259"/>
        <path fill="rgb(255,161,29)" stroke="none" d="M 11428,17630 L 11607,17630 11714,17372 11090,17630 11145,17630 11428,17630 Z"/>
       </g>
      </g>
      <g class="com.sun.star.drawing.PolyPolygonShape">
       <g id="id115">
        <rect class="BoundingBox" stroke="none" fill="none" x="13388" y="17155" width="748" height="477"/>
        <path fill="rgb(255,161,29)" stroke="none" d="M 14135,17508 L 14135,17155 13388,17631 13975,17631 14135,17508 Z"/>
       </g>
      </g>
      <g class="com.sun.star.drawing.PolyPolygonShape">
       <g id="id116">
        <rect class="BoundingBox" stroke="none" fill="none" x="14120" y="17618" width="16" height="14"/>
        <path fill="rgb(255,161,29)" stroke="none" d="M 14120,17631 L 14135,17631 14135,17619 14120,17631 Z"/>
       </g>
      </g>
     </g>
    </g>
   </g>
  </g>
 </g>
</svg>