<?xml version="1.0" encoding="UTF-8"?>
<!DOCTYPE svg PUBLIC "-//W3C//DTD SVG 1.1//EN" "http://www.w3.org/Graphics/SVG/1.1/DTD/svg11.dtd">
<svg version="1.2" width="151.59mm" height="108.55mm" viewBox="0 0 15159 10855" preserveAspectRatio="xMidYMid" fill-rule="evenodd" stroke-width="28.222" stroke-linejoin="round" xmlns="http://www.w3.org/2000/svg" xmlns:ooo="http://xml.openoffice.org/svg/export" xmlns:xlink="http://www.w3.org/1999/xlink" xmlns:presentation="http://sun.com/xmlns/staroffice/presentation" xmlns:smil="http://www.w3.org/2001/SMIL20/" xmlns:anim="urn:oasis:names:tc:opendocument:xmlns:animation:1.0" xmlns:svg="urn:oasis:names:tc:opendocument:xmlns:svg-compatible:1.0" xml:space="preserve">
<g id="id3">
    <path fill="rgb(0,0,0)" stroke="none" d="M 8471,6310 L 8471,5004 7931,6310 7728,6310 7188,5004 7188,6310 6925,6310 6925,4543 7251,4543 7830,5943 8408,4543 8735,4543 8735,6310 8471,6310 Z M 6427,6310 L 6691,6310 6691,4543 6427,4543 6427,6310 Z M 5998,5110 C 5886,4908 5672,4772 5425,4772 5064,4772 4771,5065 4771,5426 4771,5788 5064,6081 5425,6081 5672,6081 5886,5944 5998,5743 L 6225,5861 C 6071,6144 5770,6337 5425,6337 4923,6337 4515,5929 4515,5426 4515,4924 4923,4515 5425,4515 5770,4515 6071,4708 6225,4991 L 5998,5110 Z M 10645,4996 C 10491,4712 10190,4519 9845,4519 9342,4519 8934,4928 8934,5431 8934,5933 9342,6341 9845,6341 10190,6341 10491,6149 10645,5865 L 10418,5747 C 10306,5948 10092,6085 9845,6085 9484,6085 9190,5792 9190,5431 9190,5069 9484,4776 9845,4776 10092,4776 10306,4913 10418,5114 L 10645,4996 Z"/>
</g>
</svg>