<?xml version="1.0" encoding="UTF-8" standalone="no"?>
<!-- Created with Inkscape (http://www.inkscape.org/) -->

<svg
   version="1.1"
   id="svg2"
   width="173.73067"
   height="51.723999"
   viewBox="0 0 173.73067 51.723999"
   sodipodi:docname="CIMC_KH_05.pdf"
   xmlns:inkscape="http://www.inkscape.org/namespaces/inkscape"
   xmlns:sodipodi="http://sodipodi.sourceforge.net/DTD/sodipodi-0.dtd"
   xmlns="http://www.w3.org/2000/svg"
   xmlns:svg="http://www.w3.org/2000/svg">
  <defs
     id="defs6">
    <clipPath
       clipPathUnits="userSpaceOnUse"
       id="clipPath32">
      <path
         d="M 0,0 H 595.276 V 3203.15 H 0 Z"
         id="path30" />
    </clipPath>
  </defs>
  <sodipodi:namedview
     id="namedview4"
     pagecolor="#ffffff"
     bordercolor="#000000"
     borderopacity="0.25"
     inkscape:showpageshadow="2"
     inkscape:pageopacity="0.0"
     inkscape:pagecheckerboard="0"
     inkscape:deskcolor="#d1d1d1"
     showgrid="false" />
  <g
     id="g10"
     inkscape:groupmode="layer"
     inkscape:label="Page 1"
     transform="matrix(1.3333333,0,0,-1.3333333,-48.000401,4238.8667)">
    <g
       id="g26"
       transform="translate(0,-2.7400955)">
      <g
         id="g28"
         clip-path="url(#clipPath32)">
        <g
           id="g34"
           transform="translate(120.1103,3143.7522)">
          <path
             d="M 0,0 V 27.772 L -11.481,0 h -1.202 -1.914 -1.201 L -27.279,27.772 V 0 h -5.6 v 37.551 h 1.557 4.043 1.344 L -13.64,7.81 -1.345,37.551 H 0 4.043 5.6 V 0 Z m -43.46,0 h 5.6 v 37.551 h -5.6 z m -9.127,25.515 c -2.372,4.28 -6.932,7.179 -12.172,7.179 -7.681,0 -13.907,-6.227 -13.907,-13.908 0,-7.681 6.226,-13.908 13.907,-13.908 5.24,0 9.8,2.899 12.172,7.179 l 4.831,-2.518 c -3.281,-6.02 -9.665,-10.105 -17.003,-10.105 -10.687,0 -19.351,8.664 -19.351,19.352 0,10.688 8.664,19.352 19.351,19.352 7.338,0 13.722,-4.085 17.003,-10.105 z m 98.775,2.429 c -3.28,6.02 -9.664,10.105 -17.002,10.105 -10.688,0 -19.352,-8.664 -19.352,-19.352 0,-10.688 8.664,-19.352 19.352,-19.352 7.338,0 13.722,4.085 17.002,10.105 l -4.831,2.517 C 38.986,7.688 34.425,4.789 29.186,4.789 c -7.681,0 -13.908,6.227 -13.908,13.908 0,7.681 6.227,13.907 13.908,13.907 5.239,0 9.8,-2.898 12.171,-7.178 z"
             style="fill:#000000;fill-opacity:1;fill-rule:nonzero;stroke:none"
             id="path36" />
        </g>
      </g>
    </g>
  </g>
</svg>
